<svg width="368" height="386" viewBox="0 0 368 386" fill="none" xmlns="http://www.w3.org/2000/svg">
<path d="M33.7903 341.814L36.949 61.0991C37.0391 59.0218 37.9029 57.0534 39.371 55.5809C40.839 54.1085 42.805 53.2385 44.882 53.1421L344.388 45.9085C345.562 45.8538 346.734 46.0475 347.828 46.4773C348.922 46.9071 349.912 47.5633 350.735 48.4025C351.557 49.2417 352.194 50.2453 352.601 51.3474C353.009 52.4495 353.179 53.6252 353.101 54.7978L345.69 150.62" stroke="#0D4536" stroke-width="2" stroke-linecap="round" stroke-linejoin="round"/>
<path d="M345.715 150.612L353.109 54.8059C353.187 53.6348 353.017 52.4605 352.611 51.3591C352.206 50.2578 351.574 49.2538 350.755 48.4126C349.937 47.5714 348.951 46.9116 347.861 46.4761C346.771 46.0405 345.602 45.8388 344.429 45.8842L44.8739 53.1178C42.8053 53.2453 40.8549 54.1248 39.3894 55.5903C37.9239 57.0558 37.0444 59.0064 36.9169 61.075L36.5152 94.1087L33.7822 341.822" stroke="#0D4536" stroke-width="2" stroke-linecap="round" stroke-linejoin="round"/>
<path d="M67.2339 160.385L150.501 157.901C152.073 157.821 153.637 158.161 155.033 158.888C156.429 159.614 157.606 160.7 158.442 162.033C184.355 201.344 237.603 200.757 260.887 156.567C261.592 155.181 262.65 154.006 263.954 153.159C265.257 152.312 266.762 151.825 268.314 151.745L357.417 150.442C358.696 150.393 359.969 150.627 361.147 151.126C362.326 151.624 363.38 152.377 364.234 153.329C365.089 154.281 365.723 155.41 366.093 156.635C366.462 157.86 366.557 159.151 366.37 160.417L341.663 330.4C341.372 332.385 340.404 334.208 338.924 335.561C337.443 336.914 335.541 337.715 333.538 337.827L42.5427 354.231C41.2516 354.304 39.9607 354.088 38.7634 353.599C37.5661 353.111 36.4927 352.362 35.6208 351.407C34.749 350.452 34.1007 349.315 33.7228 348.078C33.345 346.841 33.247 345.536 33.4364 344.257L59.1562 167.844C59.4404 165.861 60.3988 164.038 61.87 162.679C63.3412 161.321 65.2354 160.51 67.2339 160.385Z" stroke="#0D4536" stroke-width="2" stroke-linecap="round" stroke-linejoin="round"/>
<path d="M246.547 309.842C269.862 282.736 269.602 244.28 245.965 223.948C222.327 203.616 184.265 209.108 160.949 236.214C137.633 263.321 137.894 301.777 161.531 322.108C185.168 342.44 223.231 336.948 246.547 309.842Z" stroke="#0D4536" stroke-width="2" stroke-linecap="round" stroke-linejoin="round"/>
<path d="M211.498 227.98C205.518 228.119 199.781 230.377 195.311 234.351C190.84 238.326 187.926 243.758 187.088 249.681C186.484 252.375 186.478 255.169 187.069 257.866C187.66 260.563 188.835 263.097 190.51 265.292C192.185 267.486 194.32 269.288 196.766 270.569C199.212 271.85 201.908 272.58 204.666 272.708C210.646 272.568 216.381 270.309 220.851 266.335C225.321 262.361 228.236 256.929 229.076 251.007C229.678 248.313 229.683 245.52 229.092 242.824C228.5 240.127 227.325 237.593 225.65 235.399C223.975 233.205 221.841 231.404 219.396 230.122C216.951 228.84 214.255 228.109 211.498 227.98ZM198.348 256.666C197.649 256.288 196.974 255.862 196.307 255.46C197.774 258.548 199.629 261.435 201.829 264.052C197.723 262.099 194.549 258.612 192.988 254.343C192.76 253.313 192.639 252.263 192.626 251.208C192.432 247.879 193.102 244.557 194.571 241.563C195.297 240.059 196.354 238.739 197.662 237.7C198.97 236.662 200.496 235.933 202.126 235.567C199.405 238.474 197.542 242.076 196.741 245.976C196.109 249.619 196.673 253.369 198.348 256.666Z" fill="#0D4536"/>
<path d="M160.462 318.136C164.63 323.047 169.776 327.035 175.572 329.846C188.862 334.496 203.241 335.055 216.852 331.453C224.936 328.57 232.381 324.139 238.77 318.409V318.345C242.17 261.48 170.766 259.543 160.462 318.136ZM182.211 324.871C176.113 323.495 170.436 320.669 165.662 316.632C166.416 307.588 169.765 298.953 175.307 291.765C172.899 296.596 172.109 302.075 173.056 307.389C171.941 306.904 170.968 306.144 170.227 305.179C170.804 307.916 172.206 310.41 174.246 312.324C176.257 314.161 178.459 315.777 180.813 317.147C180.355 317.445 179.836 317.636 179.295 317.704C178.753 317.772 178.203 317.716 177.686 317.541C176.694 317.169 175.628 317.036 174.575 317.155C182.015 323.076 191.015 326.706 200.48 327.603C194.27 327.91 188.06 326.981 182.211 324.871Z" fill="#0D4536"/>
<path d="M98.8628 100.362L290.041 92.5493" stroke="#0D4536" stroke-width="2" stroke-linecap="round" stroke-linejoin="round"/>
<path d="M101.523 136.192L243.569 128.935" stroke="#0D4536" stroke-width="2" stroke-linecap="round" stroke-linejoin="round"/>
<path d="M117.976 339.973L117.381 340.013L83.7767 342.135L61.505 343.542C58.5633 343.727 55.6218 343.863 52.664 344.096C51.7912 344.333 50.8675 344.307 50.0096 344.021C49.1516 343.735 48.3973 343.202 47.8413 342.489C47.21 341.663 46.75 340.719 46.4878 339.713C46.2256 338.707 46.1664 337.659 46.3141 336.63C48.0502 322.677 51.1368 308.748 53.548 294.891L58.2417 267.877C60.7836 276.922 64.9803 285.416 70.6192 292.93L60.9021 289.659L75.9644 313.353L62.4052 310.01C76.1266 324.414 93.9339 334.266 113.427 338.237" fill="#0D4536"/>
<path d="M336.127 161.575C336.937 161.237 337.821 161.11 338.694 161.207C339.567 161.304 340.401 161.622 341.118 162.129C341.903 162.753 342.503 163.578 342.856 164.517C343.208 165.455 343.3 166.472 343.12 167.458C342.956 167.957 342.662 168.403 342.269 168.752C341.877 169.1 341.4 169.339 340.885 169.443C340.218 169.572 339.519 169.443 338.86 169.652C338.2 169.861 337.525 170.456 336.786 170.665C336.285 170.786 335.76 170.769 335.268 170.616C334.776 170.463 334.334 170.18 333.989 169.797C333.477 169.2 333.109 168.493 332.912 167.731C332.715 166.969 332.695 166.173 332.855 165.402C333.014 164.632 333.347 163.908 333.829 163.286C334.312 162.664 334.93 162.161 335.637 161.816C335.797 161.727 335.958 161.647 336.127 161.575Z" fill="#0D4536"/>
<path d="M331.167 184.176C331.576 183.961 331.933 183.66 332.212 183.292L333.684 181.684C333.998 181.388 334.217 181.005 334.31 180.583C334.56 178.365 329.946 177.248 328.684 178.976C327.422 180.704 328.403 185.373 331.167 184.176Z" fill="#0D4536"/>
<path d="M351.754 175.415C352.071 175.242 352.346 175 352.557 174.707L353.739 173.389C353.993 173.152 354.169 172.844 354.245 172.505C354.438 170.721 350.741 169.821 349.745 171.203C348.748 172.585 349.552 176.387 351.754 175.415Z" fill="#0D4536"/>
<path d="M42.5447 354.2C41.2541 354.277 39.9623 354.064 38.7644 353.578C37.5665 353.091 36.4928 352.342 35.6219 351.387C34.751 350.431 34.1049 349.293 33.7312 348.055C33.3576 346.817 33.2658 345.511 33.4624 344.233L33.7837 341.822L36.5167 94.1084L8.707 95.3944C7.48657 95.449 6.28964 95.7484 5.1872 96.2747C4.08475 96.8011 3.09967 97.5438 2.28992 98.4585C1.48016 99.3732 0.862591 100.441 0.473844 101.599C0.0850961 102.757 -0.0669277 103.982 0.0269385 105.2L16.4231 333.865C16.7972 338.741 18.6077 343.397 21.626 347.245C24.6444 351.093 28.7351 353.961 33.382 355.486C36.0392 355.91 38.7289 356.098 41.4194 356.048L44.1523 354.119L42.5447 354.2ZM15.5067 137.623C14.3092 137.623 13.337 136.016 13.337 133.966C13.337 131.917 14.3092 130.309 15.5067 130.309C16.7043 130.309 17.677 131.917 17.677 133.966C17.677 136.016 16.7043 137.623 15.5067 137.623ZM17.677 122.858C16.4232 122.858 15.4022 120.327 15.4022 117.232C15.4022 114.138 16.4232 111.606 17.677 111.606C18.9308 111.606 19.9596 114.138 19.9596 117.232C19.9596 120.327 18.963 122.858 17.677 122.858ZM26.5822 131.274C25.666 131.274 24.9266 129.819 24.9266 128.058C24.9266 126.298 25.666 124.844 26.5822 124.844C27.4985 124.844 28.2384 126.298 28.2384 128.058C28.2384 129.819 27.4905 131.274 26.5822 131.274Z" fill="#0D4536"/>
<path d="M47.3926 117.201L48.2442 61.8469H101.525C90.7704 66.3077 80.1128 70.1656 69.3748 74.6264L83.8421 77.0375L54.2885 90.7012L65.9992 91.7861C56.8964 97.6957 50.2764 106.738 47.3926 117.201Z" fill="#0D4536"/>
<path d="M336.513 79.85C337.725 79.85 338.707 77.511 338.707 74.6257C338.707 71.7404 337.725 69.4014 336.513 69.4014C335.301 69.4014 334.319 71.7404 334.319 74.6257C334.319 77.511 335.301 79.85 336.513 79.85Z" fill="#0D4536"/>
<path d="M342.945 92.5573C343.793 92.5573 344.48 91.0855 344.48 89.27C344.48 87.4544 343.793 85.9827 342.945 85.9827C342.097 85.9827 341.41 87.4544 341.41 89.27C341.41 91.0855 342.097 92.5573 342.945 92.5573Z" fill="#0D4536"/>
<path d="M328.171 94.0848C329.516 94.0848 330.606 91.9473 330.606 89.3106C330.606 86.6739 329.516 84.5364 328.171 84.5364C326.826 84.5364 325.735 86.6739 325.735 89.3106C325.735 91.9473 326.826 94.0848 328.171 94.0848Z" fill="#0D4536"/>
<path d="M355.529 371.971C352.318 372.659 349.377 374.266 347.063 376.597C344.75 378.927 343.165 381.88 342.5 385.096C342.436 385.324 342.3 385.525 342.111 385.668C341.922 385.811 341.692 385.888 341.455 385.888C341.218 385.888 340.988 385.811 340.799 385.668C340.611 385.525 340.474 385.324 340.41 385.096C339.71 381.88 338.1 378.934 335.773 376.607C333.447 374.281 330.5 372.671 327.285 371.971C327.057 371.907 326.856 371.77 326.713 371.581C326.57 371.393 326.493 371.162 326.493 370.926C326.493 370.689 326.57 370.459 326.713 370.27C326.856 370.081 327.057 369.945 327.285 369.881C330.5 369.214 333.452 367.628 335.782 365.315C338.112 363.002 339.72 360.062 340.41 356.852C340.474 356.624 340.611 356.423 340.799 356.28C340.988 356.137 341.218 356.06 341.455 356.06C341.692 356.06 341.922 356.137 342.111 356.28C342.3 356.423 342.436 356.624 342.5 356.852C343.155 360.062 344.739 363.009 347.055 365.326C349.372 367.642 352.318 369.226 355.529 369.881C355.757 369.945 355.957 370.081 356.101 370.27C356.244 370.459 356.321 370.689 356.321 370.926C356.321 371.162 356.244 371.393 356.101 371.581C355.957 371.77 355.757 371.907 355.529 371.971Z" fill="#0D4536"/>
<path d="M53.2678 24.5528C48.3348 25.6083 43.8154 28.0762 40.2604 31.6554C36.7055 35.2346 34.2688 39.7706 33.2468 44.7106C33.147 45.0599 32.9359 45.3672 32.6459 45.586C32.3558 45.8048 32.0025 45.9233 31.6392 45.9233C31.2759 45.9233 30.9226 45.8048 30.6326 45.586C30.3425 45.3672 30.1314 45.0599 30.0316 44.7106C28.9575 39.7718 26.4864 35.246 22.9125 31.6721C19.3387 28.0982 14.8126 25.6269 9.87381 24.5528C9.52447 24.453 9.21743 24.2421 8.99864 23.9521C8.77985 23.662 8.66113 23.3085 8.66113 22.9452C8.66113 22.5819 8.77985 22.2286 8.99864 21.9385C9.21743 21.6485 9.52447 21.4376 9.87381 21.3378C14.8128 20.3164 19.3482 17.8806 22.9273 14.3272C26.5064 10.7738 28.9747 6.25598 30.0316 1.32449C30.1314 0.975156 30.3425 0.667871 30.6326 0.449079C30.9226 0.230287 31.2759 0.112061 31.6392 0.112061C32.0025 0.112061 32.3558 0.230287 32.6459 0.449079C32.9359 0.667871 33.147 0.975156 33.2468 1.32449C34.2507 6.25747 36.6844 10.7859 40.2447 14.3448C43.8051 17.9038 48.3344 20.3359 53.2678 21.3378C53.6171 21.4376 53.9246 21.6485 54.1434 21.9385C54.3622 22.2286 54.4804 22.5819 54.4804 22.9452C54.4804 23.3085 54.3622 23.662 54.1434 23.9521C53.9246 24.2421 53.6171 24.453 53.2678 24.5528Z" fill="#0D4536"/>
<path d="M329.327 296.893L288.433 297.849C287.929 297.861 287.447 298.053 287.073 298.391C286.7 298.729 286.461 299.19 286.399 299.69L283.144 325.346C283.106 325.646 283.133 325.952 283.223 326.241C283.314 326.53 283.466 326.796 283.669 327.021C283.872 327.246 284.121 327.425 284.4 327.545C284.678 327.665 284.979 327.723 285.282 327.716L325.959 326.623C326.458 326.611 326.935 326.421 327.306 326.088C327.678 325.755 327.918 325.301 327.984 324.807L331.457 299.272C331.497 298.971 331.473 298.665 331.384 298.375C331.294 298.084 331.144 297.817 330.941 297.591C330.739 297.365 330.489 297.185 330.211 297.065C329.932 296.944 329.631 296.886 329.327 296.893ZM322.712 314.31L292.17 315.202H292.114C291.581 315.208 291.067 315.003 290.686 314.631C290.304 314.259 290.086 313.75 290.08 313.217C290.074 312.684 290.279 312.17 290.651 311.789C291.024 311.408 291.532 311.19 292.065 311.183L322.608 310.291C323.862 310.468 324.641 311.143 324.665 312.244C324.673 312.508 324.628 312.771 324.534 313.018C324.44 313.265 324.298 313.49 324.117 313.682C323.935 313.874 323.718 314.028 323.477 314.136C323.236 314.244 322.976 314.303 322.712 314.31Z" fill="#0D4536"/>
</svg>
