<svg width="399" height="381" viewBox="0 0 399 381" fill="none" xmlns="http://www.w3.org/2000/svg">
<path d="M291.83 84.1442C291.468 85.5113 291.633 86.9649 292.295 88.2151C294.563 88.9544 296.956 89.2362 299.334 89.0442C300.48 88.9648 301.602 88.6842 302.65 88.2151C302.886 87.8595 303.044 87.4584 303.115 87.0378C304.356 82.156 304.302 77.0346 302.957 72.1802L291.35 73.5814C292.515 76.9842 292.682 80.6496 291.83 84.1442Z" fill="#0D4536"/>
<path d="M196.641 75.8034C196.281 77.1688 196.449 78.6197 197.113 79.8661C199.381 80.6056 201.774 80.8874 204.152 80.6952C205.298 80.6168 206.421 80.3361 207.469 79.8661C207.709 79.515 207.87 79.1162 207.941 78.697C209.183 73.8123 209.129 68.6883 207.784 63.8311L196.126 65.2406C197.311 68.6386 197.49 72.3064 196.641 75.8034Z" fill="#0D4536"/>
<path d="M98.1842 49.3548C99.6365 50.8682 100.733 52.6867 101.393 54.6776C102.585 58.0732 102.775 61.74 101.94 65.2405C101.577 66.6048 101.743 68.056 102.404 69.3031C102.767 70.0355 103.284 70.6807 103.919 71.1945C104.554 71.7083 105.294 72.0785 106.086 72.2796C106.565 72.4335 107.066 72.5118 107.57 72.5118C108.643 72.507 109.694 72.2046 110.606 71.6381C111.518 71.0716 112.255 70.2634 112.735 69.3031C112.97 68.9505 113.129 68.5521 113.199 68.1341C114.441 63.2495 114.387 58.1254 113.042 53.2682C111.946 48.8264 109.741 44.7354 106.633 41.3787C106.109 40.824 105.481 40.3778 104.785 40.0657C104.089 39.7536 103.338 39.5817 102.576 39.5598C101.813 39.5378 101.054 39.6663 100.341 39.9379C99.6277 40.2094 98.9753 40.6187 98.4205 41.1424C97.8658 41.6662 97.4196 42.294 97.1075 42.9902C96.7954 43.6863 96.6235 44.437 96.6015 45.1996C96.5796 45.9622 96.708 46.7216 96.9796 47.4346C97.2512 48.1475 97.6605 48.8 98.1842 49.3548Z" fill="#0D4536"/>
<path d="M101.94 65.2736C101.577 66.6379 101.743 68.0891 102.404 69.3362C104.673 70.0751 107.065 70.3569 109.443 70.1653C110.59 70.0899 111.713 69.8091 112.76 69.3362C112.995 68.9836 113.154 68.5852 113.224 68.1672C114.466 63.2825 114.411 58.1585 113.067 53.3013L101.418 54.7107C102.602 58.1087 102.783 61.7755 101.94 65.2736Z" fill="#0D4536"/>
<path d="M373.017 97.3106C369.994 112.704 367.097 128.024 364.328 143.268C349.785 223.136 338.907 300.5 332.465 374.863C332.407 375.626 332.188 376.368 331.822 377.04C331.457 377.713 330.954 378.3 330.345 378.764C329.737 379.228 329.038 379.559 328.293 379.734C327.548 379.909 326.774 379.924 326.023 379.78L5.50612 320.084C4.17692 319.833 2.98561 319.105 2.15754 318.035C1.32946 316.966 0.922037 315.63 1.01235 314.28C6.33561 245.964 15.3975 177.992 28.1574 110.668C30.9211 96.0255 33.8285 81.3475 36.8796 66.6336C37.1616 65.3129 37.9164 64.1408 39.002 63.3377C40.0876 62.5345 41.4292 62.1557 42.7746 62.2724L368.109 90.7523C368.877 90.825 369.621 91.0575 370.294 91.435C370.967 91.8125 371.553 92.3267 372.015 92.9443C372.478 93.562 372.806 94.2696 372.978 95.0215C373.151 95.7735 373.164 96.5533 373.017 97.3106Z" stroke="#0D4536" stroke-width="2" stroke-linecap="round" stroke-linejoin="round"/>
<path d="M65.1027 149.122C62.6512 160.8 60.9399 172.622 59.9788 184.516C59.9523 184.881 60.0611 185.242 60.2845 185.531C60.5078 185.82 60.83 186.017 61.1893 186.083L107.205 194.656C107.407 194.696 107.615 194.692 107.816 194.645C108.017 194.598 108.205 194.51 108.369 194.386C108.534 194.261 108.67 194.104 108.769 193.923C108.869 193.743 108.929 193.543 108.946 193.338C110.198 180.067 112.135 166.869 114.75 153.798C114.79 153.594 114.787 153.384 114.741 153.182C114.695 152.979 114.607 152.788 114.483 152.622C114.359 152.455 114.201 152.317 114.02 152.215C113.839 152.114 113.638 152.051 113.431 152.032L66.7111 147.944C66.3451 147.908 65.9784 148.008 65.6815 148.225C65.3846 148.442 65.1785 148.762 65.1027 149.122Z" stroke="#0D4536" stroke-width="2" stroke-linecap="round" stroke-linejoin="round"/>
<path d="M83.268 242.703C80.818 254.382 79.1038 266.204 78.1358 278.098C78.1091 278.463 78.2177 278.825 78.4409 279.116C78.6641 279.406 78.9864 279.605 79.3463 279.673L125.37 288.238C125.572 288.276 125.78 288.271 125.98 288.223C126.18 288.176 126.368 288.088 126.532 287.964C126.696 287.839 126.832 287.682 126.932 287.503C127.032 287.323 127.093 287.124 127.111 286.919C128.361 273.648 130.298 260.45 132.915 247.379C132.955 247.176 132.953 246.966 132.907 246.764C132.861 246.562 132.773 246.372 132.648 246.206C132.524 246.04 132.366 245.903 132.185 245.802C132.004 245.701 131.803 245.64 131.597 245.621L84.8765 241.526C84.5101 241.487 84.1425 241.587 83.8452 241.804C83.5479 242.022 83.3422 242.342 83.268 242.703Z" stroke="#0D4536" stroke-width="2" stroke-linecap="round" stroke-linejoin="round"/>
<path d="M157.407 161.45C154.958 173.13 153.244 184.951 152.275 196.845C152.25 197.21 152.359 197.572 152.582 197.862C152.805 198.152 153.126 198.35 153.485 198.42L199.509 206.993C199.711 207.031 199.919 207.026 200.119 206.979C200.319 206.932 200.508 206.843 200.671 206.719C200.835 206.595 200.972 206.438 201.071 206.258C201.171 206.078 201.232 205.88 201.25 205.675C202.503 192.401 204.44 179.201 207.054 166.127C207.096 165.923 207.094 165.713 207.049 165.511C207.003 165.308 206.915 165.117 206.791 164.951C206.666 164.785 206.508 164.647 206.326 164.547C206.144 164.446 205.943 164.386 205.736 164.369L159.016 160.273C158.65 160.238 158.284 160.339 157.988 160.556C157.691 160.773 157.485 161.091 157.407 161.45Z" stroke="#0D4536" stroke-width="2" stroke-linecap="round" stroke-linejoin="round"/>
<path d="M252.705 172.494C250.251 184.172 248.537 195.994 247.573 207.889C247.546 208.253 247.655 208.614 247.878 208.904C248.102 209.193 248.424 209.389 248.783 209.456L294.807 218.029C295.009 218.067 295.217 218.062 295.417 218.014C295.617 217.967 295.805 217.879 295.969 217.755C296.133 217.63 296.269 217.474 296.369 217.294C296.469 217.114 296.53 216.915 296.548 216.71C297.796 203.439 299.733 190.241 302.352 177.17C302.392 176.966 302.389 176.756 302.344 176.554C302.298 176.351 302.21 176.161 302.085 175.994C301.961 175.828 301.803 175.689 301.622 175.587C301.441 175.486 301.241 175.423 301.034 175.404L254.313 171.317C253.947 171.278 253.579 171.378 253.282 171.595C252.985 171.813 252.779 172.133 252.705 172.494Z" stroke="#0D4536" stroke-width="2" stroke-linecap="round" stroke-linejoin="round"/>
<path d="M92.8941 99.5407C93.7638 99.5392 94.6328 99.4921 95.4975 99.3998C97.028 99.2294 98.428 98.4579 99.3897 97.2552C100.351 96.0525 100.796 94.517 100.626 92.9865C100.455 91.4561 99.6837 90.0561 98.481 89.0944C97.2783 88.1327 95.7429 87.6881 94.2124 87.8585C91.4192 87.9894 88.6433 87.3551 86.1842 86.024C83.7251 84.6929 81.6762 82.7155 80.2585 80.3053C78.3797 77.2079 77.1378 73.7668 76.6053 70.1835C76.0729 66.6001 76.2606 62.9465 77.1576 59.4367C77.7344 56.7746 78.8779 54.2681 80.5104 52.0877C82.1428 49.9073 84.2259 48.1041 86.6178 46.801C88.5792 45.971 90.7503 45.7717 92.8301 46.2308C94.9099 46.6898 96.7954 47.7845 98.2253 49.363C98.7471 49.9309 99.3768 50.3891 100.078 50.7109C100.779 51.0326 101.537 51.2114 102.307 51.2369C103.078 51.2624 103.846 51.134 104.567 50.8592C105.288 50.5844 105.946 50.1687 106.504 49.6365C107.062 49.1042 107.509 48.4661 107.818 47.7593C108.126 47.0526 108.291 46.2914 108.302 45.5203C108.313 44.7491 108.171 43.9835 107.883 43.2681C107.594 42.5527 107.167 41.902 106.624 41.3538C103.569 38.0492 99.563 35.7743 95.1597 34.8432C90.7564 33.912 86.1727 34.3705 82.0411 36.1553C78.0048 38.1264 74.4636 40.9799 71.6793 44.5047C68.8951 48.0295 66.9392 52.1353 65.9563 56.5182C64.6516 61.5933 64.3882 66.8801 65.1819 72.0598C65.9756 77.2395 67.81 82.2047 70.5745 86.6563C72.932 90.4887 76.207 93.6735 80.1038 95.923C84.0006 98.1725 88.3964 99.4158 92.8941 99.5407Z" fill="#0D4536"/>
<path d="M192.885 59.9176C194.339 61.4297 195.435 63.2486 196.093 65.2405C197.289 68.6353 197.479 72.3031 196.641 75.8033C196.281 77.1687 196.45 78.6197 197.113 79.866C197.476 80.5981 197.993 81.243 198.628 81.7567C199.264 82.2705 200.003 82.6408 200.794 82.8425C201.274 82.997 201.775 83.0753 202.279 83.0746C203.351 83.0683 204.4 82.7651 205.31 82.1988C206.221 81.6324 206.956 80.825 207.436 79.866C207.676 79.5149 207.837 79.1161 207.908 78.6969C209.15 73.8123 209.095 68.6882 207.751 63.831C206.657 59.3885 204.452 55.2972 201.342 51.9416C200.284 50.8201 198.824 50.1648 197.283 50.1197C195.742 50.0746 194.247 50.6435 193.125 51.7011C192.004 52.7588 191.348 54.2187 191.303 55.7596C191.258 57.3005 191.827 58.7961 192.885 59.9176Z" fill="#0D4536"/>
<path d="M187.636 110.104C188.506 110.102 189.375 110.055 190.24 109.963C191.77 109.792 193.17 109.021 194.132 107.818C195.094 106.615 195.538 105.08 195.368 103.549C195.197 102.019 194.426 100.619 193.223 99.6573C192.021 98.6956 190.485 98.251 188.955 98.4214C186.162 98.5505 183.387 97.9154 180.928 96.5845C178.469 95.2535 176.42 93.2772 175.001 90.8683C173.122 87.7708 171.88 84.3297 171.348 80.7464C170.815 77.163 171.003 73.5095 171.9 69.9996C172.474 67.3363 173.616 64.8285 175.249 62.6476C176.881 60.4668 178.966 58.6644 181.36 57.364C183.322 56.5352 185.492 56.3366 187.572 56.7955C189.651 57.2545 191.537 58.3484 192.968 59.9259C194.037 61.0067 195.488 61.6245 197.009 61.6465C198.529 61.6685 199.997 61.0929 201.098 60.0435C202.198 58.9941 202.843 57.5548 202.893 56.035C202.943 54.5152 202.395 53.0365 201.366 51.9167C198.311 48.6128 194.305 46.3378 189.903 45.4053C185.5 44.4728 180.916 44.9286 176.783 46.7099C172.749 48.6835 169.209 51.5377 166.425 55.0621C163.641 58.5865 161.684 62.691 160.699 67.0728C159.394 72.1493 159.13 77.4374 159.924 82.6185C160.717 87.7995 162.552 92.7663 165.317 97.2193C167.675 101.051 170.951 104.235 174.847 106.484C178.744 108.733 183.139 109.977 187.636 110.104Z" fill="#0D4536"/>
<path d="M288.075 68.2668C289.524 69.7794 290.62 71.5945 291.284 73.5814C292.471 76.9778 292.661 80.6433 291.831 84.1443C291.468 85.5113 291.634 86.9649 292.295 88.2152C292.659 88.9466 293.176 89.591 293.811 90.1046C294.447 90.6182 295.185 90.989 295.976 91.1917C296.457 91.3421 296.957 91.4204 297.461 91.4238C298.534 91.419 299.585 91.1166 300.497 90.5501C301.409 89.9837 302.146 89.1754 302.626 88.2152C302.861 87.8595 303.019 87.4584 303.09 87.0378C304.332 82.156 304.277 77.0346 302.933 72.1802C301.839 67.7352 299.634 63.641 296.524 60.2824C295.999 59.7277 295.371 59.2816 294.674 58.9698C293.978 58.6579 293.226 58.4863 292.463 58.4647C291.7 58.4432 290.941 58.5721 290.228 58.8441C289.514 59.1162 288.862 59.526 288.307 60.0503C287.752 60.5746 287.306 61.2029 286.994 61.8996C286.683 62.5962 286.511 63.3475 286.489 64.1105C286.468 64.8735 286.597 65.6332 286.869 66.3464C287.141 67.0595 287.551 67.7121 288.075 68.2668Z" fill="#0D4536"/>
<path d="M282.785 118.453C283.655 118.453 284.524 118.403 285.388 118.304C286.159 118.236 286.909 118.015 287.593 117.654C288.277 117.292 288.882 116.798 289.372 116.199C289.862 115.601 290.228 114.91 290.447 114.168C290.667 113.426 290.736 112.648 290.65 111.879C290.565 111.11 290.326 110.366 289.948 109.691C289.571 109.015 289.062 108.422 288.452 107.946C287.843 107.47 287.143 107.121 286.397 106.919C285.65 106.717 284.87 106.667 284.103 106.771C281.31 106.9 278.535 106.265 276.076 104.934C273.618 103.603 271.568 101.626 270.149 99.2174C268.271 96.12 267.029 92.6789 266.496 89.0955C265.964 85.5122 266.152 81.8586 267.048 78.3487C267.624 75.6861 268.767 73.1789 270.399 70.9983C272.032 68.8177 274.116 67.0149 276.509 65.7131C278.47 64.8819 280.641 64.6819 282.721 65.141C284.802 65.6001 286.687 66.6955 288.116 68.2751C289.186 69.3559 290.637 69.9737 292.157 69.9957C293.678 70.0177 295.146 69.4421 296.247 68.3927C297.347 67.3433 297.992 65.9039 298.042 64.3841C298.092 62.8644 297.544 61.3856 296.515 60.2658C293.459 56.9619 289.454 54.6869 285.051 53.7544C280.648 52.8219 276.065 53.2777 271.932 55.0591C267.898 57.0326 264.358 59.8869 261.574 63.4113C258.79 66.9356 256.833 71.0402 255.847 75.422C254.542 80.4984 254.279 85.7865 255.072 90.9676C255.866 96.1486 257.701 101.115 260.465 105.568C262.824 109.4 266.099 112.584 269.996 114.833C273.892 117.082 278.288 118.326 282.785 118.453Z" fill="#0D4536"/>
<path d="M276.21 361.796L321.09 371.024C321.348 351.134 324.114 331.355 329.323 312.157C322.383 318.699 315.518 325.108 308.595 331.65L317.856 331.948L298.43 347.975C300 346.529 301.989 345.62 304.11 345.38C306.232 345.38 308.438 347.436 307.716 349.434C307.142 350.55 306.164 351.404 304.98 351.822C295.929 356.534 286.236 359.894 276.21 361.796Z" fill="#0D4536"/>
<path d="M234.067 294.597C239.192 292.35 243.454 288.508 246.221 283.644C247.563 281.206 248.267 278.468 248.267 275.685C248.267 272.902 247.563 270.164 246.221 267.725C244.788 265.339 242.579 263.517 239.965 262.562C237.35 261.607 234.487 261.577 231.853 262.477C233.327 262.769 234.724 263.366 235.952 264.232C237.18 265.098 238.213 266.211 238.983 267.502C239.794 268.859 240.325 270.366 240.543 271.933C240.761 273.5 240.662 275.094 240.252 276.622L244.033 273.695C244.093 277.711 243.225 281.687 241.496 285.312C239.768 288.938 237.225 292.115 234.067 294.597Z" fill="#0D4536"/>
<path d="M192.097 279.607C192.871 279.607 193.499 278.979 193.499 278.205C193.499 277.432 192.871 276.804 192.097 276.804C191.324 276.804 190.696 277.432 190.696 278.205C190.696 278.979 191.324 279.607 192.097 279.607Z" fill="#0D4536"/>
<path d="M198.631 284.49C199.446 284.49 200.106 283.829 200.106 283.014C200.106 282.199 199.446 281.539 198.631 281.539C197.816 281.539 197.155 282.199 197.155 283.014C197.155 283.829 197.816 284.49 198.631 284.49Z" fill="#0D4536"/>
<path d="M284.501 241.434L170.996 231.485C170.117 231.408 169.24 231.655 168.531 232.18C167.822 232.706 167.33 233.474 167.149 234.337C161.199 262.709 157.045 291.429 154.712 320.324C154.644 321.212 154.908 322.094 155.451 322.8C155.994 323.505 156.78 323.985 157.656 324.146L269.461 344.965C269.952 345.059 270.457 345.048 270.944 344.934C271.43 344.821 271.888 344.606 272.286 344.304C272.685 344.003 273.015 343.621 273.257 343.183C273.499 342.746 273.646 342.263 273.69 341.765C276.707 309.521 281.395 277.455 287.735 245.696C287.831 245.2 287.821 244.69 287.707 244.199C287.592 243.707 287.375 243.245 287.07 242.843C286.765 242.441 286.379 242.107 285.936 241.865C285.493 241.622 285.004 241.475 284.501 241.434ZM181.468 236.899C181.665 236.899 181.857 236.958 182.021 237.067C182.184 237.176 182.312 237.332 182.387 237.513C182.462 237.695 182.482 237.895 182.444 238.088C182.405 238.281 182.31 238.459 182.171 238.598C182.032 238.737 181.855 238.832 181.662 238.87C181.469 238.908 181.269 238.889 181.087 238.813C180.905 238.738 180.75 238.611 180.641 238.447C180.531 238.283 180.473 238.091 180.473 237.894C180.473 237.63 180.578 237.377 180.764 237.191C180.951 237.004 181.204 236.899 181.468 236.899ZM174.246 237.803C173.979 237.803 173.718 237.724 173.495 237.575C173.273 237.427 173.1 237.216 172.998 236.969C172.895 236.722 172.869 236.45 172.921 236.188C172.973 235.926 173.102 235.685 173.291 235.496C173.48 235.307 173.72 235.178 173.983 235.126C174.245 235.074 174.516 235.101 174.763 235.203C175.01 235.305 175.221 235.478 175.37 235.701C175.518 235.923 175.598 236.184 175.598 236.452C175.598 236.81 175.455 237.154 175.202 237.407C174.948 237.661 174.605 237.803 174.246 237.803ZM216.896 318.658C216.78 318.814 216.628 318.941 216.453 319.025C216.277 319.11 216.084 319.15 215.889 319.143C215.695 319.135 215.505 319.08 215.336 318.983C215.168 318.885 215.026 318.748 214.922 318.583C211.414 313.624 207.147 309.248 202.278 305.616C196.542 301.49 191.261 296.765 186.525 291.521C181.638 285.958 179.11 278.711 179.478 271.316C179.781 268.247 180.756 265.282 182.332 262.632C183.908 259.981 186.047 257.709 188.598 255.977C191.049 254.385 193.834 253.377 196.736 253.032C199.639 252.687 202.582 253.014 205.338 253.987C208.141 255.068 210.701 256.695 212.869 258.775C215.037 260.854 216.769 263.345 217.965 266.1C219.369 263.447 221.286 261.099 223.607 259.194C225.927 257.29 228.603 255.866 231.48 255.007C234.305 254.25 237.266 254.156 240.134 254.731C243.001 255.306 245.697 256.536 248.012 258.323C250.419 260.249 252.373 262.681 253.734 265.446C255.095 268.212 255.831 271.243 255.889 274.325C255.679 281.725 252.595 288.753 247.291 293.917C242.176 298.791 236.546 303.095 230.501 306.752C225.372 309.985 220.781 314.003 216.896 318.658ZM267.695 338.2L238.577 334.054C246.2 333.411 253.747 332.059 261.12 330.016C261.547 329.96 261.956 329.807 262.314 329.569C262.488 329.441 262.609 329.255 262.658 329.046C262.707 328.836 262.679 328.616 262.58 328.425C262.438 328.276 262.265 328.161 262.072 328.091C261.879 328.02 261.673 327.995 261.469 328.018L256.585 327.836C260.872 326.364 264.806 324.015 268.135 320.938L261.643 321.385C264.959 318.392 268.533 315.117 271.857 312.124L267.695 338.2Z" fill="#0D4536"/>
<path d="M61.1807 138.55C60.103 139.168 58.8268 139.34 57.6238 139.031C57.0708 138.868 56.561 138.583 56.131 138.199C55.7009 137.815 55.3613 137.34 55.1365 136.809C54.953 136.404 54.8815 135.958 54.9292 135.516C54.9609 135.279 55.048 135.052 55.1834 134.855C55.3187 134.658 55.4987 134.495 55.7085 134.38C56.4382 134.023 57.2175 134.604 57.9471 134.289C58.5275 134.032 58.8343 133.335 59.3235 132.904C59.6158 132.636 59.9872 132.47 60.3819 132.431C60.7766 132.393 61.1733 132.483 61.5123 132.689C61.8211 132.927 62.0607 133.242 62.2065 133.604C62.3522 133.965 62.3988 134.359 62.3414 134.745C62.2301 135.595 61.876 136.395 61.3216 137.05" fill="#0D4536"/>
<path d="M38.7868 148.5C38.0766 148.909 37.2336 149.022 36.4404 148.815C36.0714 148.711 35.7305 148.525 35.4434 148.271C35.1563 148.017 34.9302 147.701 34.7822 147.347C34.6634 147.088 34.6175 146.801 34.6496 146.518C34.6688 146.361 34.7255 146.21 34.815 146.078C34.9044 145.947 35.0239 145.839 35.1636 145.764C35.6445 145.532 36.1503 145.913 36.6394 145.706C37.1286 145.498 37.2281 145.075 37.5515 144.794C37.7425 144.614 37.9877 144.503 38.2487 144.477C38.5098 144.452 38.7719 144.513 38.9941 144.653C39.195 144.811 39.3506 145.019 39.4452 145.256C39.5398 145.493 39.5701 145.751 39.533 146.004C39.4627 146.569 39.2261 147.1 38.8532 147.53" fill="#0D4536"/>
<path d="M44.8723 130.044C42.9162 131.167 40.5987 131.482 38.4135 130.923C37.3992 130.634 36.4618 130.123 35.6689 129.428C34.876 128.732 34.2474 127.869 33.8286 126.901C33.4821 126.171 33.3471 125.358 33.4389 124.555C33.494 124.125 33.6495 123.714 33.893 123.355C34.1364 122.997 34.4608 122.7 34.8401 122.491C36.1749 121.86 37.5927 122.913 38.9276 122.333C39.9805 121.877 40.5361 120.625 41.4149 119.846C41.9481 119.357 42.6263 119.056 43.3462 118.989C44.0662 118.922 44.7884 119.091 45.4029 119.473C45.9542 119.907 46.3815 120.479 46.642 121.131C46.9024 121.783 46.987 122.492 46.887 123.187C46.6914 124.719 46.0515 126.16 45.0464 127.332" fill="#0D4536"/>
<path d="M368.109 90.7358L272.562 82.37C272.075 83.4842 271.676 84.6347 271.368 85.8108C270.723 88.2223 270.586 90.7414 270.964 93.2089C271.342 95.6763 272.228 98.0385 273.565 100.146C273.764 100.42 274.013 100.668 274.22 100.975C275.236 99.2944 276.652 97.8909 278.342 96.8899C280.031 95.8888 281.942 95.3213 283.904 95.2379C287.395 94.3319 291.082 94.5399 294.449 95.8327C297.816 97.1256 300.694 99.4386 302.681 102.448C304.669 105.458 305.665 109.013 305.532 112.617C305.399 116.222 304.142 119.694 301.938 122.548C299.734 125.403 296.693 127.497 293.24 128.538C289.787 129.579 286.095 129.514 282.68 128.353C279.266 127.191 276.3 124.992 274.197 122.062C272.094 119.131 270.96 115.617 270.954 112.011C270.966 111.087 271.038 110.164 271.169 109.25C268.382 107.213 265.991 104.684 264.114 101.788C262.383 99.3553 260.988 96.7003 259.968 93.8947L259.62 95.1134C258.123 93.0228 257.058 90.6553 256.486 88.1489C256.234 85.7478 256.531 83.3208 257.356 81.0518L177.405 74.0541C176.924 75.1646 176.525 76.3091 176.211 77.4783C175.568 79.8904 175.431 82.4098 175.811 84.8772C176.19 87.3447 177.078 89.7066 178.417 91.8136C178.616 92.0872 178.865 92.336 179.072 92.6427C180.088 90.9619 181.503 89.5583 183.193 88.5573C184.883 87.5562 186.794 86.9887 188.756 86.9053C192.246 85.9994 195.933 86.2073 199.299 87.4998C202.666 88.7924 205.544 91.1049 207.532 94.114C209.519 97.123 210.516 100.678 210.384 104.282C210.251 107.886 208.995 111.358 206.792 114.213C204.589 117.067 201.549 119.162 198.096 120.204C194.644 121.246 190.952 121.182 187.537 120.022C184.123 118.862 181.156 116.664 179.053 113.735C176.949 110.806 175.814 107.293 175.805 103.686C175.817 102.762 175.889 101.84 176.021 100.925C173.235 98.8843 170.842 96.3563 168.957 93.4636C167.222 91.0332 165.828 88.3777 164.811 85.5704L164.421 86.7477C162.931 84.6548 161.869 82.288 161.296 79.7832C161.034 77.3907 161.318 74.97 162.125 72.7026L81.8919 65.6801C81.7758 66.0946 81.5603 66.5092 81.4691 66.8989C80.8261 69.3106 80.6894 71.8293 81.0675 74.2964C81.4457 76.7635 82.3305 79.1257 83.6662 81.2341C83.8652 81.516 84.1139 81.7565 84.3212 82.0633C85.3374 80.3835 86.7534 78.9812 88.4431 77.9816C90.1328 76.9819 92.0436 76.416 94.0052 76.3341C97.7138 77.2939 100.999 79.4583 103.344 82.4875C105.689 85.5166 106.961 89.2389 106.961 93.0697C106.961 96.9005 105.689 100.623 103.344 103.652C100.999 106.681 97.7138 108.845 94.0052 109.805C90.1012 109.248 86.567 107.194 84.1501 104.077C81.7332 100.961 80.6231 97.027 81.0545 93.107C81.0671 92.1831 81.1391 91.2608 81.2701 90.3461C78.4875 88.3045 76.0971 85.7765 74.2143 82.8841C72.4835 80.4517 71.0891 77.7966 70.0688 74.991L69.7206 76.2098C68.2258 74.1213 67.1605 71.7568 66.5866 69.2535C66.3732 67.6279 66.4688 65.9767 66.8685 64.3867L42.8243 62.2807C41.4789 62.164 40.1373 62.5428 39.0517 63.346C37.9661 64.1491 37.2113 65.3212 36.9293 66.6419C33.8367 81.3586 30.7939 96.838 28.0579 111.488L363.748 146.775C366.517 131.544 370.041 112.732 373.067 97.3355C373.22 96.5713 373.21 95.7833 373.038 95.0232C372.866 94.2631 372.535 93.5479 372.066 92.9247C371.598 92.3016 371.004 91.7845 370.322 91.4072C369.639 91.03 368.885 90.8011 368.109 90.7358ZM43.4959 84.7082C42.9735 84.7082 42.5507 83.8293 42.5507 82.7515C42.5507 81.6736 42.9735 80.7948 43.4959 80.7948C44.0182 80.7948 44.4493 81.6736 44.4493 82.7515C44.4493 83.8293 44.0265 84.7082 43.4959 84.7082ZM45.2121 72.2715C44.2669 72.2715 43.4959 71.2102 43.4959 69.9085C43.4959 68.6068 44.2669 67.5373 45.2121 67.5373C46.1573 67.5373 46.9201 68.5985 46.9201 69.9085C46.9201 71.2185 46.1573 72.313 45.2121 72.313V72.2715ZM54.9707 81.3336C54.2162 81.3336 53.6027 80.1978 53.6027 78.7883C53.6027 77.3788 54.2162 76.2512 54.9707 76.2512C55.7252 76.2512 56.3471 77.3871 56.3471 78.7883C56.3471 80.1895 55.7335 81.3751 54.979 81.3751L54.9707 81.3336ZM361.915 140.855C361.873 141.231 361.757 141.594 361.574 141.925C361.391 142.255 361.145 142.546 360.849 142.781C360.553 143.016 360.214 143.19 359.85 143.294C359.487 143.397 359.107 143.428 358.731 143.384L318.876 138.774C331.603 138.486 343.962 134.448 354.404 127.167L348.359 125.956L361.899 116.836L357.67 116.596C361.186 112.749 364.684 109.134 368.2 105.27C365.413 117.013 363.314 128.909 361.915 140.897V140.855Z" fill="#0D4536"/>
<path d="M351.062 0.122314C354.983 11.1678 356.091 23.0156 354.288 34.5967C352.806 46.1207 349.004 57.225 343.111 67.2387C342.269 55.8863 342.79 44.4739 344.662 33.2452C346.029 22.07 348.168 11.0026 351.062 0.122314Z" fill="#0D4536"/>
<path d="M312.119 26.0569C316.693 31.8967 320.836 38.0623 324.514 44.5046C326.491 47.513 328.238 50.6671 329.737 53.9398C331.191 57.6505 331.587 61.6915 330.882 65.6137C326.874 64.4101 323.463 61.7475 321.322 58.1517C320.306 56.5205 319.511 54.7611 318.959 52.9201C318.632 51.1155 318.158 49.3408 317.541 47.6137C314.984 40.6377 313.167 33.4125 312.119 26.0569Z" fill="#0D4536"/>
<path d="M374.949 38.991C373.635 45.5451 371.78 51.979 369.402 58.2263C368.484 61.3215 367.294 64.3291 365.845 67.2138C363.978 70.3534 361.207 72.856 357.894 74.3939C357.065 72.6829 356.582 70.8249 356.474 68.9267C356.366 67.0285 356.634 65.1277 357.264 63.3336C357.807 61.6857 358.595 60.129 359.602 58.7155C360.709 57.4936 361.705 56.1757 362.578 54.7772C366.088 49.062 370.238 43.7657 374.949 38.991Z" fill="#0D4536"/>
<path d="M374.742 94.4087C374.161 94.8979 373.581 95.4782 373.083 95.9757C373.136 96.4192 373.108 96.8687 373 97.3023C370.024 112.682 367.13 128.062 364.32 143.276C349.769 223.161 338.932 300.476 332.482 374.896C332.405 375.525 332.237 376.139 331.984 376.72C332.482 377.624 333.062 378.536 333.56 379.365L351.916 359.019L366.633 342.652C366.877 342.459 367.16 342.32 367.462 342.246C367.147 342.165 366.817 342.161 366.5 342.233C366.183 342.305 365.887 342.452 365.638 342.661L350.921 359.035L363.573 199.109L381.151 346.226L382.121 346.532H382.204L396.68 351.167C396.962 351.243 397.259 351.25 397.545 351.188C397.831 351.127 398.098 350.998 398.324 350.812C398.55 350.627 398.729 350.39 398.845 350.121C398.962 349.853 399.012 349.56 398.993 349.269L374.742 94.4087ZM373.357 153.217C372.569 153.217 371.923 151.509 371.923 149.403C371.923 147.298 372.569 145.598 373.357 145.598C374.145 145.598 374.8 147.298 374.8 149.403C374.8 151.509 374.186 153.217 373.357 153.217ZM377.677 162.876C377.121 162.876 376.665 162.114 376.665 161.177C376.665 160.24 377.121 159.519 377.677 159.519C378.232 159.519 378.696 160.273 378.696 161.177C378.696 162.081 378.24 162.876 377.677 162.876Z" fill="#0D4536"/>
</svg>
