<svg width="119" height="103" viewBox="0 0 119 103" fill="none" xmlns="http://www.w3.org/2000/svg">
<path d="M59.7254 94.699C59.6729 94.5922 59.5965 94.4988 59.5022 94.4262L59.5135 94.434L59.527 94.4367L59.5405 94.434L59.5518 94.4262C59.6184 94.5113 59.6765 94.6026 59.7254 94.699Z" fill="#0D4536" stroke="#0D4536" stroke-width="0.5" stroke-linecap="round" stroke-linejoin="round"/>
<path d="M60.1715 95.2196C42.7416 88.1039 24.5679 90.1369 5.6256 96.013C5.33402 96.1012 5.02595 96.1203 4.72573 96.0687C4.4255 96.0172 4.14141 95.8963 3.89599 95.7159C3.65058 95.5354 3.45053 95.3003 3.31179 95.0291C3.17305 94.7579 3.09942 94.4581 3.09668 94.1535V58.4508C3.09765 58.195 3.14915 57.9419 3.24823 57.7061C3.34732 57.4703 3.49198 57.2564 3.674 57.0767C3.85601 56.897 4.07176 56.755 4.30882 56.6589C4.54587 56.5629 4.79962 56.5146 5.05539 56.5169H9.29508C9.39425 56.5664 9.46859 56.5912 9.56777 56.6408L9.66696 61.0045L10.0141 78.5088C10.021 78.7924 10.0886 79.0713 10.2124 79.3266C10.3363 79.5819 10.5134 79.8077 10.732 79.9886C10.9506 80.1696 11.2054 80.3016 11.4793 80.3756C11.7533 80.4497 12.0399 80.4641 12.3199 80.4179C20.5994 79.0058 29.0918 79.5 37.1515 81.8629C45.2113 84.2259 52.6263 88.3953 58.8327 94.0544C59.0263 94.2253 59.2546 94.3522 59.502 94.4262C59.5963 94.4988 59.6727 94.5922 59.7252 94.699C59.8988 94.8725 60.0227 95.0461 60.1715 95.2196Z" stroke="#0D4536" stroke-width="0.5" stroke-linecap="round" stroke-linejoin="round"/>
<path d="M112.312 91.4264C90.8907 86.8148 75.1219 87.1371 60.1713 95.2198C60.1074 94.9917 60.0577 94.7599 60.0226 94.5256C60.1635 94.5297 60.3045 94.5214 60.444 94.5008H60.4688C60.838 94.4278 61.1807 94.2565 61.4607 94.0049C73.188 83.2941 88.2377 77.2197 107.304 76.3271C107.413 76.3228 107.521 76.3061 107.626 76.2775L107.651 76.3023L113.478 90.038C113.552 90.2106 113.577 90.4006 113.55 90.5867C113.523 90.7728 113.444 90.9476 113.323 91.0917C113.202 91.2357 113.044 91.3433 112.865 91.4024C112.687 91.4615 112.495 91.4698 112.312 91.4264Z" stroke="#0D4536" stroke-width="0.5" stroke-linecap="round" stroke-linejoin="round"/>
<path d="M59.5517 94.4265L59.5403 94.4342L59.5269 94.4369L59.5134 94.4342L59.502 94.4265C59.2546 94.3524 59.0263 94.2255 58.8327 94.0546C52.6263 88.3956 45.2114 84.2261 37.1516 81.8631C29.0918 79.5002 20.5994 79.006 12.3199 80.4181C12.04 80.4643 11.7533 80.4499 11.4794 80.3758C11.2055 80.3018 10.9506 80.1698 10.7321 79.9889C10.5135 79.8079 10.3363 79.5822 10.2125 79.3269C10.0886 79.0716 10.021 78.7927 10.0142 78.509L9.667 61.0047L9.56781 56.6411L9.34468 44.8889C9.33806 44.6243 9.38446 44.361 9.48117 44.1146C9.57789 43.8682 9.723 43.6437 9.90784 43.4542C10.0927 43.2647 10.3136 43.1142 10.5575 43.0114C10.8014 42.9086 11.0635 42.8557 11.3282 42.8558C17.2439 42.8527 23.1437 43.4676 28.9316 44.6905L29.973 63.9056L30.1713 67.5502L30.4936 73.4511C30.5127 73.7939 30.6447 74.1209 30.8689 74.3809C31.0931 74.641 31.397 74.8197 31.7333 74.8891C36.7627 75.7898 41.6063 77.5244 46.064 80.0214C51.1467 83.0462 54.8905 87.4347 59.5517 94.4265Z" stroke="#0D4536" stroke-width="0.5" stroke-linecap="round" stroke-linejoin="round"/>
<path d="M109.016 75.1868C108.889 75.4669 108.697 75.7124 108.455 75.9024C108.213 76.0923 107.929 76.221 107.627 76.2777C107.522 76.3062 107.414 76.3229 107.305 76.3273C88.2385 77.2198 73.1888 83.2942 61.4615 94.0051C61.1816 94.2566 60.8389 94.428 60.4697 94.501C62.0995 90.434 64.5372 86.7398 67.6353 83.6417C70.7335 80.5436 74.4277 78.1059 78.4946 76.476C78.8215 76.3264 79.0892 76.072 79.2554 75.7532C79.4215 75.4344 79.4766 75.0693 79.412 74.7157L78.569 70.8479L78.3459 69.8065L73.0897 45.3849C79.9075 42.9124 87.0481 41.4425 94.2881 41.0212C94.7075 40.991 95.1256 41.0947 95.4821 41.3175C95.8386 41.5404 96.115 41.8707 96.2716 42.2609L109.065 73.6C109.168 73.8532 109.217 74.1253 109.208 74.3986C109.2 74.6719 109.134 74.9404 109.016 75.1868Z" stroke="#0D4536" stroke-width="0.5" stroke-linecap="round" stroke-linejoin="round"/>
<path d="M59.9837 95.0461C51.6134 82.3816 46.2976 78.0501 31.7364 74.8914C31.4014 74.8211 31.0988 74.6428 30.8749 74.3839C30.6509 74.1251 30.5181 73.7999 30.4967 73.4584L28.3521 34.2845C28.3372 34.0363 28.3823 33.7882 28.4835 33.5611C28.5847 33.334 28.7391 33.1346 28.9336 32.9797C29.1281 32.8248 29.3571 32.719 29.6011 32.6713C29.8451 32.6235 30.097 32.6351 30.3355 32.7052C39.0575 35.0805 46.5907 40.6017 51.482 48.2036C52.6993 40.4333 60.5142 32.3928 67.7788 29.4894C67.9901 29.405 68.2174 29.3676 68.4446 29.38C68.6718 29.3924 68.8937 29.4543 69.0946 29.5612C69.2955 29.6681 69.4705 29.8176 69.6077 29.9992C69.7449 30.1808 69.8408 30.3901 69.8887 30.6126L79.4045 74.7303C79.4766 75.0792 79.4261 75.4423 79.2617 75.7585C79.0973 76.0746 78.829 76.3244 78.502 76.4658C74.3126 78.1466 70.5195 80.6821 67.3647 83.9107C64.21 87.1393 61.7629 90.99 60.1795 95.2172" stroke="#0D4536" stroke-width="0.5" stroke-linecap="round" stroke-linejoin="round"/>
<path d="M59.9731 95.0461C59.8988 94.9247 59.816 94.8087 59.7252 94.699C59.6763 94.6027 59.6182 94.5113 59.5516 94.4263C54.8904 87.4345 51.1466 83.046 46.0639 80.0212C41.6062 77.5242 36.7626 75.7896 31.7332 74.8889C31.3969 74.8195 31.0931 74.6408 30.8688 74.3807C30.6446 74.1206 30.5127 73.7937 30.4936 73.4509L30.1712 67.55L29.9729 63.9054L28.9315 44.6903L28.3613 34.277C28.3443 34.0304 28.3868 33.7832 28.4855 33.5565C28.5842 33.3297 28.736 33.1301 28.9281 32.9744C29.1203 32.8188 29.3471 32.7117 29.5894 32.6622C29.8316 32.6128 30.0823 32.6224 30.3201 32.6903C39.0374 35.0749 46.5681 40.5927 51.4689 48.1862C52.6838 40.4258 60.5186 32.3927 67.7831 29.4919C67.9937 29.406 68.2205 29.3674 68.4476 29.3787C68.6747 29.3901 68.8965 29.4511 69.0974 29.5575C69.2984 29.6638 69.4735 29.813 69.6106 29.9945C69.7476 30.1759 69.8432 30.3852 69.8905 30.6076L73.089 45.3846L78.3452 69.8062L78.5683 70.8476L79.4113 74.7154C79.4759 75.069 79.4208 75.4341 79.2547 75.7529C79.0886 76.0717 78.8208 76.3261 78.494 76.4757C74.427 78.1056 70.7328 80.5433 67.6347 83.6414C64.5366 86.7395 62.0989 90.4337 60.469 94.5007H60.4442C60.345 94.7238 60.2706 94.9717 60.1715 95.2197" stroke="#0D4536" stroke-width="0.5" stroke-linecap="round" stroke-linejoin="round"/>
<path d="M51.4764 48.1937L59.9831 94.1462" stroke="#0D4536" stroke-width="0.5" stroke-linecap="round" stroke-linejoin="round"/>
<path d="M28.3519 78.2187L27.7543 78.1418C25.0132 77.7801 22.2505 77.6061 19.4856 77.6211C18.1896 77.6368 16.8953 77.7196 15.6079 77.8691C14.9856 77.9435 14.3682 78.0352 13.7459 78.1468C13.4809 78.2505 13.1953 78.2906 12.9119 78.2639C12.6286 78.2372 12.3555 78.1445 12.1145 77.9931C11.3707 77.4674 11.4525 76.8377 11.4203 76.0096L11.3286 73.7534L11.1203 68.5145L10.8599 61.9789C11.7258 64.669 13.4504 67.0006 15.7691 68.6161L13.6071 68.3682C15.1292 70.0461 16.9777 71.396 19.0394 72.3352L16.312 72.1988C19.9351 74.9058 24.0124 76.9445 28.3519 78.2187Z" fill="#0D4536"/>
<path d="M20.1179 90.8213C17.655 90.8656 15.2025 91.1538 12.7964 91.6816C11.4483 91.9827 10.1228 92.377 8.82941 92.8618C8.18643 93.1031 7.55508 93.3676 6.93524 93.6552C6.40465 93.9031 5.73523 94.4684 5.14018 94.1957C4.54514 93.923 4.67158 93.2858 4.65919 92.7353L4.51043 87.0105L4.42365 83.6956C6.12128 85.5867 8.4448 86.8008 10.9666 87.1146C10.5575 87.433 10.0863 87.6623 9.58332 87.7878C9.08035 87.9134 8.55673 87.9323 8.04598 87.8436C11.9429 89.2943 15.9934 90.2934 20.1179 90.8213Z" fill="#0D4536"/>
<path d="M93.4075 46.4086C93.8032 46.4086 94.124 46.0878 94.124 45.6921C94.124 45.2964 93.8032 44.9756 93.4075 44.9756C93.0117 44.9756 92.6909 45.2964 92.6909 45.6921C92.6909 46.0878 93.0117 46.4086 93.4075 46.4086Z" fill="#0D4536"/>
<path d="M90.8658 45.9895C91.4259 45.9895 91.8799 45.5355 91.8799 44.9755C91.8799 44.4154 91.4259 43.9614 90.8658 43.9614C90.3058 43.9614 89.8517 44.4154 89.8517 44.9755C89.8517 45.5355 90.3058 45.9895 90.8658 45.9895Z" fill="#0D4536"/>
<path d="M65.8768 36.2854C66.2314 36.2854 66.5189 35.8824 66.5189 35.3854C66.5189 34.8883 66.2314 34.4854 65.8768 34.4854C65.5221 34.4854 65.2346 34.8883 65.2346 35.3854C65.2346 35.8824 65.5221 36.2854 65.8768 36.2854Z" fill="#0D4536"/>
<path d="M67.7316 39.1864C68.0356 39.1864 68.282 38.7591 68.282 38.2319C68.282 37.7047 68.0356 37.2773 67.7316 37.2773C67.4276 37.2773 67.1812 37.7047 67.1812 38.2319C67.1812 38.7591 67.4276 39.1864 67.7316 39.1864Z" fill="#0D4536"/>
<path d="M102.462 86.1626C103.105 86.1626 103.625 85.854 103.625 85.4733C103.625 85.0926 103.105 84.784 102.462 84.784C101.82 84.784 101.3 85.0926 101.3 85.4733C101.3 85.854 101.82 86.1626 102.462 86.1626Z" fill="#0D4536"/>
<path d="M97.4759 84.1767C97.7922 84.1767 98.0487 84.0413 98.0487 83.8743C98.0487 83.7072 97.7922 83.5718 97.4759 83.5718C97.1596 83.5718 96.9032 83.7072 96.9032 83.8743C96.9032 84.0413 97.1596 84.1767 97.4759 84.1767Z" fill="#0D4536"/>
<path d="M97.3322 87.214C97.7266 87.214 98.0463 87.0786 98.0463 86.9115C98.0463 86.7445 97.7266 86.609 97.3322 86.609C96.9379 86.609 96.6182 86.7445 96.6182 86.9115C96.6182 87.0786 96.9379 87.214 97.3322 87.214Z" fill="#0D4536"/>
<path d="M34.4805 47.192C40.138 48.8236 45.1174 52.2385 48.6774 56.9284" stroke="#0D4536" stroke-width="0.5" stroke-linecap="round" stroke-linejoin="round"/>
<path d="M35.2072 57.913C40.8653 59.542 45.8451 62.9564 49.404 67.6469" stroke="#0D4536" stroke-width="0.5" stroke-linecap="round" stroke-linejoin="round"/>
<path d="M56.4327 52.5774C57.6008 48.1911 60.3237 44.3792 64.094 41.8517" stroke="#0D4536" stroke-width="0.5" stroke-linecap="round" stroke-linejoin="round"/>
<path d="M59.0363 62.7871C60.2037 58.4006 62.9268 54.5884 66.6975 52.0614" stroke="#0D4536" stroke-width="0.5" stroke-linecap="round" stroke-linejoin="round"/>
<path d="M61.8082 72.1667C62.9765 67.7806 65.6992 63.9687 69.4694 61.441" stroke="#0D4536" stroke-width="0.5" stroke-linecap="round" stroke-linejoin="round"/>
<path d="M75.6202 55.2227C80.923 52.8617 86.6463 51.5911 92.45 51.4863" stroke="#0D4536" stroke-width="0.5" stroke-linecap="round" stroke-linejoin="round"/>
<path d="M77.2915 63.8632C82.5941 61.5019 88.3176 60.232 94.1213 60.1293" stroke="#0D4536" stroke-width="0.5" stroke-linecap="round" stroke-linejoin="round"/>
<path d="M29.2023 55.3343C24.5475 54.1482 19.7228 53.7758 14.9411 54.2335" stroke="#0D4536" stroke-width="0.5" stroke-linecap="round" stroke-linejoin="round"/>
<path d="M29.2023 62.6238C24.5475 61.4377 19.7228 61.0653 14.9411 61.5229" stroke="#0D4536" stroke-width="0.5" stroke-linecap="round" stroke-linejoin="round"/>
<path d="M52.4235 0.324799C50.3193 4.46714 49.2814 9.06882 49.4036 13.7133C49.4079 18.3157 50.3424 22.8697 52.1508 27.1019C53.0543 22.686 53.4255 18.1778 53.2566 13.6737C53.2858 9.21019 53.0075 4.75 52.4235 0.324799Z" fill="#0D4536"/>
<path d="M66.427 12.491C64.3332 14.5565 62.3933 16.7723 60.6228 19.1208C59.6935 20.2036 58.848 21.3557 58.0938 22.5671C57.3346 23.9535 56.9742 25.5231 57.0525 27.1019C58.6873 26.8319 60.1623 25.9609 61.1881 24.6597C61.6705 24.0705 62.0715 23.4192 62.3806 22.7233C62.5987 22.0294 62.8749 21.3551 63.2063 20.7076C64.5654 18.0894 65.645 15.3354 66.427 12.491Z" fill="#0D4536"/>
<path d="M41.0656 14.4077C41.2523 17.0508 41.6578 19.6739 42.278 22.25C42.4809 23.5157 42.7979 24.7604 43.2251 25.969C43.8004 27.2969 44.763 28.4202 45.987 29.1922C46.3998 28.5606 46.6836 27.8536 46.8219 27.1119C46.9602 26.3702 46.9503 25.6085 46.7929 24.8706C46.6614 24.1954 46.43 23.5436 46.1061 22.9367C45.7327 22.4004 45.4074 21.832 45.1342 21.2384C44.0427 18.8139 42.6777 16.5221 41.0656 14.4077Z" fill="#0D4536"/>
<path d="M118.861 96.3429L109.268 75.194C109.141 75.474 108.948 75.7192 108.706 75.9091C108.464 76.099 108.179 76.2279 107.877 76.2849L107.902 76.3097L113.731 90.0453C113.805 90.218 113.83 90.408 113.803 90.5941C113.776 90.7801 113.697 90.955 113.577 91.099C113.456 91.2431 113.297 91.3507 113.119 91.4098C112.94 91.4689 112.749 91.4772 112.566 91.4337C91.1414 86.8221 75.3751 87.1445 60.4246 95.2272C42.9947 88.1114 24.8186 90.1445 5.87877 96.0206C5.5872 96.1088 5.27905 96.1278 4.97883 96.0763C4.6786 96.0247 4.39451 95.9039 4.1491 95.7234C3.90368 95.543 3.70371 95.3078 3.56497 95.0366C3.42623 94.7654 3.35252 94.4657 3.34978 94.1611V60.0624H0.520855C0.450747 60.0637 0.381606 60.0789 0.317395 60.1071C0.253184 60.1352 0.195188 60.1759 0.146772 60.2266C0.0983564 60.2773 0.0604774 60.3371 0.0353193 60.4026C0.0101612 60.468 -0.0017665 60.5378 0.000211204 60.6079V100.558C-0.000830568 100.752 0.0371123 100.945 0.111816 101.125C0.186519 101.304 0.296449 101.467 0.435128 101.603C0.573807 101.74 0.738421 101.847 0.919226 101.919C1.10003 101.99 1.29332 102.025 1.48777 102.021L50.5295 101.054C50.8539 101.049 51.1674 100.935 51.4197 100.731L52.8328 99.6156C53.0484 99.4485 53.306 99.344 53.5771 99.3133C53.8483 99.2827 54.1226 99.3273 54.3701 99.4421C56.1314 100.265 58.0588 100.671 60.0024 100.628C61.946 100.585 63.8535 100.094 65.5767 99.1942C65.8082 99.0709 66.0688 99.0127 66.3308 99.0258C66.5927 99.0389 66.8463 99.1228 67.0644 99.2685L68.2048 100.062C68.5052 100.287 68.8707 100.409 69.2462 100.409L117.569 98.4255C117.812 98.4207 118.051 98.355 118.262 98.2344C118.474 98.1138 118.652 97.9422 118.781 97.7352C118.909 97.5282 118.984 97.2924 118.998 97.0492C119.012 96.806 118.964 96.5632 118.861 96.3429ZM18.5656 100.868C18.2755 101.034 17.5962 100.88 17.2689 100.885L15.7367 100.91L12.5135 100.962L4.52749 101.093L2.45225 101.128C1.91175 101.128 1.25724 101.334 0.875417 100.831C0.724176 100.635 0.771256 100.424 0.7539 100.188C0.71671 99.6925 0.674586 99.1966 0.639875 98.7007C0.605164 98.2049 0.570467 97.7536 0.545673 97.2801C0.503602 97.056 0.498547 96.8265 0.530767 96.6007C1.86466 97.0718 3.12663 97.6619 4.46053 98.133L2.60101 98.614L8.55145 99.3454L14.6978 100.102L17.7698 100.478C17.9185 100.483 19.0664 100.573 18.5656 100.86V100.868ZM59.242 100.01C57.2627 99.832 55.3729 99.1028 53.7873 97.9049C57.365 99.2177 61.2265 99.5599 64.9792 98.8966C63.2079 99.7944 61.2201 100.178 59.242 100.002V100.01Z" fill="#0D4536"/>
</svg>
