<svg width="392" height="410" viewBox="0 0 392 410" fill="none" xmlns="http://www.w3.org/2000/svg">
<path d="M261.611 246.345L261.6 246.508C261.675 246.777 261.711 247.056 261.707 247.336C261.783 247.423 261.783 247.423 261.777 247.505C262.348 252.409 262.258 257.367 261.51 262.247C260.074 271.919 256.137 281.048 250.089 288.73C244.041 296.413 236.091 302.383 227.027 306.049C217.962 309.715 208.098 310.95 198.41 309.632C188.721 308.315 179.545 304.489 171.789 298.535C164.034 292.581 157.967 284.705 154.191 275.686C150.414 266.668 149.059 256.819 150.258 247.115C151.457 237.411 155.17 228.189 161.029 220.361C166.888 212.533 174.69 206.371 183.662 202.485C193.27 198.23 203.896 196.821 214.281 198.423C226.306 200.182 237.431 205.811 245.971 214.458C254.511 223.105 260.002 234.299 261.611 246.345Z" stroke="#0D4536" stroke-width="2" stroke-linecap="round" stroke-linejoin="round"/>
<path d="M123.499 329.338L118.849 360.355C118.584 362.033 118.996 363.748 119.994 365.123C120.992 366.497 122.494 367.42 124.172 367.689L310.515 404.591C312.224 404.868 313.974 404.455 315.38 403.445C316.786 402.434 317.734 400.907 318.017 399.199L373.335 43.8662C373.472 43.0283 373.44 42.1715 373.241 41.3461C373.042 40.5207 372.681 39.7431 372.177 39.0595C371.674 38.3758 371.039 37.7996 370.31 37.3647C369.581 36.9298 368.772 36.645 367.931 36.527L177.903 10.3622C176.214 10.1151 174.497 10.544 173.123 11.5557C171.749 12.5675 170.829 14.0804 170.564 15.766L138.677 228.365C143.313 216.02 151.264 205.194 161.657 197.077C172.049 188.96 184.479 183.867 197.579 182.359C203.928 181.637 210.344 181.743 216.665 182.677C226.945 184.185 236.776 187.906 245.478 193.582C254.18 199.258 261.547 206.755 267.071 215.556C270.59 221.121 273.299 227.16 275.114 233.49C276.76 238.826 277.733 244.347 278.011 249.924L277.863 250.898L278.108 250.915C278.301 255.504 278.043 260.101 277.336 264.64C274.687 282.2 265.653 298.166 251.965 309.48C238.277 320.795 220.897 326.663 203.152 325.96C185.406 325.257 168.544 318.034 155.794 305.673C143.043 293.311 135.3 276.681 134.048 258.966L127.02 305.845L127.027 306.469" stroke="#0D4536" stroke-width="2" stroke-linecap="round" stroke-linejoin="round"/>
<path d="M228.706 33.2295L272.464 39.3633" stroke="#0D4536" stroke-width="2" stroke-linecap="round" stroke-linejoin="round"/>
<path d="M334.233 394.624L334.233 394.623L388.011 54.8838C388.011 54.8833 388.012 54.8828 388.012 54.8824C388.089 54.387 388.047 53.8805 387.891 53.404C387.736 52.9286 387.47 52.4966 387.116 52.1431C387.115 52.142 387.114 52.1408 387.113 52.1397L373.284 38.646L314.6 404.883L331.713 397.824L334.233 394.624ZM334.233 394.624C334.122 395.329 333.833 395.993 333.391 396.554C332.951 397.114 332.373 397.551 331.715 397.824L334.233 394.624ZM360.262 186.553C361.025 186.607 361.78 186.372 362.377 185.894C362.974 185.416 363.368 184.731 363.482 183.975C363.482 183.974 363.482 183.973 363.482 183.973L367.668 156.851C367.669 156.851 367.669 156.85 367.669 156.85C367.794 156.053 367.597 155.238 367.122 154.586C366.647 153.933 365.932 153.495 365.134 153.37L365.124 153.368L365.115 153.367C364.323 153.258 363.519 153.461 362.874 153.933C362.228 154.405 361.791 155.109 361.654 155.897L361.653 155.905L361.652 155.914L357.423 183.048L357.422 183.051C357.3 183.849 357.499 184.663 357.976 185.315C358.452 185.967 359.168 186.403 359.965 186.529L360.009 186.536L360.053 186.539L360.262 186.553ZM360.262 186.553L360.333 185.555M360.262 186.553L360.265 186.553L360.333 185.555M360.333 185.555L360.121 185.541L362.493 183.825C362.417 184.332 362.153 184.793 361.752 185.113C361.352 185.434 360.845 185.592 360.333 185.555ZM371.096 76.4626C371.096 76.4629 371.097 76.4647 371.097 76.4684C371.096 76.4643 371.096 76.4623 371.096 76.4626ZM370.977 77.2677C370.977 77.2676 370.978 77.266 370.98 77.2633C370.978 77.2665 370.977 77.2679 370.977 77.2677ZM372.352 76.6736C372.353 76.6736 372.352 76.675 372.35 76.6777C372.351 76.6749 372.352 76.6736 372.352 76.6736ZM371.252 134.142L371.252 134.141L375.489 107.007L375.489 107.006C375.613 106.206 375.415 105.39 374.936 104.736C374.458 104.082 373.74 103.645 372.94 103.521C372.14 103.397 371.323 103.596 370.67 104.074C370.016 104.552 369.579 105.27 369.455 106.07L365.234 133.211C365.234 133.211 365.234 133.212 365.234 133.212C365.172 133.607 365.189 134.011 365.283 134.398C365.377 134.786 365.546 135.152 365.782 135.475C366.018 135.797 366.314 136.071 366.657 136.279C366.999 136.487 367.378 136.624 367.773 136.685L367.815 136.692L367.857 136.694L368.036 136.707L368.036 136.707C368.796 136.758 369.547 136.524 370.142 136.049C370.737 135.575 371.133 134.894 371.252 134.142ZM378.514 84.8682L379.591 85.0349L379.622 84.5775C379.654 84.5556 379.684 84.5332 379.713 84.5107C379.992 84.2929 380.21 84.0019 380.378 83.7141C380.717 83.1314 380.968 82.358 381.09 81.5314C381.21 80.7103 381.199 79.9034 381.052 79.2489C380.98 78.9251 380.862 78.5858 380.669 78.2954C380.476 78.006 380.14 77.6721 379.626 77.5919C379.115 77.5121 378.694 77.7245 378.42 77.9416C378.146 78.1593 377.93 78.4473 377.762 78.7356C377.423 79.3181 377.172 80.0896 377.05 80.9207C376.93 81.743 376.938 82.5513 377.083 83.2073C377.155 83.5319 377.273 83.8731 377.468 84.1651C377.663 84.4582 378.001 84.7888 378.514 84.8682ZM373.07 77.185C373.129 76.8012 373.13 76.3965 373.052 76.0439C373.014 75.8726 372.945 75.6518 372.805 75.4469C372.669 75.2477 372.393 74.9668 371.952 74.9171C371.545 74.8637 371.224 75.0349 371.041 75.1774C370.85 75.3263 370.717 75.5097 370.626 75.6633C370.441 75.9767 370.317 76.3631 370.257 76.7528C370.2 77.1314 370.196 77.531 370.274 77.8844C370.312 78.0584 370.381 78.2744 370.517 78.4761C370.656 78.6819 370.916 78.9421 371.327 79.0131C371.751 79.0864 372.089 78.9163 372.288 78.7624C372.483 78.6116 372.617 78.4252 372.708 78.2704C372.892 77.9553 373.012 77.569 373.07 77.185ZM376.582 72.452C377.183 72.5448 377.652 72.2419 377.929 71.9784C378.216 71.7071 378.444 71.3502 378.625 70.9872C378.994 70.2508 379.283 69.2646 379.448 68.1999C379.613 67.1383 379.64 66.1114 379.515 65.2979C379.453 64.8969 379.346 64.486 379.155 64.139C378.968 63.7994 378.611 63.3701 378.009 63.2777C377.41 63.1859 376.941 63.4835 376.66 63.7485C376.371 64.0199 376.142 64.3773 375.959 64.7408C375.589 65.4778 375.299 66.4647 375.135 67.5293C374.97 68.594 374.947 69.6222 375.076 70.4362C375.139 70.8375 375.249 71.2469 375.439 71.5922C375.624 71.9274 375.98 72.359 376.582 72.452Z" fill="#0D4536" stroke="#0D4536" stroke-width="2"/>
<path d="M293.428 35.9124L293.429 35.9125C294.29 36.0457 295.116 36.3474 295.86 36.8003C296.605 37.2533 297.252 37.8483 297.766 38.5518C298.28 39.255 298.65 40.0531 298.855 40.9001C299.06 41.7468 299.096 42.6257 298.961 43.4864L298.961 43.4875C298.759 44.7839 298.178 45.9911 297.29 46.9568C296.401 47.9226 295.247 48.6034 293.972 48.913C293.661 48.9886 293.346 49.0412 293.029 49.071L291.588 47.2514C290.399 45.7488 289.661 43.9392 289.461 42.0337C289.487 40.3621 290.047 38.742 291.059 37.4108L292.258 35.835C292.648 35.8262 293.039 35.8518 293.428 35.9124ZM288.447 47.7882C288.942 48.151 289.484 48.4484 290.061 48.6714C289.481 48.4523 288.939 48.1543 288.447 47.7882Z" fill="#0D4536" stroke="#0D4536" stroke-width="2"/>
<path d="M168.161 40.8271L367.984 68.2588" stroke="#0D4536" stroke-width="2" stroke-linecap="round" stroke-linejoin="round"/>
<path d="M268.745 289.639L302.749 296.059C303.182 296.134 303.625 296.121 304.052 296.02C304.479 295.92 304.882 295.735 305.236 295.476C305.59 295.217 305.889 294.89 306.114 294.513C306.339 294.137 306.487 293.719 306.547 293.284L318.725 209.73" stroke="#0D4536" stroke-width="2" stroke-linecap="round" stroke-linejoin="round"/>
<path d="M251.823 286.435L237.252 283.637" stroke="#0D4536" stroke-width="2" stroke-linecap="round" stroke-linejoin="round"/>
<path d="M183.662 202.485L174.494 268.367C174.416 268.804 174.427 269.252 174.525 269.685C174.623 270.118 174.806 270.527 175.064 270.888C175.322 271.25 175.649 271.556 176.027 271.789C176.404 272.022 176.825 272.178 177.263 272.246L237.253 283.637" stroke="#0D4536" stroke-width="2" stroke-linecap="round" stroke-linejoin="round"/>
<path d="M338.348 203.36L327.55 213.777C326.853 214.415 325.937 214.761 324.992 214.742C324.047 214.724 323.145 214.342 322.473 213.677L318.724 209.73L262.29 151.019C261.756 150.464 261.057 150.096 260.297 149.971C259.538 149.845 258.757 149.968 258.073 150.321L197.581 182.36C189.623 183.274 181.875 185.518 174.659 188.997L168.276 177.983C168.038 177.574 167.884 177.122 167.821 176.654C167.759 176.185 167.79 175.708 167.912 175.252C168.035 174.795 168.247 174.367 168.536 173.993C168.825 173.619 169.184 173.305 169.595 173.07L262.313 121.826C262.998 121.439 263.792 121.291 264.571 121.403C265.35 121.516 266.069 121.883 266.617 122.448L338.443 198.365C338.767 198.697 339.023 199.091 339.194 199.523C339.365 199.955 339.448 200.417 339.44 200.882C339.431 201.347 339.33 201.805 339.142 202.231C338.955 202.656 338.685 203.04 338.348 203.36Z" stroke="#0D4536" stroke-width="2" stroke-linecap="round" stroke-linejoin="round"/>
<path d="M299.682 221.979L295.026 251.757C294.946 252.228 294.684 252.649 294.297 252.93C293.91 253.21 293.429 253.327 292.956 253.256L278.107 250.931L277.862 250.915L278.011 249.941C277.733 244.363 276.76 238.842 275.114 233.506C273.298 227.176 270.59 221.137 267.07 215.572C267.429 215.305 267.879 215.188 268.323 215.247L298.101 219.902C298.345 219.927 298.58 220.001 298.794 220.121C299.008 220.24 299.194 220.402 299.343 220.597C299.491 220.792 299.597 221.015 299.656 221.253C299.714 221.49 299.723 221.737 299.682 221.979Z" stroke="#0D4536" stroke-width="2" stroke-linecap="round" stroke-linejoin="round"/>
<path d="M277.862 250.899L278.011 249.924L280.473 234.265L283.084 217.632" stroke="#0D4536" stroke-width="2" stroke-linecap="round" stroke-linejoin="round"/>
<path d="M296.943 236.864L280.473 234.265L275.113 233.49" stroke="#0D4536" stroke-width="2" stroke-linecap="round" stroke-linejoin="round"/>
<path d="M226.536 207.105L226.536 207.105C232.018 207.957 236.937 210.951 240.212 215.43C243.486 219.908 244.847 225.503 243.996 230.985C243.996 230.985 243.996 230.985 243.996 230.985L236.182 281.175L194.978 274.756L202.645 224.611C202.645 224.611 202.645 224.611 202.645 224.611C203.061 221.892 204.01 219.281 205.436 216.929C206.863 214.576 208.74 212.528 210.959 210.902C213.178 209.276 215.696 208.104 218.369 207.452C221.042 206.801 223.817 206.683 226.536 207.105ZM224.127 218.699L226.47 217.684L224.06 216.838C222.686 216.356 221.228 216.191 219.78 216.357C219.749 216.361 219.718 216.365 219.686 216.369C222.15 214.069 225.056 212.273 228.244 211.099L231.28 209.981L228.143 209.191C225.787 208.598 223.325 208.558 220.952 209.075C218.578 209.592 216.357 210.652 214.461 212.172L214.461 212.172L214.452 212.18C210.78 215.195 208.035 219.188 206.536 223.698L206.536 223.699C205.09 228.067 204.057 232.562 203.45 237.123L205.363 237.643C208.946 229.149 215.667 222.364 224.127 218.699ZM230.943 257.053L230.945 257.053C232.802 257.341 234.708 256.88 236.227 255.77C237.746 254.66 238.761 252.992 239.051 251.133L239.051 251.133C239.266 249.747 239.066 248.328 238.475 247.055C237.885 245.782 236.93 244.713 235.731 243.983C234.533 243.253 233.146 242.895 231.744 242.953C230.342 243.012 228.989 243.484 227.856 244.312C226.722 245.139 225.86 246.284 225.378 247.601C224.895 248.919 224.814 250.35 225.144 251.714C225.475 253.077 226.202 254.312 227.234 255.262C228.266 256.213 229.557 256.836 230.943 257.053Z" fill="#0D4536" stroke="#0D4536" stroke-width="2"/>
<path d="M313.244 129.013L313.245 129.013C313.281 129.018 313.316 129.031 313.349 129.051C313.382 129.071 313.41 129.097 313.431 129.126C313.453 129.156 313.469 129.19 313.478 129.227C313.486 129.263 313.488 129.3 313.482 129.338C313.482 129.338 313.482 129.338 313.482 129.338L307.966 164.699L289.448 145.136L292.422 126.057L292.422 126.056C292.428 126.019 292.44 125.984 292.459 125.954C292.477 125.924 292.502 125.897 292.533 125.875C292.562 125.853 292.595 125.838 292.631 125.83C292.667 125.821 292.703 125.82 292.739 125.826L292.739 125.826L292.747 125.827L308.308 128.245C308.153 128.365 308.026 128.504 307.93 128.638C307.659 129.014 307.507 129.486 307.474 129.966C307.441 130.445 307.528 130.934 307.746 131.344C307.955 131.737 308.38 132.203 309.05 132.248C309.724 132.294 310.205 131.883 310.46 131.526C310.729 131.151 310.881 130.68 310.914 130.2C310.946 129.726 310.864 129.239 310.649 128.829C310.608 128.75 310.558 128.667 310.498 128.586L313.244 129.013ZM291.605 125.433C291.517 125.577 291.459 125.737 291.434 125.903L292.9 124.839C292.734 124.812 292.564 124.818 292.4 124.857C292.236 124.896 292.082 124.966 291.945 125.065C291.809 125.164 291.693 125.289 291.605 125.433ZM290.849 143.387L290.775 143.871L291.113 144.227L304.029 157.81L305.529 156.489C302.487 152.759 299.696 148.833 297.174 144.736L297.601 144.943L300.318 146.254L298.923 143.58C296.959 139.815 295.503 135.807 294.594 131.66L292.629 131.724L290.849 143.387ZM308.924 134.788C308.893 135.249 308.945 135.722 309.097 136.123C309.217 136.438 309.568 137.114 310.355 137.168L310.379 137.169C311.189 137.224 311.615 136.564 311.76 136.281C311.951 135.907 312.056 135.452 312.087 135.004C312.118 134.547 312.07 134.077 311.921 133.676C311.804 133.362 311.457 132.679 310.665 132.625C309.878 132.572 309.438 133.193 309.277 133.489C309.071 133.866 308.956 134.327 308.924 134.788Z" fill="#0D4536" stroke="#0D4536" stroke-width="2"/>
<path d="M321.119 189.153C321.098 189.458 320.69 189.983 319.821 189.924C318.953 189.865 318.62 189.289 318.641 188.984C318.662 188.679 319.07 188.154 319.938 188.213C320.806 188.273 321.139 188.848 321.119 189.153Z" fill="#0D4536" stroke="#0D4536" stroke-width="2"/>
<path d="M326.672 194.27C326.672 194.27 326.671 194.273 326.669 194.277C326.67 194.272 326.672 194.27 326.672 194.27ZM326.533 194.217C326.586 194.256 326.618 194.288 326.637 194.312C326.615 194.332 326.579 194.36 326.522 194.391C326.334 194.496 326.02 194.579 325.631 194.553C325.241 194.526 324.941 194.401 324.77 194.272C324.718 194.233 324.685 194.201 324.666 194.177C324.688 194.157 324.725 194.129 324.782 194.098C324.969 193.993 325.283 193.91 325.673 193.936C326.063 193.963 326.362 194.088 326.533 194.217ZM324.637 194.131C324.637 194.131 324.639 194.134 324.64 194.139C324.637 194.134 324.637 194.131 324.637 194.131ZM324.631 194.219C324.631 194.219 324.632 194.217 324.635 194.212C324.633 194.217 324.631 194.219 324.631 194.219ZM326.664 194.35C326.666 194.355 326.666 194.358 326.666 194.358C326.666 194.358 326.665 194.355 326.664 194.35Z" fill="#0D4536" stroke="#0D4536" stroke-width="2"/>
<path d="M220.835 346.735L220.867 346.745L220.9 346.753C224.203 347.539 227.064 349.596 228.862 352.476C230.66 355.357 231.25 358.83 230.505 362.143L230.498 362.176L230.492 362.209C230.055 365.023 228.768 367.635 226.803 369.696C224.838 371.757 222.29 373.167 219.501 373.738C219.31 373.777 219.118 373.812 218.927 373.843L218.293 372.752C216.924 370.395 216.208 367.716 216.217 364.99C216.225 362.264 216.959 359.59 218.343 357.241L219.366 355.504L217.363 355.74C216.813 355.805 216.276 355.95 215.771 356.167C216.768 353.793 218.278 351.653 220.209 349.907L221.679 348.578L219.737 348.185C218.655 347.966 217.536 348.016 216.478 348.332C215.434 348.644 214.482 349.204 213.702 349.965C211.836 351.523 210.394 353.527 209.511 355.793C208.622 358.071 208.328 360.538 208.656 362.962C208.985 365.386 209.925 367.686 211.387 369.646C212.782 371.515 214.608 373.015 216.707 374.022C214.823 374.022 212.947 373.641 211.197 372.89C208.581 371.767 206.37 369.87 204.863 367.455C203.355 365.04 202.623 362.221 202.763 359.377C202.904 356.533 203.911 353.8 205.649 351.545C207.388 349.29 209.774 347.621 212.488 346.761C215.203 345.901 218.115 345.892 220.835 346.735Z" fill="#0D4536" stroke="#0D4536" stroke-width="2"/>
<path d="M138.951 314.988L138.954 314.993C140.115 317.357 140.792 319.199 141.045 320.64C140.834 320.541 140.611 320.468 140.382 320.424C140.01 320.351 139.628 320.354 139.258 320.431C139.089 320.466 138.923 320.516 138.764 320.581C134.434 318.16 130.808 314.651 128.245 310.398L128.202 310.326L128.147 310.263C124.917 306.496 122.577 302.051 121.3 297.26C121.607 296.746 121.759 296.151 121.731 295.545C121.719 295.274 121.671 295.009 121.59 294.755C122.96 295.361 124.617 296.563 126.527 298.417L126.553 298.442L126.581 298.465C126.683 298.551 126.762 298.661 126.811 298.786C126.86 298.911 126.877 299.045 126.86 299.177L126.858 299.199L126.856 299.221C126.831 299.529 126.692 299.816 126.467 300.026L125.047 301.041L124.377 301.521L124.719 302.27C127.048 307.376 130.397 311.952 134.559 315.717L135.18 316.278L135.842 315.766L137.4 314.56L137.4 314.56L137.409 314.553C137.524 314.462 137.657 314.398 137.8 314.366C137.935 314.335 138.075 314.334 138.212 314.361C138.368 314.408 138.514 314.485 138.639 314.59C138.77 314.699 138.877 314.835 138.951 314.988ZM133.711 324.839C134.658 325.486 135.65 326.038 136.644 326.387L73.4102 370.498L73.3971 370.507L73.3844 370.516C70.4069 372.737 66.7228 373.8 63.0199 373.504L63.0125 373.503L63.0051 373.503C60.6705 373.352 58.3992 372.682 56.3562 371.542C54.3131 370.402 52.5499 368.821 51.1947 366.914C48.8121 363.555 47.8001 359.413 48.3654 355.333C48.9303 351.256 51.0281 347.547 54.231 344.962L115.288 297.491C115.316 298.247 115.445 299.024 115.635 299.792C116.096 301.657 116.963 303.656 117.941 305.533C119.791 309.084 122.117 312.348 123.149 313.706L123.289 313.906C124.122 315.091 126.445 318.163 129.237 320.994C130.632 322.409 132.167 323.787 133.711 324.839ZM111.646 311.82L111.551 312.004L111.537 312.211C111.495 312.822 111.818 313.316 112.17 313.619C112.536 313.935 113.023 314.134 113.553 314.171C113.987 314.2 114.467 314.154 114.885 313.996C115.245 313.86 115.914 313.487 115.969 312.677C116.013 312.035 115.655 311.557 115.309 311.278C114.972 311.006 114.551 310.833 114.126 310.744C113.663 310.612 113.168 310.642 112.722 310.828C112.257 311.022 111.876 311.373 111.646 311.82ZM90.641 346.629C91.3275 346.915 92.0131 347.2 92.6954 347.485C86.6477 350.988 79.888 353.102 72.9069 353.664C72.8484 353.667 72.7899 353.672 72.7314 353.677L72.8985 355.67C72.9502 355.666 73.0019 355.662 73.0536 355.658C73.9568 355.599 74.8615 355.757 75.6916 356.121C75.9714 356.288 76.1903 356.541 76.3161 356.842C76.4294 357.114 76.4615 357.412 76.4099 357.7C76.1711 358.039 75.8434 358.308 75.4615 358.475L75.4146 358.495L75.3701 358.52C71.5718 360.666 67.0961 361.276 62.8623 360.224C60.9392 359.731 59.134 358.858 57.5543 357.656C55.9735 356.452 54.6504 354.944 53.6631 353.22L52.109 350.507L51.8002 353.619C51.4011 357.641 52.1041 361.695 53.8336 365.349L53.837 365.356L53.8406 365.363C54.7747 367.258 56.192 368.873 57.9496 370.045C59.7072 371.217 61.7427 371.905 63.851 372.039L63.9298 372.044L64.0085 372.037C67.1762 371.738 70.208 370.606 72.7958 368.755C88.264 359.46 102.925 348.883 116.626 337.136L115.613 335.445C106.384 339.031 96.7912 341.598 87.0049 343.1L83.5115 343.636L86.7679 345.01C88.045 345.548 89.3422 346.088 90.6368 346.627L90.6394 346.628L90.641 346.629ZM113.782 305.065C113.871 303.768 112.793 303.046 111.811 302.869C110.728 302.673 109.49 303.19 109.216 304.343C109.055 305.023 109.368 305.629 109.725 306.002C110.102 306.394 110.65 306.674 111.273 306.716C111.728 306.747 112.258 306.711 112.724 306.508C113.228 306.288 113.731 305.822 113.782 305.065ZM109.605 311.013C109.659 310.216 109.22 309.57 108.721 309.156C108.211 308.732 107.534 308.448 106.806 308.346C106.088 308.245 105.361 308.32 104.754 308.58C104.157 308.837 103.546 309.343 103.4 310.151C103.255 310.954 103.636 311.643 104.147 312.093C104.655 312.539 105.351 312.82 106.109 312.923C106.854 313.023 107.614 312.956 108.24 312.702C108.84 312.458 109.542 311.928 109.605 311.013Z" fill="#0D4536" stroke="#0D4536" stroke-width="2"/>
<path d="M216.636 182.641C202.536 180.542 188.13 182.67 175.239 188.757C162.348 194.844 151.551 204.617 144.213 216.839C136.875 229.062 133.327 243.185 134.015 257.425C134.703 271.664 139.598 285.379 148.08 296.837C156.563 308.295 168.252 316.98 181.67 321.795C195.088 326.61 209.632 327.339 223.464 323.889C237.296 320.44 249.795 312.966 259.38 302.414C268.966 291.861 275.206 278.704 277.315 264.605C278.717 255.238 278.26 245.687 275.969 236.497C273.678 227.307 269.599 218.659 263.963 211.047C258.328 203.435 251.247 197.008 243.127 192.134C235.006 187.26 226.004 184.034 216.636 182.641ZM197.707 309.51C186.722 307.87 176.47 303.01 168.247 295.544C160.023 288.078 154.199 278.341 151.51 267.565C148.82 256.788 149.387 245.457 153.137 235.002C156.888 224.548 163.654 215.441 172.581 208.832C181.508 202.223 192.193 198.409 203.287 197.873C214.381 197.337 225.385 200.103 234.907 205.821C244.429 211.539 252.042 219.951 256.783 229.995C261.524 240.04 263.18 251.264 261.541 262.249C259.332 276.976 251.369 290.224 239.401 299.085C227.433 307.946 212.437 311.695 197.707 309.51Z" stroke="#0D4536" stroke-width="2" stroke-linecap="round" stroke-linejoin="round"/>
<path d="M278.015 249.925L277.866 250.899L278.111 250.916C278.052 250.584 278.074 250.257 278.015 249.925Z" stroke="#0D4536" stroke-width="2" stroke-linecap="round" stroke-linejoin="round"/>
<path d="M139.55 314.203L152.993 303.475C148.483 298.335 144.681 292.615 141.688 286.467L127.379 297.874" stroke="#0D4536" stroke-width="2" stroke-linecap="round" stroke-linejoin="round"/>
<path d="M248.736 203.873C248.68 204.697 247.966 205.32 247.142 205.264C246.318 205.207 245.696 204.494 245.752 203.67C245.808 202.846 246.522 202.224 247.346 202.28C248.17 202.336 248.792 203.05 248.736 203.873Z" fill="#0D4536" stroke="#0D4536" stroke-width="2"/>
<path d="M256.031 209.386C256.901 209.521 257.127 210.097 257.094 210.311C257.06 210.525 256.67 211.005 255.8 210.87C254.93 210.734 254.703 210.158 254.737 209.944C254.77 209.73 255.161 209.25 256.031 209.386Z" fill="#0D4536" stroke="#0D4536" stroke-width="2"/>
<path d="M165.108 290.895C159.853 285.093 155.858 278.198 153.45 270.639C149.643 258.694 150.024 245.808 154.53 234.108C159.036 222.409 167.397 212.597 178.233 206.292C189.069 199.986 201.732 197.566 214.129 199.429L214.136 199.43C220.46 200.338 226.536 202.358 232.094 205.365C228.502 204.053 224.772 203.115 220.962 202.571C213.541 201.458 205.973 201.818 198.691 203.632C191.408 205.445 184.554 208.677 178.521 213.141C172.488 217.606 167.394 223.216 163.53 229.65C159.667 236.085 157.109 243.217 156.004 250.641C154.606 259.948 155.541 269.457 158.725 278.314C160.328 282.774 162.476 286.998 165.108 290.895ZM214.278 198.44L214.278 198.44L214.278 198.44Z" fill="#0D4536" stroke="#0D4536" stroke-width="2"/>
<path d="M258.884 306.314L258.81 306.29L258.733 306.278C257.901 306.145 257.152 306.491 256.626 307.005C256.113 307.506 255.761 308.205 255.629 308.977C255.439 309.702 255.53 310.472 255.883 311.134C256.116 311.572 256.453 311.94 256.859 312.211L256.842 312.467L257.744 312.611C258.571 312.743 259.328 312.403 259.862 311.888C260.382 311.386 260.74 310.68 260.853 309.888C261.037 309.167 260.945 308.403 260.595 307.746C260.231 307.065 259.618 306.552 258.884 306.314ZM262.021 302.228C261.908 302.937 261.996 303.659 262.294 304.262L260.574 305.005L263.946 305.555C264.728 305.682 265.429 305.34 265.911 304.877L267.524 304.18C261.744 311.216 254.662 317.08 246.66 321.448C238.161 326.088 228.803 328.942 219.161 329.836C209.519 330.729 199.797 329.643 190.59 326.645C187.052 325.492 183.618 324.067 180.319 322.385C185.121 324.19 190.12 325.478 195.231 326.217C210.84 328.554 226.786 325.775 240.684 318.296C254.583 310.816 265.686 299.039 272.334 284.724C278.982 270.409 280.817 254.327 277.564 238.882C275.53 229.224 271.575 220.14 265.997 212.141C268.54 215.035 270.85 218.139 272.901 221.424C278.028 229.638 281.422 238.814 282.876 248.387C284.33 257.96 283.812 267.73 281.355 277.096C278.898 286.462 274.553 295.228 268.587 302.855C268.267 303.263 267.943 303.668 267.615 304.07L266.589 303.917C266.724 303.626 266.82 303.309 266.87 302.977C266.979 302.264 266.888 301.536 266.584 300.931C266.277 300.32 265.716 299.782 264.915 299.663C264.128 299.545 263.43 299.877 262.945 300.358C262.46 300.837 262.137 301.502 262.021 302.228Z" fill="#0D4536" stroke="#0D4536" stroke-width="2"/>
<path d="M133.697 173.623C126.54 165.235 121.725 155.105 119.738 144.259C117.752 133.413 118.666 122.235 122.386 111.855" stroke="#0D4536" stroke-width="2" stroke-linecap="round" stroke-linejoin="round"/>
<path d="M99.0482 264.878C67.6812 262.923 36.2774 268.069 7.17469 279.933" stroke="#0D4536" stroke-width="2" stroke-linecap="round" stroke-linejoin="round"/>
<path d="M67.6339 168.995C67.6316 168.987 67.6323 168.979 67.6357 168.972C67.6392 168.964 67.6452 168.959 67.6526 168.956C68.2303 165.363 69.5185 161.922 71.4423 158.831C73.3661 155.74 75.8871 153.062 78.8585 150.952C81.8101 148.978 85.1783 147.71 88.7015 147.245C92.2248 146.78 95.8084 147.131 99.1741 148.271C102.7 149.541 105.901 151.571 108.551 154.216C111.201 156.861 113.234 160.056 114.505 163.573C117.164 172.152 116.366 181.425 112.28 189.424C108.301 197.015 103.507 204.153 97.9833 210.711C93.3568 216.443 89.6582 222.863 87.0219 229.736C86.9487 229.96 86.8222 230.163 86.6531 230.327C86.484 230.492 86.2774 230.613 86.0511 230.68C85.8248 230.747 85.5854 230.759 85.3536 230.713C85.1219 230.668 84.9045 230.567 84.7204 230.42C78.7387 226.095 72.1137 222.733 65.0874 220.457C56.8712 217.959 48.9475 214.589 41.4527 210.403C33.6484 205.926 27.9001 198.592 25.4285 189.958C24.5735 186.319 24.5298 182.538 25.3006 178.881C26.0713 175.224 27.6378 171.781 29.8893 168.795C32.0846 166.007 34.895 163.761 38.1022 162.232C41.3093 160.703 44.827 159.932 48.3819 159.979C52.0306 160.127 55.6136 160.997 58.9227 162.538C62.2318 164.079 65.2011 166.261 67.658 168.956L67.656 168.985" stroke="#0D4536" stroke-width="2" stroke-linecap="round" stroke-linejoin="round"/>
<path d="M38.7958 171.91C40.2417 171.045 41.8408 170.465 43.5025 170.194C40.8331 172.955 38.7627 176.227 37.4299 179.817L39.0787 180.868C39.5861 180.354 40.1517 179.903 40.7627 179.522C39.0355 182.328 37.9365 185.477 37.5574 188.761L37.2452 191.466L39.2338 189.606L39.9314 188.954C39.3741 191.015 39.1663 193.164 39.3269 195.314C39.4742 197.285 39.928 199.213 40.6635 201.034C37.9676 198.545 35.7393 195.601 34.0946 192.334C32.9506 190.01 32.3301 187.478 32.2734 184.908C32.2168 182.341 32.7242 179.793 33.762 177.435C34.8402 175.153 36.5899 173.23 38.7958 171.91Z" fill="#0D4536" stroke="#0D4536" stroke-width="2"/>
</svg>
