<svg width="204" height="84" viewBox="0 0 204 84" fill="none" xmlns="http://www.w3.org/2000/svg">
  <g clipPath="url(#clip0_308_2987)">
    <path
      d="M36.9999 66.5576L17.829 20.8398H26.7648L45.1977 66.5576H36.9938H36.9999ZM37.5489 66.5576L55.9818 20.8398H65.1067L45.8443 66.5576H37.5489Z"
      fill="#F9F7F7" />
    <path
      d="M76.9033 11.1518C75.4882 11.1518 74.2622 10.6193 73.2131 9.55423C72.1701 8.4892 71.6455 7.25473 71.6455 5.85082C71.6455 4.44691 72.164 3.15193 73.2131 2.14741C74.2622 1.14289 75.4882 0.640625 76.9033 0.640625C78.3184 0.640625 79.6237 1.14289 80.6363 2.14741C81.6488 3.15193 82.1551 4.3864 82.1551 5.85082C82.1551 7.31524 81.6488 8.4892 80.6363 9.55423C79.6237 10.6193 78.3794 11.1518 76.9033 11.1518ZM72.4812 66.5577V20.84H81.234V66.5577H72.4812Z"
      fill="#F9F7F7" />
    <path
      d="M107.962 66.5576L88.7914 20.8398H97.7272L116.16 66.5576H107.956H107.962ZM108.511 66.5576L126.944 20.8398H136.069L116.807 66.5576H108.511Z"
      fill="#F9F7F7" />
    <path
      d="M162.517 67.6537C157.906 67.6537 153.855 66.631 150.354 64.5917C146.853 62.5524 144.102 59.7325 142.108 56.1319C140.113 52.5374 139.113 48.3923 139.113 43.6965C139.113 39.0006 140.095 34.8615 142.065 31.261C144.029 27.6665 146.768 24.8466 150.269 22.8012C153.77 20.7619 157.796 19.7393 162.34 19.7393C166.884 19.7393 170.91 20.7619 174.411 22.8012C177.912 24.8466 180.645 27.6604 182.615 31.261C184.579 34.8555 185.561 39.0006 185.561 43.6965C185.561 48.3923 184.579 52.5374 182.615 56.1319C180.645 59.7264 177.93 62.5463 174.46 64.5917C170.989 66.631 167.006 67.6537 162.523 67.6537H162.517ZM162.517 59.7022C165.28 59.7022 167.738 59.0184 169.891 57.6448C172.038 56.2711 173.716 54.4013 174.911 52.0231C176.107 49.6449 176.704 46.8734 176.704 43.7025C176.704 40.5316 176.107 37.7601 174.911 35.3819C173.71 33.0038 172.008 31.1279 169.794 29.7603C167.579 28.3866 165.091 27.7028 162.328 27.7028C159.565 27.7028 157.015 28.3866 154.862 29.7603C152.709 31.1339 151.019 33.0038 149.793 35.3819C148.567 37.7601 147.951 40.5316 147.951 43.7025C147.951 46.8734 148.567 49.6449 149.793 52.0231C151.025 54.4013 152.745 56.2772 154.953 57.6448C157.168 59.0184 159.681 59.7022 162.511 59.7022H162.517Z"
      fill="#F9F7F7" />
    <path d="M6.39845 37.7109H0V6.17142C0 4.36207 1.48219 2.8916 3.30596 2.8916H65.8143V9.23944H6.39845V37.7109Z"
      fill="#F9F7F7" />
    <path d="M197.602 48.8213H204V80.3608C204 82.1702 202.518 83.6406 200.694 83.6406H138.186V77.2928H197.602V48.8213Z"
      fill="#F9F7F7" />
  </g>
  <defs>
    <clipPath id="clip0_308_2987">
      <rect width="204" height="83" fill="white" transform="translate(0 0.634766)" />
    </clipPath>
  </defs>
</svg>