<svg width="161" height="33" viewBox="0 0 161 33" fill="none" xmlns="http://www.w3.org/2000/svg">
<path d="M14.8588 4.10489C15.5942 2.62478 17.7056 2.62478 18.441 4.10489L20.9062 9.06643C21.1974 9.65256 21.757 10.0591 22.4044 10.155L27.8849 10.9663C29.5198 11.2083 30.1723 13.2164 28.9918 14.3731L25.0349 18.2508C24.5675 18.7089 24.3537 19.3668 24.4626 20.0121L25.3846 25.4751C25.6596 27.1048 23.9515 28.3458 22.4865 27.5806L17.5759 25.0157C16.9957 24.7126 16.3041 24.7126 15.7239 25.0157L10.8133 27.5806C9.34833 28.3458 7.64017 27.1048 7.91521 25.4751L8.83717 20.0121C8.94609 19.3668 8.73235 18.7089 8.2649 18.2508L4.30797 14.3731C3.12755 13.2164 3.78001 11.2083 5.41493 10.9663L10.8954 10.155C11.5428 10.0591 12.1024 9.65256 12.3936 9.06643L14.8588 4.10489Z" fill="#FEA500"/>
<path d="M46.8588 4.10489C47.5942 2.62478 49.7056 2.62478 50.441 4.10489L52.9062 9.06643C53.1974 9.65256 53.757 10.0591 54.4044 10.155L59.8849 10.9663C61.5198 11.2083 62.1723 13.2164 60.9918 14.3731L57.0349 18.2508C56.5675 18.7089 56.3537 19.3668 56.4626 20.0121L57.3846 25.4751C57.6596 27.1048 55.9515 28.3458 54.4865 27.5806L49.5759 25.0157C48.9957 24.7126 48.3041 24.7126 47.7239 25.0157L42.8133 27.5806C41.3483 28.3458 39.6402 27.1048 39.9152 25.4751L40.8372 20.0121C40.9461 19.3668 40.7323 18.7089 40.2649 18.2508L36.308 14.3731C35.1276 13.2164 35.78 11.2083 37.4149 10.9663L42.8954 10.155C43.5428 10.0591 44.1024 9.65256 44.3936 9.06643L46.8588 4.10489Z" fill="#FEA500"/>
<path d="M78.8588 4.10489C79.5942 2.62478 81.7056 2.62478 82.441 4.10489L84.9062 9.06643C85.1974 9.65256 85.757 10.0591 86.4044 10.155L91.8849 10.9663C93.5198 11.2083 94.1723 13.2164 92.9918 14.3731L89.0349 18.2508C88.5675 18.7089 88.3537 19.3668 88.4626 20.0121L89.3846 25.4751C89.6596 27.1048 87.9515 28.3458 86.4865 27.5806L81.5759 25.0157C80.9957 24.7126 80.3041 24.7126 79.7239 25.0157L74.8133 27.5806C73.3483 28.3458 71.6402 27.1048 71.9152 25.4751L72.8372 20.0121C72.9461 19.3668 72.7323 18.7089 72.2649 18.2508L68.308 14.3731C67.1276 13.2164 67.78 11.2083 69.4149 10.9663L74.8954 10.155C75.5428 10.0591 76.1024 9.65256 76.3936 9.06643L78.8588 4.10489Z" fill="#FEA500"/>
<path d="M110.859 4.10489C111.594 2.62478 113.706 2.62478 114.441 4.10489L116.906 9.06643C117.197 9.65256 117.757 10.0591 118.404 10.155L123.885 10.9663C125.52 11.2083 126.172 13.2164 124.992 14.3731L121.035 18.2508C120.567 18.7089 120.354 19.3668 120.463 20.0121L121.385 25.4751C121.66 27.1048 119.951 28.3458 118.487 27.5806L113.576 25.0157C112.996 24.7126 112.304 24.7126 111.724 25.0157L106.813 27.5806C105.348 28.3458 103.64 27.1048 103.915 25.4751L104.837 20.0121C104.946 19.3668 104.732 18.7089 104.265 18.2508L100.308 14.3731C99.1276 13.2164 99.78 11.2083 101.415 10.9663L106.895 10.155C107.543 10.0591 108.102 9.65256 108.394 9.06643L110.859 4.10489Z" fill="#FEA500"/>
<path d="M142.859 4.10489C143.594 2.62478 145.706 2.62478 146.441 4.10489L148.906 9.06643C149.197 9.65256 149.757 10.0591 150.404 10.155L155.885 10.9663C157.52 11.2083 158.172 13.2164 156.992 14.3731L153.035 18.2508C152.567 18.7089 152.354 19.3668 152.463 20.0121L153.385 25.4751C153.66 27.1048 151.951 28.3458 150.487 27.5806L145.576 25.0157C144.996 24.7126 144.304 24.7126 143.724 25.0157L138.813 27.5806C137.348 28.3458 135.64 27.1048 135.915 25.4751L136.837 20.0121C136.946 19.3668 136.732 18.7089 136.265 18.2508L132.308 14.3731C131.128 13.2164 131.78 11.2083 133.415 10.9663L138.895 10.155C139.543 10.0591 140.102 9.65256 140.394 9.06643L142.859 4.10489Z" fill="#FEA500"/>
</svg>
