<svg width="54" height="54" viewBox="0 0 54 54" fill="none" xmlns="http://www.w3.org/2000/svg">
<path d="M50.4699 27.5521C50.4699 25.8296 50.3153 24.1733 50.0282 22.5833H27.1499V31.9908H40.2232C39.6491 35.0163 37.9266 37.5779 35.3428 39.3004V45.4175H43.2266C47.8199 41.1775 50.4699 34.95 50.4699 27.5521Z" fill="#4285F4"/>
<path d="M27.1497 51.2917C33.7084 51.2917 39.2072 49.1275 43.2264 45.4175L35.3426 39.3004C33.1784 40.7579 30.418 41.6412 27.1497 41.6412C20.8339 41.6412 15.4676 37.3792 13.5464 31.6375H5.46387V37.9092C9.46095 45.8371 17.6539 51.2917 27.1497 51.2917Z" fill="#34A853"/>
<path d="M13.5467 31.6154C13.0609 30.1579 12.7738 28.6121 12.7738 27C12.7738 25.3879 13.0609 23.8421 13.5467 22.3846V16.1129H5.46423C3.80798 19.3812 2.8584 23.0691 2.8584 27C2.8584 30.9308 3.80798 34.6187 5.46423 37.8871L11.758 32.9846L13.5467 31.6154Z" fill="#FBBC05"/>
<path d="M27.1497 12.3808C30.7272 12.3808 33.9072 13.6175 36.4468 16.0025L43.403 9.04626C39.1851 5.11543 33.7085 2.70834 27.1497 2.70834C17.6539 2.70834 9.46095 8.16293 5.46387 16.1129L13.5464 22.3846C15.4676 16.6429 20.8339 12.3808 27.1497 12.3808Z" fill="#EA4335"/>
</svg>
