<svg width="93" height="96" viewBox="0 0 93 96" fill="none" xmlns="http://www.w3.org/2000/svg">
<path d="M40.794 14.5852C39.4382 13.2892 38.5332 11.593 38.2116 9.74513C38.1397 9.26676 38.2598 8.77935 38.5457 8.38912C38.8315 7.99889 39.2601 7.73747 39.7379 7.66185C40.2157 7.58622 40.704 7.70244 41.0964 7.9853C41.4888 8.26817 41.7536 8.69467 41.8329 9.17187C42.0445 10.2649 42.5847 11.2673 43.3812 12.0452L40.794 14.5852Z" fill="black"/>
<path d="M39.2775 42.6557L35.4137 47.207L31.211 51.4428L26.9286 55.6045L22.4228 59.4467L18.3298 54.9305L14.2162 50.3765L9.44986 46.4242L5.37269 41.8111L1.21854 37.2009L4.80403 32.9487L8.89205 29.2757L12.4019 25.0647L16.5697 21.466L20.2975 17.4206L24.1731 13.7361L29.5979 13.4834L35.0929 14.1147L40.6338 14.4168L46.3597 14.5003L46.3632 15.136" stroke="black" stroke-width="0.5" stroke-linecap="round" stroke-linejoin="round"/>
<path d="M85.7806 91.7079C86.3385 90.6088 87.051 89.5235 87.5312 88.4079C87.8407 87.4359 88.0056 86.4237 88.0207 85.4037C87.9913 83.8418 87.6067 82.307 86.8961 80.9158C85.8923 78.7167 84.1682 76.8517 83.1643 74.6526C82.1605 72.4534 81.4034 70.1491 80.3995 67.95C79.3957 65.7508 78.506 63.5091 77.5021 61.3099C76.4769 59.0537 75.1109 56.964 74.0665 54.7085C73.0221 52.453 72.6422 49.9231 71.617 47.6669C70.9054 46.0932 71.7367 44.5604 70.0557 44.9676C66.9032 45.7166 67.2154 46.3605 64.3421 47.9088C61.4688 49.4571 59.7902 47.7832 58.7254 50.8659C57.6607 53.9486 59.3961 53.9827 60.6798 57.0003C61.9636 60.018 62.7223 59.6824 64.0067 62.7193C65.2898 65.7177 63.4687 67.0549 65.9165 69.2214C67.3697 70.5181 68.4187 67.5322 70.0003 68.6508C71.958 70.045 72.5567 70.6209 72.0829 72.9887C71.673 74.9881 69.1668 73.3439 68.4647 75.2574C67.9743 76.6238 68.9551 77.1089 70.2672 77.6976C72.0289 78.4629 72.3572 76.8712 73.9189 77.9712C75.6586 79.1998 76.0175 79.5336 75.8048 81.6608C75.6525 83.3234 74.651 82.8006 73.8946 84.2729C74.1303 85.5091 74.4966 86.7167 74.9874 87.8755C75.6292 89.0703 76.6181 90.0426 77.8237 90.664C78.5901 91.0797 79.1985 91.9249 80.035 92.1454C81.0852 92.416 82.2377 92.3168 83.288 92.5873C84.4163 92.8879 85.2404 92.762 85.7806 91.7079ZM59.7352 51.6197C60.0765 51.615 60.4168 51.5834 60.7531 51.5253C61.0981 51.4744 61.4623 51.4228 61.8066 51.3526C62.5095 51.225 63.2047 51.0586 63.889 50.854C65.2593 50.4395 66.5772 49.8685 67.8166 49.1522C68.3265 48.8641 68.8165 48.5575 69.3058 48.2316C69.7404 47.8617 70.2054 47.5292 70.696 47.2376C70.8101 47.1949 70.9255 47.1908 70.8919 47.3269C70.8933 47.3653 70.65 47.5668 70.6136 47.6259C70.4109 47.8837 70.1889 48.1421 69.9663 48.3813C69.5222 48.8756 69.0429 49.3371 68.5322 49.7623C67.5057 50.6206 66.3547 51.3181 65.1188 51.831C64.6817 52.0008 64.2446 52.1708 63.7869 52.3028C64.5231 52.9508 65.2401 53.5994 65.9763 54.2474C64.7281 53.8298 63.4992 53.4114 62.2702 52.993C63.6335 55.0058 64.9775 57.0194 66.3208 59.0137C65.4863 58.3114 64.6511 57.59 63.8166 56.8877C65.3556 59.9739 66.3549 63.3008 66.771 66.7243C64.4475 61.5801 62.0583 56.7523 59.735 51.6138L59.7352 51.6197ZM83.7299 81.8196C83.7255 81.7675 83.7316 81.715 83.7481 81.6655C83.7645 81.6159 83.7908 81.5702 83.8254 81.5311C83.8601 81.492 83.9023 81.4603 83.9496 81.4381C83.9968 81.4158 84.0481 81.4034 84.1003 81.4016C84.1521 81.3997 84.2038 81.4081 84.2524 81.4263C84.301 81.4444 84.3455 81.4718 84.3834 81.5072C84.4214 81.5425 84.452 81.5849 84.4735 81.632C84.4951 81.6792 84.5071 81.7302 84.509 81.782C84.5108 81.8338 84.5025 81.8854 84.4844 81.934C84.4663 81.9826 84.4388 82.0271 84.4035 82.0651C84.3682 82.103 84.3257 82.1336 84.2786 82.1552C84.2314 82.1767 84.1805 82.1888 84.1287 82.1907C84.0776 82.1925 84.0267 82.1841 83.979 82.1661C83.9312 82.148 83.8875 82.1207 83.8503 82.0856C83.8132 82.0506 83.7835 82.0086 83.7628 81.9619C83.7421 81.9152 83.7308 81.8649 83.7297 81.8138L83.7299 81.8196ZM82.9124 83.7372C82.9014 83.4293 83.1034 83.1523 83.3343 83.1441C83.5653 83.1358 83.7866 83.3976 83.7976 83.7055C83.8181 83.7726 83.8229 83.8436 83.8116 83.9129C83.8003 83.9822 83.7732 84.048 83.7324 84.1052C83.6917 84.1624 83.6383 84.2095 83.5764 84.2428C83.5146 84.276 83.4459 84.2946 83.3757 84.2971C83.3056 84.2996 83.2357 84.286 83.1717 84.2573C83.1076 84.2285 83.051 84.1854 83.0062 84.1313C82.9614 84.0772 82.9297 84.0135 82.9134 83.9451C82.8972 83.8768 82.8968 83.8057 82.9124 83.7372Z" fill="black"/>
<path d="M53.712 12.0741C56.2715 11.546 58.9103 11.5318 61.4753 12.0321C64.0403 12.5325 66.4803 13.5375 68.6537 14.9887C70.9674 16.3177 72.9737 18.1212 74.5408 20.2808C76.1078 22.4404 77.2002 24.9072 77.746 27.519C78.2919 30.1309 78.2788 32.8286 77.7078 35.435C77.1368 38.0415 76.0206 40.4976 74.4327 42.642C73.1031 44.9662 71.2906 46.9783 69.1173 48.5425C66.9441 50.1067 64.4606 51.1868 61.8345 51.7097C59.2084 52.2326 56.5006 52.1862 53.8939 51.5737C51.2872 50.9612 48.8422 49.7968 46.7238 48.1591C44.5566 46.7153 42.6993 44.8538 41.2606 42.6833C39.8218 40.5129 38.8306 38.0772 38.3448 35.5189C37.833 32.9838 37.8355 30.3717 38.3522 27.8376C38.8689 25.3035 39.8894 22.899 41.353 20.7667" stroke="black" stroke-width="0.5" stroke-linecap="round" stroke-linejoin="round"/>
<path d="M41.0889 21.1831C40.9939 21.1159 40.9283 21.0148 40.9053 20.9007C40.8884 20.8649 40.8804 20.8255 40.882 20.7859C40.8744 20.6903 40.8979 20.5947 40.9493 20.5137C43.6007 16.2655 47.755 13.1719 52.5849 11.849C52.6173 11.9552 52.6405 12.0639 52.6543 12.174C52.6962 12.2843 52.7199 12.4005 52.7245 12.5183C52.758 12.6043 52.7806 12.6941 52.7919 12.7857C51.5212 13.1251 50.2913 13.6021 49.1241 14.2084C46.1279 15.8237 43.5928 18.1762 41.7583 21.0435C41.6868 21.1492 41.5769 21.2228 41.4519 21.2489C41.3269 21.275 41.1967 21.2514 41.0889 21.1831Z" fill="black"/>
<path d="M61.7561 51.541C64.3728 51.0158 66.859 49.9754 69.0699 48.4803C71.2808 46.9853 73.1723 45.0654 74.6342 42.8324C76.0962 40.5995 77.0994 38.0981 77.5855 35.4737C78.0716 32.8494 78.031 30.1547 77.4658 27.5462C76.4765 22.8973 73.8819 18.745 70.1372 15.8176C66.3926 12.8903 61.7368 11.3748 56.9865 11.5369C55.8772 11.5699 54.7729 11.6998 53.6862 11.9251C53.5632 11.946 53.4418 11.9761 53.3233 12.0152C53.3503 12.2322 53.3582 12.4512 53.3468 12.6695C54.0927 12.8713 54.7964 13.2049 55.4247 13.6547C55.9177 14.0078 56.3605 14.4262 56.7411 14.8984C57.3061 15.4505 57.6773 16.1707 57.7991 16.9513C57.9209 17.7318 57.7868 18.5309 57.4168 19.2289C57.2286 19.4908 56.9868 19.7097 56.7076 19.871C55.8586 20.2455 54.9212 20.373 54.0029 20.2389C53.0847 20.1049 52.2229 19.7148 51.5164 19.1132C51.0395 18.7625 50.6047 18.3577 50.2206 17.9072C48.4537 19.2301 46.9163 20.8346 45.6702 22.6565C44.581 24.1949 43.8791 25.9734 43.6241 27.841C43.3691 29.7086 43.5686 31.61 44.2055 33.384C44.448 32.6238 44.6713 31.8643 44.9137 31.1042C45.0161 30.7344 45.1369 30.3446 45.2585 29.9742C45.31 29.7989 45.3609 29.6044 45.4316 29.4285C45.5195 29.1941 45.7869 29.1267 45.8543 29.394C45.9193 29.6904 45.9559 29.9924 45.9638 30.2958C46.0429 30.8903 46.1606 31.4834 46.2782 32.0765C46.5186 33.2556 46.8436 34.416 47.2507 35.5485C48.0687 37.8171 49.1961 39.9617 50.601 41.9218C50.7632 42.1472 50.9248 42.3533 51.1063 42.578C51.0498 42.0791 51.0126 41.5795 50.9561 41.0805C50.9478 40.8496 50.9196 40.6001 50.8914 40.3506C50.8866 40.2159 50.7944 39.7953 51.0047 39.7492C51.1772 39.7237 51.4419 40.1188 51.5422 40.2308C51.9437 40.6788 52.383 41.1063 52.8216 41.5144C53.7085 42.352 54.6505 43.1293 55.6412 43.8411C56.5242 44.4467 57.4383 45.0057 58.3797 45.5156C58.2133 45.1747 58.0462 44.8145 57.8791 44.4544C57.8152 44.2833 57.732 44.1129 57.6488 43.9425C57.6069 43.8477 57.479 43.5053 57.5718 43.4057C57.6645 43.306 57.9601 43.4881 58.0769 43.5224C58.4866 43.6619 58.9141 43.7622 59.3416 43.8624C60.1959 44.0254 61.0631 44.1103 61.9327 44.1162C63.6833 44.1075 65.4139 43.7438 67.0199 43.0472C68.1151 42.5662 69.1368 41.9328 70.0546 41.1656C69.9845 41.3608 70.3659 41.2507 70.2367 41.4095C68.7528 43.3072 66.8648 44.8506 64.7098 45.9275C62.5549 47.0045 60.1872 47.588 57.7786 47.6355C55.37 47.6831 52.981 47.1936 50.7852 46.2026C48.5895 45.2116 46.642 43.7439 45.0842 41.9063C43.5265 40.0686 42.3976 37.907 41.7796 35.5786C41.1616 33.2502 41.0699 30.8134 41.5113 28.4451C41.9526 26.0769 42.9159 23.8366 44.3312 21.8871C45.7464 19.9376 47.5782 18.3278 49.6933 17.1746C49.1517 16.3589 48.931 15.3717 49.0736 14.403C49.0907 14.3446 49.1072 14.2668 49.1244 14.2084C49.1952 13.9605 49.3109 13.7278 49.4658 13.5218C49.5625 13.3948 49.675 13.2808 49.8005 13.1822C46.243 14.7675 43.2179 17.3447 41.0877 20.6052C41.0334 20.7035 40.9599 20.8024 40.9056 20.9007C39.4962 23.066 38.5302 25.4892 38.0632 28.0301C37.5963 30.5711 37.6378 33.1795 38.1854 35.7043C38.733 38.2292 39.7757 40.6204 41.2533 42.7397C42.731 44.8589 44.6141 46.6642 46.7939 48.051C51.1271 51.1393 56.5037 52.3934 61.7561 51.541ZM72.8789 27.5183C73.1631 27.7516 73.3802 28.0564 73.5079 28.4013C73.5825 28.6042 73.6147 28.8203 73.6025 29.0361C73.5904 29.252 73.5342 29.463 73.4373 29.6563C73.3425 29.8461 73.1926 30.0027 73.0071 30.1056C72.8217 30.2086 72.6095 30.253 72.3983 30.2331C72.2395 30.2091 72.0898 30.1436 71.9644 30.0432C71.839 29.9428 71.7423 29.8111 71.6841 29.6614C71.5582 29.3769 71.7561 28.9844 71.8227 28.693C71.8487 28.6111 71.8456 28.5226 71.8137 28.4428C71.7932 28.4034 71.7651 28.3683 71.731 28.3398C71.697 28.3113 71.6576 28.2898 71.6151 28.2766C71.5146 28.1992 71.4397 28.0935 71.4002 27.973C71.3607 27.8525 71.3583 27.7229 71.3935 27.6011C71.4286 27.4793 71.4996 27.3708 71.5972 27.2899C71.6947 27.209 71.8145 27.1593 71.9407 27.1473C72.2886 27.1502 72.623 27.2825 72.8789 27.5183ZM69.5678 29.2172C69.2581 29.2763 68.9376 29.2116 68.675 29.0372C68.178 28.6119 68.5221 27.4626 69.0673 28.156C69.1683 28.2873 69.2515 28.4577 69.4268 28.5092C69.551 28.5212 69.6742 28.5426 69.7952 28.5731C70.1408 28.7534 69.8352 29.1498 69.5678 29.2172ZM69.4701 24.8852C69.5455 24.9699 69.6512 25.0214 69.7643 25.0287C69.8605 25.0253 69.954 24.9449 70.0687 24.9215C70.1181 24.9197 70.1669 24.9326 70.209 24.9585C70.2511 24.9845 70.2845 25.0223 70.3052 25.0672C70.3564 25.1465 70.3802 25.2404 70.3726 25.3345C70.3658 25.4412 70.3371 25.5452 70.2885 25.6403C70.2398 25.7354 70.1722 25.8195 70.0898 25.8875C70.0073 25.9554 69.9119 26.0057 69.8092 26.0354C69.7066 26.065 69.599 26.0734 69.493 26.0598C69.424 26.0544 69.3588 26.0257 69.3081 25.9786C69.2574 25.9314 69.2242 25.8685 69.2139 25.8C69.225 25.713 69.2479 25.6279 69.2819 25.5471C69.2615 25.4169 69.2109 25.2933 69.1341 25.1862C69.0958 25.1349 69.0773 25.0714 69.0821 25.0075C69.0869 24.9436 69.1146 24.8836 69.1601 24.8385C69.2543 24.7773 69.3718 24.8309 69.4701 24.8852ZM62.6536 40.044C62.5364 40.0094 62.428 39.9502 62.3354 39.8705C62.2429 39.7908 62.1683 39.6923 62.1168 39.5815L61.3866 38.0277C60.5495 38.4019 59.6746 38.6853 58.7771 38.8729C57.923 39.0417 57.0507 39.0988 56.1819 39.0431C55.9371 39.0369 55.6996 38.9582 55.4994 38.8171C55.3267 38.6865 55.2042 38.5003 55.1529 38.2899C55.1062 38.0847 55.1186 37.8706 55.1885 37.6721C55.2682 37.4729 55.4112 37.3052 55.5953 37.195C55.8256 37.0579 56.0922 36.9946 56.3595 37.0135C57.0801 37.0624 57.804 37.0169 58.5128 36.8783C59.4799 36.7069 60.4167 36.3941 61.2927 35.95C62.0008 35.6317 62.6551 35.2052 63.232 34.6857C63.6232 34.3307 63.9071 33.8733 64.0517 33.3653C64.1645 32.9225 64.1205 32.4542 63.9271 32.0402C63.7786 31.708 63.5335 31.4281 63.2238 31.2369C62.8621 31.059 62.4617 30.974 62.0588 30.9897C61.436 31.0247 60.8191 31.1309 60.2204 31.3062L57.6054 31.9974C56.3738 32.3928 55.0592 32.4534 53.7965 32.1727C53.3024 32.0197 52.8474 31.7616 52.4624 31.4163C52.0775 31.0709 51.7719 30.6463 51.5665 30.1717C51.1931 29.4046 51.0678 28.5404 51.208 27.6989C51.3926 26.8018 51.7999 25.9654 52.3924 25.267C53.0183 24.5493 53.7666 23.9484 54.6024 23.4921L53.8296 21.8242C53.776 21.7064 53.7476 21.5787 53.7463 21.4493C53.745 21.3199 53.7708 21.1918 53.8219 21.0729C53.9354 20.8148 54.1409 20.6082 54.3984 20.4934C54.6484 20.3669 54.9377 20.3428 55.2053 20.4259C55.3302 20.4533 55.4471 20.5091 55.5469 20.589C55.6467 20.669 55.7267 20.771 55.7806 20.887L56.5534 22.5549C57.2161 22.2855 57.9074 22.0926 58.6139 21.98C59.471 21.8448 60.3451 21.8591 61.1974 22.0221C61.4213 22.059 61.6277 22.1663 61.7864 22.3285C61.9249 22.4641 62.0071 22.647 62.0168 22.8405C62.0454 23.0333 62.012 23.2302 61.9214 23.4027C61.821 23.5985 61.6565 23.7541 61.4555 23.8434C61.2088 23.9736 60.9279 24.0241 60.6513 23.9879C59.991 23.9181 59.3243 23.9355 58.6685 24.0398C57.8762 24.1879 57.1076 24.4423 56.3834 24.7962C55.429 25.1767 54.6224 25.8543 54.0827 26.7286C53.8701 27.0591 53.7463 27.4389 53.7232 27.8313C53.7002 28.2236 53.7787 28.6153 53.9512 28.9684C54.0578 29.2262 54.223 29.4557 54.4335 29.6388C54.6441 29.8218 54.8943 29.9534 55.1645 30.0232C55.9412 30.1593 56.7395 30.1042 57.4902 29.8627L60.1615 29.1309C61.434 28.719 62.7903 28.6372 64.1031 28.8931C64.5849 29.0144 65.0316 29.2465 65.4079 29.5708C65.7841 29.8952 66.0795 30.3029 66.2705 30.7614C66.607 31.5079 66.6911 32.3436 66.5101 33.1421C66.3115 33.9882 65.8943 34.7672 65.3002 35.4014C64.7101 36.0604 64.0219 36.6246 63.26 37.074L64.0115 38.6849C64.0601 38.7973 64.0856 38.9182 64.0867 39.0406C64.0878 39.163 64.0643 39.2845 64.0178 39.3977C63.8973 39.6465 63.6929 39.8448 63.4405 39.9578C63.1947 40.0814 62.9125 40.1121 62.6459 40.0442L62.6536 40.044ZM51.6821 12.4595C52.0308 12.4426 52.3802 12.4623 52.7248 12.5184C52.7201 12.4006 52.6964 12.2843 52.6546 12.1741C52.3302 12.2628 52.0058 12.3515 51.6821 12.4595Z" fill="black"/>
<path d="M52.2559 18.258C52.0821 18.092 51.9432 17.8931 51.8472 17.6728C51.7512 17.4525 51.7001 17.2152 51.6969 16.9749C51.6936 16.7346 51.7383 16.4962 51.8283 16.2734C51.9183 16.0505 52.0518 15.8478 52.221 15.6772C52.9734 14.8594 53.3772 13.7803 53.3463 12.6695C53.3577 12.4511 53.3498 12.2321 53.3228 12.0151C53.2878 11.5714 53.1943 11.1342 53.0449 10.7148C52.635 9.64573 52.0168 8.66874 51.2263 7.84041C50.4358 7.01209 49.4886 6.34901 48.4398 5.88961C47.6624 5.51798 46.8143 5.31756 45.9527 5.30195C45.0912 5.28634 44.2363 5.45587 43.4459 5.79909C42.8603 6.12916 42.3911 6.63221 42.1024 7.23933C41.8138 7.84644 41.7198 8.52788 41.8335 9.19044C41.8942 9.66603 41.7659 10.1464 41.4762 10.5285C41.1866 10.9105 40.7587 11.1637 40.2844 11.2337C39.8101 11.3037 39.3272 11.1849 38.9395 10.9028C38.5518 10.6208 38.2902 10.198 38.2109 9.72518C37.9807 8.3212 38.192 6.88041 38.8157 5.60167C39.4394 4.32294 40.4447 3.2693 41.6928 2.58632C42.9681 1.96055 44.368 1.62994 45.7886 1.61896C47.2092 1.60799 48.6141 1.91693 49.899 2.52293C51.4171 3.18378 52.7856 4.14542 53.9217 5.34987C55.0579 6.55432 55.9381 7.97661 56.5092 9.53071C56.7321 10.1826 56.8917 10.8544 56.986 11.5368C57.1116 12.6629 57.0284 13.8025 56.7405 14.8984C56.4931 15.7844 56.0927 16.6205 55.5575 17.3687C55.3496 17.6794 55.1078 17.9659 54.8366 18.2231C54.6706 18.3969 54.4717 18.5359 54.2514 18.6319C54.0311 18.7279 53.7938 18.779 53.5535 18.7822C53.3133 18.7854 53.0748 18.7407 52.8519 18.6507C52.6291 18.5607 52.4265 18.4273 52.2559 18.258Z" fill="black"/>
<path d="M29.2458 43.6012C29.4753 42.2114 29.7253 42.2506 29.9529 40.8609C30.1805 39.4712 29.8199 39.4108 30.0436 38.0193C30.0912 37.7363 30.5457 37.6756 30.7976 37.5529C32.0728 36.9521 32.0854 36.9806 33.3607 36.3818C34.636 35.783 34.6254 35.7583 35.9006 35.1557C36.0437 35.0651 36.1603 34.9384 36.2388 34.7884C36.3173 34.6383 36.3547 34.4702 36.3475 34.301C36.3403 34.1318 36.2885 33.9676 36.1975 33.8248C36.1065 33.682 35.9795 33.5657 35.8292 33.4877C34.5766 32.8409 34.6685 32.6642 33.416 32.0174C32.1634 31.3706 32.086 31.5237 30.8334 30.875C30.6915 30.8114 30.5654 30.7169 30.4645 30.5986C30.3636 30.4802 30.2903 30.3409 30.25 30.1907C30.0727 28.7943 30.1782 28.7809 30.0008 27.3825C29.8235 25.9842 29.8311 25.9821 29.6537 24.5837C29.5624 23.8644 28.851 23.6933 28.3279 24.2035C27.3252 25.2029 27.1149 24.9831 26.1119 25.9729C25.1088 26.9627 25.1868 27.0409 24.1838 28.0326C24.0801 28.1217 23.9558 28.1832 23.8221 28.2116C23.6884 28.2399 23.5498 28.2343 23.4189 28.195C22.0336 27.9306 22.0079 28.0741 20.6226 27.8098C19.2374 27.5454 19.2599 27.4213 17.8785 27.1568C17.7114 27.1335 17.5412 27.1555 17.3856 27.2205C17.2299 27.2854 17.0946 27.391 16.9937 27.5262C16.8928 27.6613 16.8301 27.8211 16.8121 27.9888C16.794 28.1565 16.8213 28.3259 16.8912 28.4794C17.5144 29.7384 17.6925 29.653 18.3273 30.9116C18.9621 32.1702 18.8029 32.2433 19.4361 33.5096C19.5648 33.7671 19.7524 34.1631 19.615 34.4147C18.9348 35.6492 18.6459 35.49 17.9638 36.7265C17.2818 37.963 17.4054 38.026 16.7252 39.2605C16.6459 39.4072 16.6082 39.5729 16.6161 39.7395C16.624 39.9061 16.6772 40.0674 16.77 40.2061C16.8628 40.3447 16.9917 40.4553 17.1427 40.5261C17.2938 40.5969 17.4613 40.6251 17.6272 40.6077C19.0204 40.3959 19.008 40.3192 20.4013 40.1073C21.7945 39.8955 21.817 40.0373 23.2102 39.8254C23.4958 39.7824 23.8315 39.6874 24.0298 39.898C24.9935 40.9252 25.0288 40.8874 26.0002 41.9161C26.9717 42.9449 26.9995 42.9149 27.9574 43.9422C28.4678 44.4711 29.1328 44.3182 29.2458 43.6012ZM20.0797 30.8795C19.9296 30.616 19.8242 30.3294 19.7679 30.0314C19.7413 29.8821 19.751 29.7285 19.7961 29.5837C19.8412 29.4389 19.9204 29.3071 20.027 29.1993C20.2972 29.012 20.63 28.9378 20.9541 28.9925C21.6282 29.0438 22.2895 29.2049 22.9116 29.4695C23.303 29.6346 23.8241 29.8222 23.9754 30.2772C23.3341 30.1808 22.7122 30.0335 22.0595 29.9933C21.873 29.9595 21.6815 29.9641 21.4968 30.0068C21.3122 30.0496 21.1382 30.1296 20.9855 30.2419C20.8901 30.3432 20.8173 30.4636 20.7719 30.5951C20.7265 30.7266 20.7094 30.8662 20.7219 31.0048C20.7472 31.2818 20.8115 31.554 20.9128 31.8131L21.7181 34.1716L20.0797 30.8795ZM28.223 34.6991C28.1794 34.614 28.0945 34.5553 28.049 34.4702C28.0218 34.4118 28.0111 34.3472 28.018 34.2831C28.0248 34.219 28.0491 34.158 28.088 34.1066C28.1485 34.0294 28.2259 33.9671 28.3143 33.9244C28.4027 33.8818 28.4997 33.86 28.5978 33.8607C28.6959 33.8615 28.7925 33.8848 28.8802 33.9288C28.968 33.9728 29.0444 34.0363 29.1037 34.1145L29.1461 34.1688C29.2072 34.2599 29.2441 34.365 29.2534 34.4742C29.2627 34.5834 29.2441 34.6931 29.1994 34.7932C29.1418 34.904 29.0553 34.9973 28.9492 35.0631C28.8431 35.129 28.7211 35.165 28.5962 35.1674C28.5309 35.1594 28.4688 35.1343 28.4163 35.0946C28.3637 35.0549 28.3226 35.0019 28.2972 34.9412C28.2784 34.8592 28.2549 34.7783 28.2268 34.699L28.223 34.6991ZM27.0476 35.7741L26.8114 35.6362C26.76 35.6104 26.7146 35.574 26.6785 35.5292C26.4651 35.2228 27.0333 34.9982 27.2605 35.1018C27.4877 35.2054 27.4783 35.801 27.1978 35.8246C27.1449 35.8232 27.0939 35.8056 27.0515 35.774L27.0476 35.7741ZM28.26 37.3415L28.0633 37.231C28.0217 37.2103 27.9852 37.1807 27.9562 37.1443C27.7836 36.8981 28.2415 36.7179 28.4237 36.8019C28.6059 36.8859 28.5961 37.3641 28.3732 37.3817C28.3344 37.378 28.2974 37.364 28.2658 37.3413L28.26 37.3415ZM27.5366 41.4524C26.8049 40.9917 26.205 40.3494 25.7952 39.588L26.9999 40.5661C27.3016 40.8115 27.6752 41.0718 28.0467 40.9544C28.1463 40.9178 28.2373 40.861 28.3139 40.7877C28.3905 40.7143 28.4511 40.6258 28.4919 40.5279C28.5582 40.3329 28.5766 40.0971 28.662 39.8995C28.8602 40.0523 28.8284 40.5621 28.8307 40.7856C28.8499 40.9641 28.8132 41.1442 28.7256 41.3009C28.6381 41.4577 28.5039 41.5833 28.3418 41.6605C28.2015 41.6854 28.0573 41.6797 27.9193 41.6438C27.7814 41.6078 27.6528 41.5425 27.5424 41.4522L27.5366 41.4524Z" fill="black"/>
<path d="M23.1406 44.6567L27.1144 48.7532" stroke="black" stroke-width="0.5" stroke-linecap="round" stroke-linejoin="round"/>
<path d="M27.6282 15.9295C29.1488 17.7909 30.7844 19.5553 32.5253 21.2125" stroke="black" stroke-width="0.5" stroke-linecap="round" stroke-linejoin="round"/>
<path d="M25.6431 18.4041L28.5444 21.2346" stroke="black" stroke-width="0.5" stroke-linecap="round" stroke-linejoin="round"/>
<path d="M5.63537 35.9637C5.36331 36.1446 5.14215 36.3922 4.99301 36.683C4.84387 36.9737 4.77175 37.2978 4.78347 37.6243C4.79519 37.9508 4.89037 38.269 5.05997 38.5483C5.22957 38.8276 5.46792 39.0587 5.75226 39.2197L12.96 46.7686L7.70643 38.2093L11.4526 40.1481L8.65792 36.5873C8.41965 36.2837 8.16842 35.8881 8.3351 35.5391C8.56793 35.0471 9.29983 35.2 9.79005 35.4368C10.2803 35.6735 10.9906 35.8677 11.2647 35.3974C10.9552 35.1821 10.6986 34.8994 10.5143 34.5706C10.3299 34.2418 10.2226 33.8754 10.2003 33.4991C10.2728 33.1248 10.4317 32.7727 10.6644 32.4707C11.6873 31.1883 12.5752 29.8037 13.3138 28.3389C12.1925 28.7183 11.0841 30.315 10.2912 31.1451L5.63537 35.9637Z" fill="black"/>
<path d="M89.6726 15.7988C88.522 17.5182 86.9613 18.9239 85.1313 19.8889C83.3427 20.892 81.3694 21.5226 79.3305 21.7427C80.8481 20.4302 82.5174 19.3041 84.3028 18.3887C86.0307 17.4023 87.825 16.5369 89.6726 15.7988Z" fill="black"/>
<path d="M81.9075 13.0117C81.5629 14.2781 81.1257 15.5175 80.5993 16.7198C80.3815 17.3169 80.1182 17.8965 79.8118 18.4534C79.4403 19.0507 78.9098 19.5327 78.2798 19.8456C78.0274 19.1526 78.044 18.3902 78.3264 17.709C78.4493 17.3923 78.615 17.094 78.8187 16.8223C79.0399 16.5863 79.2408 16.3323 79.4196 16.0627C80.1403 14.9618 80.9741 13.9392 81.9075 13.0117Z" fill="black"/>
<path d="M86.6808 23.271C85.6141 23.7746 84.5076 24.1888 83.3725 24.5093C82.8373 24.7065 82.2854 24.8553 81.7236 24.9539C81.0825 25.0198 80.4365 24.8906 79.8701 24.583C80.0245 24.2856 80.2362 24.0216 80.493 23.8064C80.7499 23.5911 81.0467 23.4289 81.3666 23.3289C81.6573 23.2332 81.9607 23.1813 82.2667 23.1751C82.557 23.2025 82.8491 23.205 83.1398 23.1823C84.3197 23.0763 85.5077 23.106 86.6808 23.271Z" fill="black"/>
</svg>
