<svg width="91" height="37" viewBox="0 0 91 37" fill="none" xmlns="http://www.w3.org/2000/svg">
  <g clipPath="url(#clip0_71_2259)">
    <path
      d="M16.5049 29.3874L7.95312 9.0072H11.9392L20.1617 29.3874H16.5021H16.5049ZM16.7497 29.3874L24.9723 9.0072H29.0427L20.4502 29.3874H16.7497Z"
      fill="#F9F7F7" />
    <path
      d="M34.3049 4.68838C33.6736 4.68838 33.1267 4.45099 32.6587 3.97622C32.1935 3.50145 31.9595 2.95114 31.9595 2.3253C31.9595 1.69946 32.1907 1.12218 32.6587 0.674383C33.1267 0.226585 33.6736 0.00268555 34.3049 0.00268555C34.9361 0.00268555 35.5184 0.226585 35.9701 0.674383C36.4217 1.12218 36.6476 1.67249 36.6476 2.3253C36.6476 2.97812 36.4217 3.50145 35.9701 3.97622C35.5184 4.45099 34.9633 4.68838 34.3049 4.68838ZM32.3322 29.3874V9.00721H36.2367V29.3874H32.3322Z"
      fill="#F9F7F7" />
    <path
      d="M48.1596 29.3874L39.6079 9.0072H43.594L51.8165 29.3874H48.1569H48.1596ZM48.4045 29.3874L56.627 9.0072H60.6975L52.1049 29.3874H48.4045Z"
      fill="#F9F7F7" />
    <path
      d="M72.4952 29.8757C70.4382 29.8757 68.6316 29.4198 67.0698 28.5107C65.508 27.6016 64.2809 26.3445 63.3911 24.7395C62.5014 23.1371 62.0552 21.2893 62.0552 19.196C62.0552 17.1026 62.4932 15.2575 63.3721 13.6524C64.2482 12.0501 65.4699 10.793 67.0317 9.88121C68.5935 8.97213 70.3892 8.51624 72.4163 8.51624C74.4434 8.51624 76.2391 8.97213 77.8009 9.88121C79.3627 10.793 80.5817 12.0474 81.4605 13.6524C82.3367 15.2548 82.7747 17.1026 82.7747 19.196C82.7747 21.2893 82.3367 23.1371 81.4605 24.7395C80.5817 26.3418 79.3709 27.5989 77.8227 28.5107C76.2745 29.4198 74.4978 29.8757 72.4979 29.8757H72.4952ZM72.4952 26.3311C73.7278 26.3311 74.8243 26.0262 75.7848 25.4139C76.7425 24.8015 77.4908 23.968 78.0241 22.9078C78.5573 21.8477 78.824 20.6122 78.824 19.1987C78.824 17.7851 78.5573 16.5496 78.0241 15.4895C77.488 14.4293 76.7289 13.5931 75.7412 12.9834C74.7535 12.3711 73.6434 12.0663 72.4109 12.0663C71.1783 12.0663 70.041 12.3711 69.0805 12.9834C68.12 13.5958 67.3663 14.4293 66.8194 15.4895C66.2725 16.5496 65.9977 17.7851 65.9977 19.1987C65.9977 20.6122 66.2725 21.8477 66.8194 22.9078C67.3691 23.968 68.1364 24.8042 69.1213 25.4139C70.109 26.0262 71.23 26.3311 72.4925 26.3311H72.4952Z"
      fill="#F9F7F7" />
    <path d="M2.85421 16.5281H0V2.46831C0 1.66174 0.661175 1.00623 1.47472 1.00623H29.3584V3.83599H2.85421V16.5281Z"
      fill="#F9F7F7" />
    <path d="M88.1457 21.4808H91V35.5406C91 36.3472 90.3388 37.0027 89.5252 37.0027H61.6416V34.1729H88.1457V21.4808Z"
      fill="#F9F7F7" />
  </g>
  <defs>
    <clipPath id="clip0_71_2259">
      <rect width="91" height="37" fill="white" />
    </clipPath>
  </defs>
</svg>