<svg width="366" height="399" viewBox="0 0 366 399" fill="none" xmlns="http://www.w3.org/2000/svg">
<path d="M176.666 56.7278C158.622 52.9931 158.117 55.4774 140.073 51.7592C122.029 48.0411 122.343 46.6169 104.291 42.8904C86.2384 39.164 86.1639 39.4207 68.1031 35.777C66.721 35.3879 65.269 35.3142 63.8545 35.5612C62.44 35.8083 61.0993 36.3698 59.9308 37.2044C58.7624 38.0389 57.7959 39.1254 57.1035 40.3833C56.411 41.6411 56.0101 43.0383 55.9299 44.4719C54.6049 50.9228 53.8597 55.1545 53.3628 58.6325C54.3565 58.6325 55.3502 58.7152 56.4267 58.7152C74.8932 59.3694 74.8104 60.7855 93.1942 61.4397C95.8109 61.5391 97.9891 61.5475 99.9765 61.5309L57.5366 58.1605C67.9542 55.5076 77.8238 51.0424 86.6938 44.969C85.6966 46.4639 84.7816 48.0119 83.9529 49.6063C83.2739 50.7491 81.2944 52.6951 82.843 53.457C84.3612 53.7468 85.9206 53.7468 87.4388 53.457C89.095 53.3631 90.7346 53.1919 92.3577 52.9434C98.808 51.9587 105 49.7073 110.576 46.3188C109.916 49.2501 108.662 52.0148 106.891 54.4423C114.084 54.8091 121.272 53.6111 127.958 50.9311L124.074 56.0902C130.415 56.7087 136.816 56.0756 142.913 54.227C142.06 56.6342 140.435 58.6923 138.292 60.0816C158.044 57.2214 178.164 58.2568 197.518 63.1291C190.788 60.3348 183.805 58.1912 176.666 56.7278Z" fill="#0D4536"/>
<path d="M29.2634 266.981C34.3976 266.981 38.9518 266.898 49.1374 267.23C67.5211 267.892 67.4383 270.708 85.9049 271.37C104.371 272.033 104.372 269.3 122.838 269.962C141.305 270.625 141.304 269.3 159.771 269.879H160.351C178.155 270.625 178.238 273.523 196.456 274.268C214.84 274.848 214.757 277.167 233.223 277.829C251.69 278.492 251.607 278.823 270.073 279.568C288.54 280.313 288.623 274.185 307.006 274.848C313.797 275.096 321.581 272.529 321.746 265.822C322.409 247.19 321.581 247.19 322.244 228.392C322.906 209.594 323.817 209.677 324.479 191.045C325.142 172.413 321.25 172.247 321.912 153.532C322.161 147.321 322.326 143.098 322.492 139.62C322.823 132.83 323.32 128.606 323.734 116.268C323.843 109.688 324.789 103.148 326.549 96.8074C327.539 93.2831 328.232 89.6822 328.62 86.0422" stroke="#0D4536" stroke-width="2" stroke-linecap="round" stroke-linejoin="round"/>
<path d="M15.5996 266.815C14.5231 266.815 13.4468 266.816 12.2046 266.733C10.6597 266.704 9.13677 266.361 7.72804 265.727C6.31931 265.092 5.05374 264.177 4.00859 263.039C2.96343 261.901 2.16007 260.563 1.64722 259.106C1.13437 257.648 0.922798 256.102 1.02504 254.56C1.68751 235.845 3.17823 235.845 3.75789 217.296C4.42037 198.581 2.26702 198.498 2.92949 179.865C3.59197 161.233 0.776507 161.068 1.43898 142.353C1.52991 136.828 2.2241 131.33 3.50922 125.957C5.37923 119.178 6.43562 112.2 6.65603 105.171C6.82164 100.368 6.73875 96.8076 6.57314 93.8264C5.16771 85.1762 4.5029 76.4219 4.58579 67.6586C4.83422 60.8682 12.7838 59.1292 19.4914 59.3776C36.8814 60.0401 37.9582 58.3011 53.3607 58.6324C54.3544 58.6324 55.3481 58.715 56.4246 58.715C74.8912 59.3775 74.8084 60.7854 93.1921 61.4479C111.576 62.1104 111.742 59.3775 130.125 60.04C148.509 60.7025 148.674 58.0527 167.058 58.6324C177.29 59.5662 187.463 61.0588 197.532 63.1039H197.615" stroke="#0D4536" stroke-width="2" stroke-linecap="round" stroke-linejoin="round"/>
<path d="M328.621 86.0422C328.869 84.0547 329.035 81.7361 329.118 79.0862C329.366 72.3786 321.085 66.0022 314.461 65.7537C295.994 65.1741 295.828 68.4865 277.444 67.9069C259.061 67.3272 258.978 66.4162 240.594 65.7537C222.21 65.0912 222.128 64.0975 203.744 63.4351C201.425 63.3523 199.438 63.2694 197.616 63.1038" stroke="#0D4536" stroke-width="2" stroke-linecap="round" stroke-linejoin="round"/>
<path d="M357.853 91.259C342.533 88.1123 340.131 88.1868 328.621 86.042C328.233 89.682 327.54 93.283 326.55 96.8071C324.791 103.151 323.845 109.693 323.735 116.276C323.321 128.614 322.824 132.838 322.493 139.628C322.335 143.106 322.17 147.329 321.913 153.54C321.251 172.255 325.06 172.338 324.48 191.053C323.9 209.768 322.824 209.685 322.253 228.4C321.681 247.115 322.41 247.198 321.747 265.83C321.582 272.537 313.798 275.104 307.007 274.848C288.624 274.193 288.458 280.239 270.074 279.576C251.69 278.914 251.608 278.491 233.232 277.837C214.857 277.183 214.841 274.848 196.457 274.276C178.239 273.531 178.156 270.624 160.352 269.887C163.547 270.962 166.811 271.817 170.123 272.446C188.176 276.181 188.507 274.351 206.559 278.086C224.612 281.82 224.281 283.385 242.333 287.104C260.386 290.822 260.228 291.832 278.272 295.55C296.316 299.268 296.49 298.457 314.543 302.1C318.061 302.617 321.648 301.869 324.666 299.989C327.684 298.108 329.936 295.218 331.022 291.832C334.832 273.448 329.946 272.446 333.755 254.145C337.564 235.844 340.049 236.35 343.858 218.049C347.667 199.748 348.247 199.831 351.973 181.521C355.699 163.212 352.387 162.558 356.113 144.257C359.84 125.956 361.248 126.296 364.974 107.995C366.382 101.362 364.395 92.5757 357.853 91.259ZM337.713 118.462C336.901 117.74 336.321 116.794 336.047 115.743C335.773 114.691 335.818 113.582 336.174 112.556C336.531 111.53 337.184 110.633 338.051 109.978C338.918 109.323 339.959 108.94 341.044 108.877C342.129 108.814 343.207 109.075 344.144 109.626C345.08 110.176 345.832 110.993 346.305 111.971C346.777 112.949 346.948 114.046 346.797 115.122C346.646 116.197 346.18 117.204 345.456 118.015C344.977 118.553 344.397 118.991 343.749 119.305C343.1 119.618 342.396 119.801 341.677 119.843C340.958 119.884 340.238 119.784 339.558 119.547C338.877 119.31 338.251 118.941 337.713 118.462ZM349.389 133.964C348.677 136.307 346.806 137.823 345.199 137.334C343.593 136.846 342.872 134.552 343.543 132.208C344.214 129.865 346.135 128.349 347.733 128.83C349.331 129.31 350.101 131.612 349.389 133.964Z" fill="#0D4536"/>
<path d="M358.987 0.292969C357.18 10.2115 352.932 19.5238 346.624 27.3883C340.562 35.3393 332.957 41.9839 324.265 46.9231C328.505 38.109 333.788 29.8351 339.999 22.2789C345.815 14.5219 352.159 7.17576 358.987 0.292969Z" fill="#0D4536"/>
<path d="M318.831 2.91821C319.734 9.22643 320.177 15.5919 320.157 21.9643C320.344 25.0553 320.291 28.1561 319.999 31.2389C319.493 34.6263 318.06 37.8077 315.858 40.4309C313.386 37.8235 311.98 34.3846 311.917 30.7919C311.855 29.1408 312.016 27.4888 312.397 25.8811C312.933 24.3945 313.343 22.8654 313.623 21.31C314.711 15.0141 316.457 8.84992 318.831 2.91821Z" fill="#0D4536"/>
<path d="M360.122 39.5203C356.319 43.8406 352.165 47.8375 347.7 51.4696C345.689 53.385 343.511 55.117 341.191 56.6452C338.453 58.186 335.312 58.8644 332.182 58.5914C332.296 56.9584 332.734 55.3644 333.468 53.9018C334.203 52.4391 335.221 51.1368 336.463 50.0703C337.576 49.0799 338.828 48.2595 340.181 47.6357C341.533 47.1997 342.844 46.6453 344.098 45.9794C349.175 43.221 354.551 41.0538 360.122 39.5203Z" fill="#0D4536"/>
<path d="M235.377 246.469C250.597 246.469 262.936 234.131 262.936 218.91C262.936 203.69 250.597 191.351 235.377 191.351C220.156 191.351 207.818 203.69 207.818 218.91C207.818 234.131 220.156 246.469 235.377 246.469Z" stroke="#0D4536" stroke-width="2" stroke-linecap="round" stroke-linejoin="round"/>
<path d="M260.086 246.469C275.306 246.469 287.645 234.131 287.645 218.91C287.645 203.69 275.306 191.351 260.086 191.351C244.865 191.351 232.527 203.69 232.527 218.91C232.527 234.131 244.865 246.469 260.086 246.469Z" fill="#0D4536"/>
<path d="M326.567 96.816L6.55792 93.7852C6.72353 96.816 6.81471 100.352 6.64081 105.138C6.43546 112.166 5.38984 119.144 3.52686 125.924L322.526 139.637L336.157 140.225V96.8989L326.567 96.816ZM311.106 126.578C310.945 122.444 309.247 118.52 306.345 115.572C303.42 112.666 299.495 110.986 295.372 110.877C290.551 111.088 285.866 112.537 281.767 115.084C277.687 117.62 273.305 119.637 268.725 121.087C271.577 116.732 273.565 111.868 274.579 106.761C267.628 110.547 260.467 113.934 253.132 116.906C253.921 116.381 254.563 115.664 254.998 114.822C255.433 113.98 255.646 113.041 255.616 112.094C255.45 107.821 251.393 106.604 247.848 106.347C235.965 105.478 224.728 102.77 212.812 102.77H311.86V120.615C311.86 121.783 311.769 122.984 311.86 124.143C311.995 124.641 312.076 125.152 312.1 125.667C311.838 126.039 311.499 126.349 311.106 126.578Z" fill="#0D4536"/>
<path d="M27.7641 361.161C31.116 366.929 35.0599 372.332 39.5315 377.284C43.7722 382.513 48.7416 387.106 54.288 390.922C60.1783 394.275 66.6738 396.428 73.4003 397.257C82.5745 398.309 91.8668 397.512 100.728 394.914C105.274 393.356 109.636 391.307 113.737 388.803C119.67 386.386 125.109 382.903 129.786 378.526C133.691 373.428 136.799 367.765 139.002 361.732C142.03 356.06 144.26 349.996 145.627 343.713C146.043 337.042 145.662 330.345 144.493 323.764C144.068 317.137 143.039 310.562 141.421 304.121C139.814 298.697 136.816 293.787 134.862 288.512C133.388 284.553 132.154 278.301 128.312 275.983C123.418 273.035 111.973 277.308 106.781 278.359C102.839 279.188 96.5373 280.537 94.5334 284.355C93.2457 286.457 92.556 288.87 92.5379 291.336C93.0762 298.88 95.3616 307.475 90.5172 314.042C87.9268 317.483 84.3734 320.076 80.307 321.495C77.9635 322.397 75.9012 324.666 73.4003 324.865C69.517 325.059 65.6444 324.311 62.1121 322.686C58.5797 321.061 55.4925 318.607 53.1124 315.532C49.5599 310.63 52.2261 299.194 45.444 297.049C43.9038 296.569 41.9742 297.712 40.3594 297.878C31.9661 298.326 23.857 301.07 16.9161 305.811C16.1791 306.407 14.9786 306.68 14.49 307.467C13.8702 309.119 13.7211 310.911 14.0594 312.642C14.355 320.999 15.5739 329.297 17.6944 337.386C19.9865 345.721 23.3725 353.715 27.7641 361.161Z" stroke="#0D4536" stroke-width="2" stroke-linecap="round" stroke-linejoin="round"/>
<path d="M63.8779 242.039C62.6864 242.038 61.4966 241.952 60.3171 241.783C60.6484 241.477 62.4701 241.799 63.8779 242.039Z" fill="#0D4536"/>
<path d="M85.9893 231.952C85.9893 243.952 80.8551 253.64 74.5615 253.64C70.1726 253.64 66.3632 249.011 64.5414 242.138C64.7024 242.206 64.8685 242.262 65.0382 242.304C66.3632 242.552 67.6138 242.552 68.8476 242.718C71.7247 243.506 74.2949 245.149 76.2178 247.429C77.0459 248.349 78.0478 249.425 79.1988 249.26C79.8111 249.145 80.3539 248.794 80.7101 248.283C81.0663 247.772 81.2073 247.141 81.1033 246.527C80.8643 245.304 80.2232 244.196 79.2817 243.38C77.7197 241.837 75.8641 240.624 73.8246 239.811C70.6772 238.448 67.1355 238.304 63.8874 239.405C63.3815 236.953 63.132 234.456 63.1424 231.952C63.0984 228.675 63.5448 225.409 64.4671 222.264C66.2061 215.142 70.0979 210.256 74.5696 210.256C80.8217 210.256 85.9893 220.028 85.9893 231.952Z" fill="#0D4536"/>
<path d="M100.265 280.885L120.827 276.356C120.212 276.224 119.634 275.953 119.139 275.564C118.644 275.175 118.244 274.678 117.97 274.112C117.429 272.976 116.726 271.924 115.883 270.99C114.893 270.34 113.779 269.904 112.612 269.709C111.444 269.513 110.249 269.563 109.101 269.855L102.791 270.592C100.759 270.505 98.7264 270.745 96.7709 271.305C95.0568 272.439 99.3711 279.047 100.265 280.885Z" fill="#0D4536"/>
<path d="M50.1833 346.486C50.5284 351.128 51.3044 355.727 52.5017 360.224C53.2382 364.181 54.8638 367.919 57.2553 371.155C59.7396 373.847 61.3956 376.952 63.7723 379.768C65.1117 381.351 66.5766 382.825 68.1528 384.173C68.9809 384.885 71.5648 387.56 72.6744 387.486C64.5162 386.289 57.0337 382.275 51.5247 376.14C45.5108 370.864 40.3609 364.678 36.2628 357.806C29.1163 345.783 19.9658 323.697 29.7538 310.837C27.9959 320.952 29.9829 331.362 35.3434 340.118C36.1967 335.46 38.2391 331.102 41.2726 327.465C41.1264 337.208 42.6934 346.9 45.9018 356.101C47.1191 353.103 48.9246 349.501 50.1833 346.486Z" fill="#0D4536"/>
<path d="M110.192 312.146C110.939 311.683 111.791 311.417 112.669 311.372C113.546 311.327 114.42 311.505 115.211 311.889C116.086 312.385 116.811 313.109 117.308 313.984C117.805 314.859 118.056 315.852 118.034 316.857C117.95 317.375 117.731 317.862 117.4 318.269C117.069 318.676 116.637 318.989 116.147 319.176C115.509 319.408 114.797 319.416 114.184 319.706C113.571 319.996 112.983 320.7 112.288 321.031C111.812 321.231 111.291 321.298 110.781 321.225C110.271 321.152 109.789 320.942 109.389 320.617C108.789 320.109 108.314 319.471 107.999 318.75C107.684 318.03 107.539 317.247 107.574 316.462C107.609 315.676 107.824 314.909 108.202 314.22C108.58 313.531 109.11 312.937 109.753 312.485C109.892 312.362 110.038 312.248 110.192 312.146Z" fill="#0D4536"/>
<path d="M120.387 332.302C120.754 332.029 121.057 331.678 121.273 331.275L122.457 329.412C122.725 329.072 122.884 328.659 122.913 328.228C122.797 325.992 118.068 325.628 117.116 327.516C116.164 329.404 117.87 333.917 120.387 332.302Z" fill="#0D4536"/>
<path d="M133.695 322.448C133.994 322.229 134.241 321.946 134.416 321.62L135.368 320.129C135.578 319.854 135.702 319.522 135.724 319.177C135.633 317.38 131.832 317.09 131.079 318.605C130.325 320.121 131.675 323.756 133.695 322.448Z" fill="#0D4536"/>
<path d="M94.6988 355.811C96.6758 354.326 98.1726 352.292 99.003 349.963C99.8334 347.633 99.961 345.112 99.3694 342.711C97.8802 339.394 95.2526 336.721 91.9624 335.174C88.6721 333.628 84.9369 333.311 81.4333 334.281C77.9296 335.251 74.8892 337.444 72.8627 340.462C70.8362 343.48 69.9576 347.125 70.3861 350.735C71.1159 353.046 72.4881 355.102 74.3431 356.662C76.1981 358.223 78.4588 359.223 80.8611 359.546L85.275 375.354C85.976 376.944 87.2256 378.229 88.7958 378.974C90.366 379.719 92.1519 379.874 93.8269 379.411C95.5019 378.948 96.9544 377.897 97.9188 376.451C98.8832 375.005 99.295 373.261 99.0793 371.536L94.6988 355.811ZM88.2232 378.749C85.7228 370.902 83.8346 362.873 82.5755 354.734C81.3414 355.255 79.9724 355.364 78.6716 355.044C77.3708 354.725 76.2074 353.995 75.3545 352.962C74.538 351.901 74.015 350.644 73.8377 349.317C73.6603 347.99 73.8348 346.64 74.3441 345.402C74.9821 343.928 75.9503 342.62 77.1735 341.579C78.3967 340.538 79.8423 339.792 81.3994 339.398C80.7949 340.351 79.7433 341.054 79.1305 342.073C78.3399 343.301 77.8024 344.675 77.549 346.114C77.2522 347.339 77.4453 348.632 78.0873 349.716C78.4715 350.191 78.9573 350.574 79.5091 350.836C80.0609 351.099 80.6646 351.234 81.2756 351.232C82.4959 351.22 83.7072 351.025 84.8692 350.652C86.023 358.022 87.177 365.398 88.3308 372.779C88.8093 374.745 88.7722 376.801 88.2232 378.749Z" fill="#0D4536"/>
<path d="M73.5688 225.411C70.8601 223.583 67.7194 222.498 64.46 222.264C63.9128 222.168 63.3591 222.113 62.8037 222.099C56.3497 221.723 49.8886 222.708 43.8395 224.989C37.7904 227.27 32.2881 230.797 27.6895 235.341C23.0909 239.885 19.4986 245.345 17.1452 251.366C14.7919 257.387 13.7301 263.836 14.0288 270.294C14.8635 281.465 17.1175 292.485 20.7363 303.087L23.0552 302.093C25.4973 300.044 28.4239 298.656 31.5555 298.062C34.6872 297.467 37.919 297.686 40.9419 298.698C35.0917 288.771 32.0838 277.426 32.247 265.905C32.509 260.181 34.6573 254.705 38.3571 250.33C42.0569 245.954 47.0999 242.926 52.7007 241.716C55.2383 241.541 57.7863 241.568 60.3195 241.799C61.3232 240.758 62.537 239.942 63.8803 239.406C67.1284 238.304 70.6701 238.449 73.8175 239.812C74.6878 239.342 75.4565 238.705 76.0803 237.938C76.7041 237.171 77.1704 236.288 77.4526 235.34C77.8537 233.487 77.6991 231.556 77.0083 229.79C76.3175 228.024 75.1211 226.501 73.5688 225.411ZM20.9188 274.078C19.3951 274.078 18.1526 271.834 18.1526 269.11C18.1526 266.385 19.3951 264.141 20.9188 264.141C22.4425 264.141 23.6926 266.377 23.6926 269.11C23.6926 271.843 22.4508 274.078 20.9188 274.078ZM24.8025 256.978C24.4749 256.978 24.1545 256.881 23.8821 256.699C23.6097 256.517 23.3974 256.258 23.2721 255.956C23.1467 255.653 23.1141 255.32 23.178 254.999C23.2419 254.678 23.3998 254.382 23.6314 254.151C23.863 253.919 24.1578 253.762 24.479 253.698C24.8003 253.634 25.1337 253.667 25.4363 253.792C25.7389 253.917 25.9973 254.129 26.1793 254.402C26.3613 254.674 26.4583 254.994 26.4583 255.322C26.4496 255.755 26.2716 256.168 25.962 256.472C25.6523 256.775 25.2361 256.945 24.8025 256.945V256.978Z" fill="#0D4536"/>
<path d="M28.4456 145.98C29.4331 145.372 30.5573 145.024 31.7152 144.966C32.8731 144.908 34.0272 145.143 35.0703 145.648C36.2299 146.305 37.1908 147.262 37.8511 148.419C38.5115 149.577 38.8467 150.891 38.8216 152.224C38.7153 152.909 38.4295 153.555 37.9932 154.094C37.5569 154.634 36.9857 155.048 36.3374 155.296C35.5093 155.611 34.5404 155.619 33.7289 156C32.9173 156.381 32.1385 157.316 31.2442 157.763C30.611 158.026 29.919 158.115 29.2401 158.018C28.5613 157.922 27.9204 157.646 27.3852 157.217C26.5901 156.54 25.9602 155.69 25.5434 154.733C25.1266 153.775 24.9341 152.735 24.9804 151.692C25.0267 150.649 25.3108 149.63 25.8108 148.713C26.3108 147.796 27.0139 147.006 27.8659 146.402C28.0481 146.245 28.2469 146.104 28.4456 145.98Z" fill="#0D4536"/>
<path d="M41.9912 172.76C42.4787 172.39 42.8823 171.922 43.1754 171.385L44.7488 168.901C45.1016 168.445 45.309 167.894 45.3447 167.319C45.1956 164.355 38.9106 163.866 37.6601 166.375C36.4677 168.777 38.6457 174.962 41.9912 172.76Z" fill="#0D4536"/>
<path d="M59.6799 159.676C60.0734 159.379 60.3981 159 60.6321 158.566L61.8992 156.579C62.1835 156.218 62.3509 155.779 62.3794 155.32C62.2551 152.935 57.2123 152.546 56.202 154.558C55.1917 156.571 56.9968 161.407 59.6799 159.676Z" fill="#0D4536"/>
</svg>
