<svg width="327" height="345" viewBox="0 0 327 345" fill="none" xmlns="http://www.w3.org/2000/svg">
<path d="M278.141 315.013C281.002 312.384 283.09 309.022 284.178 305.292C285.266 301.561 285.313 297.604 284.313 293.849C282.369 286.976 278.474 280.817 276.033 274.134C269.915 257.24 273.477 238.354 279.432 221.399C285.388 204.444 293.709 188.217 297.312 170.602C301.89 148.006 298.327 124.519 287.253 104.297C276.18 84.0751 258.31 68.4222 236.806 60.1082L231.245 58.361C209.051 52.161 185.38 54.0077 164.416 63.5746C143.452 73.1416 126.546 89.8126 116.686 110.64C109.011 126.895 105.972 144.884 100.615 162.043C95.2579 179.202 86.8279 196.476 71.8035 206.341C65.8346 210.264 59.0295 212.867 53.3528 217.218C50.1975 219.361 47.7024 222.341 46.1483 225.824C44.5942 229.307 44.0426 233.154 44.5557 236.934" stroke="#0D4536" stroke-width="2" stroke-linecap="round" stroke-linejoin="round"/>
<path d="M44.6226 236.967C44.1027 233.19 44.6482 229.343 46.1977 225.859C47.7472 222.376 50.239 219.394 53.3923 217.251C59.103 212.9 65.9015 210.317 71.816 206.374C86.8404 196.516 95.3383 179.249 100.641 162.049C105.944 144.849 109.071 126.901 116.753 110.653C124.764 93.6221 137.546 79.2826 153.548 69.3749C169.549 59.4672 188.083 54.4175 206.899 54.8386C215.153 54.904 223.36 56.07 231.305 58.3057L236.88 60.0733C246.325 63.7656 255.151 68.8779 263.054 75.2336V75.3016C276.961 86.5019 287.52 101.312 293.575 118.11C299.63 134.909 300.948 153.049 297.386 170.547C293.782 188.154 285.488 204.402 279.506 221.398C273.523 238.394 269.92 257.226 276.039 274.086C278.486 280.816 282.429 287.002 284.333 293.869C285.337 297.622 285.292 301.578 284.201 305.307C283.11 309.035 281.015 312.392 278.146 315.012" stroke="#0D4536" stroke-width="2" stroke-linecap="round" stroke-linejoin="round"/>
<path d="M278.843 313.467C284.727 296.051 237.158 264.248 172.594 242.432C108.03 220.616 50.92 217.048 45.0354 234.464C39.1508 251.879 86.7199 283.682 151.284 305.498C215.848 327.314 272.958 330.882 278.843 313.467Z" stroke="#0D4536" stroke-width="2" stroke-linecap="round" stroke-linejoin="round"/>
<path d="M173.495 265.643C170.226 269.171 167.813 273.404 166.443 278.015C165.073 282.626 164.783 287.49 165.596 292.231C166.525 296.797 168.551 301.069 171.498 304.678C174.446 308.287 178.227 311.125 182.516 312.947C186.804 314.77 191.472 315.522 196.116 315.139C200.76 314.756 205.241 313.25 209.173 310.75C213.137 308.112 216.433 304.59 218.804 300.461C221.174 296.332 222.552 291.708 222.831 286.955C206.871 278.777 190.39 271.657 173.495 265.643Z" stroke="#0D4536" stroke-width="2" stroke-linecap="round" stroke-linejoin="round"/>
<path d="M238.376 49.8833C240.67 44.0115 241.375 37.6385 240.419 31.4074C239.463 25.1762 236.881 19.3074 232.933 14.393C228.984 9.47865 223.81 5.6926 217.931 3.41687C212.052 1.14115 205.677 0.456271 199.449 1.43134C192.97 2.20193 187.053 5.48846 182.976 10.5819C181.018 13.1567 179.912 16.2785 179.814 19.5118C179.715 22.7451 180.628 25.9286 182.425 28.618C183.403 29.8751 184.634 30.9131 186.038 31.665C187.441 32.4169 188.987 32.866 190.576 32.9833C192.164 33.1005 193.759 32.8833 195.258 32.3457C196.757 31.8081 198.127 30.962 199.279 29.8621C200.647 28.081 201.483 25.9492 201.692 23.7128C201.9 21.4765 201.471 19.2269 200.455 17.2239C198.341 13.2343 194.979 10.0466 190.883 8.14814C173.125 -0.914075 154.246 6.40096 141.751 20.2764C134.626 28.1897 129.051 37.3675 122.253 45.5595C115.853 54.1681 106.901 60.539 96.6709 63.7655" stroke="#0D4536" stroke-width="2" stroke-linecap="round" stroke-linejoin="round"/>
<path d="M125.524 142.531C126.423 131.88 129.426 121.514 134.358 112.031C139.29 102.549 146.054 94.1389 154.258 87.2879C162.463 80.4368 171.944 75.2809 182.154 72.1184C192.364 68.9559 203.099 67.8498 213.74 68.864C197.872 73.4301 182.853 80.5481 169.272 89.9389C176.922 88.6268 184.778 89.2246 192.141 91.6792C176.672 95.1309 161.664 100.395 147.428 107.363C154.374 104.686 162.058 104.642 169.034 107.241C159.503 109.253 150.587 113.502 143.022 119.638C135.457 125.774 129.46 133.621 125.524 142.531Z" fill="#0D4536"/>
<path d="M250.854 227.598C253.482 227.598 255.613 224.758 255.613 221.255C255.613 217.752 253.482 214.912 250.854 214.912C248.226 214.912 246.095 217.752 246.095 221.255C246.095 224.758 248.226 227.598 250.854 227.598Z" fill="#0D4536"/>
<path d="M262.187 243.155C263.565 243.155 264.682 241.243 264.682 238.886C264.682 236.528 263.565 234.616 262.187 234.616C260.809 234.616 259.692 236.528 259.692 238.886C259.692 241.243 260.809 243.155 262.187 243.155Z" fill="#0D4536"/>
<path d="M243.605 245.711C244.983 245.711 246.1 243.227 246.1 240.164C246.1 237.1 244.983 234.616 243.605 234.616C242.227 234.616 241.11 237.1 241.11 240.164C241.11 243.227 242.227 245.711 243.605 245.711Z" fill="#0D4536"/>
<path d="M254.318 304.394C247.316 292.973 211.556 274.073 166.415 258.845C120.051 243.141 79.1924 236.478 67.8392 242.121C66.5245 242.682 65.4773 243.73 64.9159 245.044C61.5168 255.242 101.355 277.948 153.974 295.692C159.005 297.392 163.9 298.955 168.727 300.451C167.238 297.9 166.181 295.121 165.6 292.225C164.782 287.486 165.068 282.623 166.436 278.012C167.803 273.402 170.216 269.169 173.486 265.643C190.389 271.639 206.878 278.748 222.842 286.922C222.561 291.658 221.187 296.265 218.828 300.381C216.469 304.498 213.189 308.012 209.245 310.649C235.215 315.747 253.298 315.747 255.406 309.425C255.618 308.559 255.63 307.656 255.442 306.784C255.253 305.913 254.869 305.095 254.318 304.394ZM77.9892 254.297C76.3168 252.801 74.59 250.782 75.0591 248.58C75.2236 247.969 75.5143 247.401 75.9124 246.91C76.3106 246.419 76.8073 246.018 77.3705 245.731C78.5024 245.168 79.7201 244.798 80.9737 244.636C85.9373 243.778 91.0012 243.666 95.998 244.303C93.0719 245.253 90.3734 246.797 88.0712 248.838C90.6017 249.025 93.0653 249.738 95.3046 250.932L89.6621 254.045C93.6041 256.511 97.8531 258.447 102.3 259.804L98.5474 260.837C105.033 265.371 111.505 270.062 117.984 274.597C103.462 270.496 89.8772 263.605 77.9892 254.31V254.297ZM238.866 303.775C237.628 303.775 236.622 303.238 236.622 302.586C236.622 301.933 237.628 301.396 238.866 301.396C240.103 301.396 241.109 301.926 241.109 302.586C241.109 303.245 240.11 303.789 238.866 303.789V303.775ZM246.201 306.032C245.446 306.032 244.841 305.767 244.841 305.441C244.841 305.115 245.46 304.843 246.201 304.843C246.942 304.843 247.561 305.108 247.561 305.441C247.561 305.774 246.956 306.046 246.201 306.046V306.032Z" fill="#0D4536"/>
<path d="M191.027 308.302C187.953 308.207 184.938 307.443 182.191 306.063C179.443 304.683 177.03 302.721 175.119 300.312C173.207 297.904 171.844 295.108 171.125 292.119C170.405 289.13 170.346 286.02 170.951 283.005C175.024 293.22 182.004 302.016 191.027 308.302Z" fill="#0D4536"/>
<path d="M251.118 67.0358C255.277 69.4818 259.255 72.2217 263.022 75.2346C264.515 70.966 265.075 66.427 264.664 61.9237C264.254 57.4204 262.882 53.0574 260.643 49.1289C257.28 44.3285 252.633 40.5713 247.235 38.2871C241.837 36.0029 235.906 35.2838 230.118 36.212C225.016 37.1988 220.226 39.4008 216.155 42.6315C212.084 45.8622 208.852 50.0265 206.732 54.7715L206.868 54.8395C211.652 54.8863 216.426 55.3068 221.144 56.0972L220.186 55.7437C221.369 53.0928 223.173 50.7653 225.445 48.9574C227.717 47.1496 230.39 45.9143 233.239 45.3558C236.471 44.8435 239.782 45.25 242.794 46.529C245.807 47.808 248.399 49.9079 250.275 52.5893C251.527 54.7894 252.295 57.2308 252.53 59.751C252.764 62.2713 252.459 64.8125 251.635 67.2057L251.118 67.0358ZM261.996 60.7473C262.288 60.7473 262.526 61.2708 262.526 61.9166C262.526 62.5625 262.288 63.0791 261.996 63.0791C261.703 63.0791 261.472 62.5557 261.472 61.9166C261.472 61.2776 261.676 60.7473 261.962 60.7473H261.996ZM258.549 53.3847C259.324 53.3847 259.956 54.35 259.956 55.5466C259.956 56.7431 259.324 57.7084 258.549 57.7084C257.774 57.7084 257.148 56.7431 257.148 55.5466C257.148 54.35 257.74 53.3847 258.515 53.3847H258.549Z" fill="#0D4536"/>
<path d="M298.61 11.2623L298.923 10.97C299.567 16.1428 299.337 21.3871 298.243 26.4838C297.4 31.569 296.306 36.627 295.191 41.6578C296.42 40.9079 297.715 40.2708 299.059 39.7542C300.371 39.0064 301.636 38.1838 302.887 37.3408C305.395 35.648 307.836 33.8533 310.433 32.2964C311.706 31.5212 313.028 30.8286 314.39 30.2229C315.042 29.9329 315.709 29.6765 316.388 29.4547C317.748 29.006 317.265 30.2773 317.068 31.2223C316.442 33.8498 315.53 36.4008 314.349 38.8297C312.915 41.812 311.237 44.6703 309.331 47.3752C308.4 48.7349 307.496 50.1489 306.544 51.5086C306.082 52.1884 304.335 54.2279 303.397 53.99C308.862 55.4584 314.287 57.0719 319.672 58.8304C322.032 59.5417 324.266 60.6175 326.293 62.0189C318.718 67.1381 310.269 70.8248 301.364 72.8962C306.208 69.8824 310.705 66.3415 314.77 62.3384C307.594 60.026 300.196 58.472 292.696 57.7019C292.288 57.6611 291.805 57.5659 291.656 57.1852C295.47 53.6161 298.991 49.8498 302.445 45.9271C296.993 47.3159 291.872 49.7747 287.38 53.1606C289.674 43.9651 290.92 34.539 291.092 25.063C290.481 26.5849 289.599 27.9831 288.488 29.1896C284.956 33.721 282.47 38.9768 281.207 44.5811C280.032 37.92 281.268 31.0581 284.694 25.2261C288.133 19.44 292.972 14.6122 298.767 11.1875C298.74 11.2623 298.665 11.1603 298.61 11.2623Z" fill="#0D4536"/>
<path d="M109.549 71.4542C108.785 60.6341 104.829 50.2834 98.1829 41.7113C91.5363 33.1392 82.497 26.7306 72.2081 23.2959C61.9192 19.8612 50.8429 19.5547 40.3798 22.4152C29.9167 25.2758 20.5368 31.1748 13.4264 39.3663C6.31601 47.5578 1.7944 57.6739 0.433422 68.4352C-0.927554 79.1965 0.933334 90.1198 5.78053 99.8235C10.6277 109.527 18.2435 117.576 27.665 122.951C37.0865 128.326 47.8905 130.787 58.7105 130.022C73.2184 128.996 86.7245 122.25 96.2584 111.266C105.792 100.283 110.573 85.9621 109.549 71.4542ZM5.25501 83.5145C3.26274 74.4854 4.01803 65.0668 7.42369 56.4706C7.7976 64.0507 7.94724 71.6241 8.31436 79.2043L12.1486 74.1531C11.9463 85.471 14.1813 96.6999 18.7021 107.078C11.9703 100.74 7.28737 92.5341 5.25501 83.5145ZM58.2823 91.7269C56.5633 92.361 54.6807 92.3981 52.9381 91.832C51.1955 91.2659 49.6942 90.1297 48.6761 88.6064L27.3769 56.6541C26.1361 54.7945 25.3199 52.6846 24.986 50.4741C24.6521 48.2636 24.8088 46.0067 25.4449 43.8636C26.081 41.7205 27.1811 39.7436 28.6669 38.0732C30.1527 36.4028 31.9878 35.0799 34.0422 34.1983C36.0966 33.3167 38.3197 32.898 40.5541 32.9719C42.7884 33.0459 44.9791 33.6106 46.9707 34.6261C48.9623 35.6416 50.7061 37.0829 52.0782 38.8479C53.4503 40.6128 54.4173 42.6581 54.9103 44.8386L63.4014 82.2975C63.8312 84.2251 63.5472 86.2431 62.6021 87.9772C61.6569 89.7112 60.1147 91.0435 58.2618 91.7269H58.2823ZM66.9977 113.278C65.4393 113.278 63.9161 112.816 62.6203 111.95C61.3246 111.084 60.3146 109.853 59.7182 108.414C59.1219 106.974 58.9659 105.39 59.2699 103.861C59.5739 102.333 60.3244 100.929 61.4263 99.8269C62.5283 98.7249 63.9321 97.9745 65.4606 97.6705C66.989 97.3665 68.5733 97.5225 70.0131 98.1189C71.4528 98.7152 72.6834 99.7251 73.5492 101.021C74.415 102.317 74.877 103.84 74.877 105.398C74.877 106.435 74.6726 107.461 74.2753 108.418C73.8781 109.376 73.2959 110.245 72.562 110.977C71.8282 111.709 70.9573 112.289 69.999 112.684C69.0406 113.079 68.0138 113.28 66.9774 113.278H66.9977ZM94.3882 54.1659C93.8172 54.1659 93.355 53.4861 93.355 52.6431C93.355 51.8001 93.8172 51.1203 94.3882 51.1203C94.9593 51.1203 95.4216 51.8001 95.4216 52.6431C95.4216 53.4861 94.9322 54.1659 94.3679 54.1659H94.3882ZM95.9248 48.0474C95.5658 48.0474 95.2148 47.941 94.9162 47.7415C94.6177 47.5421 94.3852 47.2586 94.2478 46.9269C94.1104 46.5952 94.0744 46.2302 94.1445 45.8781C94.2145 45.526 94.3873 45.2026 94.6411 44.9487C94.895 44.6949 95.2185 44.522 95.5706 44.452C95.9227 44.3819 96.2877 44.4179 96.6194 44.5553C96.951 44.6927 97.2346 44.9253 97.4341 45.2238C97.6336 45.5223 97.7399 45.8732 97.7399 46.2322C97.7381 46.4709 97.6891 46.7068 97.5957 46.9264C97.5023 47.1461 97.3666 47.345 97.1959 47.5119C97.0253 47.6787 96.8232 47.8101 96.6015 47.8985C96.3799 47.987 96.143 48.0306 95.9044 48.027L95.9248 48.0474ZM101.078 52.5955C100.778 52.6515 100.469 52.6136 100.191 52.4871C99.9138 52.3607 99.6822 52.1517 99.5279 51.8888C99.3736 51.6259 99.3041 51.3218 99.3289 51.0179C99.3537 50.7141 99.4715 50.4253 99.6665 50.1909C99.8614 49.9565 100.124 49.788 100.418 49.7082C100.713 49.6285 101.024 49.6414 101.311 49.7452C101.598 49.8491 101.845 50.0388 102.02 50.2885C102.195 50.5382 102.288 50.8358 102.288 51.1407C102.309 51.4937 102.191 51.841 101.96 52.1088C101.729 52.3767 101.403 52.5439 101.051 52.5751L101.078 52.5955Z" fill="#0D4536"/>
<path d="M35.3661 62.7046C32.0998 59.4484 29.8348 55.3245 28.8395 50.8211C28.376 48.5704 28.5162 46.2372 29.2457 44.0582C29.9753 41.8792 31.2682 39.9319 32.9935 38.4141C31.9054 41.3279 31.268 44.3907 31.1034 47.4967C31.3509 46.9892 31.708 46.543 32.1488 46.1903C32.5897 45.8376 33.1034 45.5872 33.6528 45.4572C32.3183 48.0981 31.724 51.0511 31.9329 54.0027C32.4504 52.6963 33.36 51.5824 34.5366 50.8143C33.8184 52.7406 33.5207 54.7983 33.6638 56.8492C33.8068 58.9001 34.3874 60.8966 35.3661 62.7046Z" fill="#0D4536"/>
<path d="M70.3637 110.94C69.0132 111.718 67.4314 111.995 65.8967 111.722C64.3619 111.449 62.9727 110.644 61.9736 109.447C60.9745 108.251 60.4295 106.74 60.4346 105.181C60.4398 103.622 60.9948 102.115 62.0018 100.926C61.5565 102.949 61.6194 105.051 62.1852 107.044L62.9875 104.427C63.0226 105.352 63.2534 106.259 63.6647 107.089C64.076 107.919 64.6586 108.652 65.3738 109.24C66.0353 109.864 66.8231 110.339 67.684 110.632C68.5449 110.925 69.4587 111.03 70.3637 110.94Z" fill="#0D4536"/>
</svg>
