<svg width="102" height="113" viewBox="0 0 102 113" fill="none" xmlns="http://www.w3.org/2000/svg">
<path d="M29.6536 71.0203C28.1545 71.0976 26.7252 71.6779 25.5965 72.6675C24.4678 73.6571 23.7056 74.9982 23.4329 76.4743C23.1602 77.9505 23.393 79.4754 24.0937 80.8029C24.7943 82.1305 25.922 83.1831 27.2946 83.7908" stroke="#0D4536" stroke-width="0.8" stroke-linecap="round" stroke-linejoin="round"/>
<path d="M26.6026 93.9238L26.5655 109.121C26.5648 109.504 26.6403 109.884 26.7876 110.238C26.9349 110.592 27.151 110.913 27.4233 111.183C27.6957 111.452 28.019 111.665 28.3743 111.809C28.7297 111.953 29.1101 112.025 29.4934 112.021L96.8476 111.324C97.6117 111.316 98.3418 111.007 98.8788 110.463C99.4159 109.92 99.7165 109.186 99.7152 108.422L99.6966 94.2256" stroke="#0D4536" stroke-width="0.8" stroke-linecap="round" stroke-linejoin="round"/>
<path d="M32.3589 54.1496C28.7117 67.0996 26.7766 80.4715 26.6029 93.9241C26.5631 94.4475 26.6282 94.9736 26.7943 95.4716C26.9604 95.9696 27.2241 96.4294 27.57 96.8242C27.916 97.219 28.3372 97.5409 28.809 97.7709C29.2809 98.0009 29.7939 98.1345 30.318 98.1639L96.0283 97.5417C96.5902 97.537 97.1438 97.4049 97.6473 97.1554C98.1509 96.9058 98.5912 96.5453 98.9352 96.1009C99.2792 95.6565 99.5179 95.1399 99.6334 94.5899C99.7488 94.0399 99.738 93.4709 99.6017 92.9257C98.0872 79.3238 94.7711 65.9836 89.7405 53.2557C89.5391 52.4429 89.069 51.722 88.4064 51.2099C87.7439 50.6979 86.9278 50.4246 86.0905 50.4346L35.9927 50.9732C35.129 51.0504 34.3119 51.3995 33.659 51.9702C33.0061 52.5409 32.5509 53.3039 32.3589 54.1496Z" stroke="#0D4536" stroke-width="0.8" stroke-linecap="round" stroke-linejoin="round"/>
<path d="M62.0932 90.0681C72.2969 90.0681 80.9783 84.5831 83.6712 76.9952C82.864 85.8713 73.5883 92.9832 62.0932 92.9832C50.5965 92.9832 41.2993 85.8694 40.4919 76.9925C43.188 84.5821 51.8887 90.0681 62.0932 90.0681Z" fill="#0D4536" stroke="#0D4536" stroke-width="0.8"/>
<path d="M62.0885 89.677C74.2658 89.677 84.1374 81.7753 84.1374 72.0281C84.1374 62.2809 74.2658 54.3792 62.0885 54.3792C49.9112 54.3792 40.0395 62.2809 40.0395 72.0281C40.0395 81.7753 49.9112 89.677 62.0885 89.677Z" stroke="#0D4536" stroke-width="0.8" stroke-linecap="round" stroke-linejoin="round"/>
<path d="M80.4017 17.2055C80.4761 18.0964 80.2657 18.9879 79.8008 19.7515C79.336 20.5152 78.6407 21.1115 77.8151 21.4546C72.4318 23.779 66.5796 24.8127 60.7258 24.4731C60.4172 24.4518 60.1188 24.3538 59.8577 24.188C59.5965 24.0221 59.3809 23.7937 59.2305 23.5234L57.3079 20.1055L56.2399 18.2318C56.1145 18.0145 56.0352 17.7737 56.0068 17.5245C55.9785 17.2752 56.0017 17.0228 56.075 16.7829L57.0479 13.7458C57.0889 13.6118 57.0935 13.4694 57.0613 13.333C57.029 13.1967 56.961 13.0714 56.8644 12.97C56.7677 12.8686 56.6458 12.7948 56.5111 12.756C56.3765 12.7173 56.234 12.7151 56.0982 12.7497C55.7662 12.8194 55.4574 12.9146 55.1486 12.9819C52.0104 13.8373 48.9274 14.8833 45.9166 16.1142C42.8554 17.3677 39.8608 18.7782 36.9447 20.3401C33.9262 21.9538 31.0099 23.7092 28.1632 25.5597C27.4271 26.0357 26.6911 26.5349 25.9783 27.0086C25.623 27.2687 25.2654 27.5078 24.887 27.7679C24.6734 27.9095 24.1741 28.1231 24.1509 28.3855C24.0325 29.168 25.7763 29.2632 26.2151 29.3816C26.5914 29.4774 26.9408 29.6576 27.2369 29.9087C27.533 30.1597 27.768 30.475 27.924 30.8305L28.5184 32.1586L30.3458 36.1941C30.5582 36.6483 30.584 37.1677 30.4178 37.6407C28.5243 42.6658 25.1362 46.9899 20.7099 50.0304C19.9976 50.5469 19.1621 50.867 18.2872 50.9587C17.4122 51.0504 16.5285 50.9105 15.7247 50.5529L14.8934 50.1744C14.1518 49.8348 13.4508 49.4126 12.8037 48.9159C9.89537 46.6605 7.54064 43.7705 5.91922 40.4665C5.25846 39.0766 4.97269 37.5381 5.09029 36.0037C5.20651 34.267 5.82439 32.6013 6.8689 31.209C13.6793 22.5197 22.201 15.3209 31.9062 10.0585C41.6115 4.7961 52.2938 1.58204 63.2915 0.615358C67.1107 0.346996 70.8861 1.56305 73.8307 4.01001C76.9065 6.84447 79.0708 10.5289 80.0488 14.5956C80.1663 15.1126 80.2539 15.6359 80.3112 16.1629L80.4017 17.2055Z" stroke="#0D4536" stroke-width="0.8" stroke-linecap="round" stroke-linejoin="round"/>
<path d="M75.3632 86.1132L67.0577 75.2234C66.9801 75.1197 66.936 74.9947 66.9313 74.8653C66.9267 74.7358 66.9616 74.608 67.0316 74.4989C67.1015 74.3899 67.2031 74.3048 67.3227 74.255C67.4423 74.2052 67.5742 74.1931 67.7008 74.2204L82.3289 77.3967C81.8822 79.2733 81.026 81.0278 79.8218 82.5347C78.6175 84.0417 77.095 85.2636 75.3632 86.1132Z" stroke="#0D4536" stroke-width="0.8" stroke-linecap="round" stroke-linejoin="round"/>
<path d="M29.944 83.1044C30.0042 82.6198 30.0718 82.137 30.1467 81.6562C30.8189 83.7414 31.7794 85.7239 33.0015 87.5457L31.3325 87.3212L29.8641 87.1238L31.0336 88.0334L34.4077 90.6577L31.8508 90.8787L30.5954 90.9872L31.6835 91.6226C34.2043 93.0947 36.9114 94.204 39.7247 94.9245L37.7106 94.915L37.7104 94.915L33.5311 94.8941H33.5291C33.3086 94.8941 33.0927 94.9007 32.8799 94.9073C32.4452 94.9207 32.0233 94.9337 31.601 94.8888C31.0067 94.8256 30.5154 94.6519 30.157 94.2464C29.9132 93.8687 29.7954 93.4232 29.821 92.974L29.8227 92.9434L29.8198 92.9128C29.6097 90.7376 29.5581 88.5501 29.6656 86.3674L29.6656 86.3669C29.7178 85.2763 29.8106 84.1888 29.944 83.1044Z" fill="#0D4536" stroke="#0D4536" stroke-width="0.8"/>
<path d="M87.3359 57.7881C87.3172 57.8121 87.2691 57.8591 87.1491 57.9164C86.9518 58.0107 86.6509 58.0801 86.297 58.0801C85.9431 58.0801 85.6423 58.0107 85.4449 57.9164C85.3249 57.8591 85.2768 57.8121 85.2581 57.7881C85.2768 57.7642 85.3249 57.7171 85.4449 57.6598C85.6423 57.5655 85.9431 57.4962 86.297 57.4962C86.6509 57.4962 86.9518 57.5655 87.1491 57.6598C87.2691 57.7171 87.3172 57.7642 87.3359 57.7881Z" fill="#0D4536" stroke="#0D4536" stroke-width="0.8"/>
<path d="M89.3271 60.5936C89.4664 60.5936 89.588 60.6123 89.6836 60.6394C89.588 60.6665 89.4664 60.6852 89.3271 60.6852C89.1878 60.6852 89.0662 60.6665 88.9706 60.6394C89.0662 60.6123 89.1878 60.5936 89.3271 60.5936Z" fill="#0D4536" stroke="#0D4536" stroke-width="0.8"/>
<mask id="path-11-inside-1_461_3819" fill="white">
<path d="M85.689 61.0828C86.0262 61.0828 86.2996 60.9279 86.2996 60.7368C86.2996 60.5458 86.0262 60.3909 85.689 60.3909C85.3517 60.3909 85.0783 60.5458 85.0783 60.7368C85.0783 60.9279 85.3517 61.0828 85.689 61.0828Z"/>
</mask>
<path d="M85.689 61.0828C86.0262 61.0828 86.2996 60.9279 86.2996 60.7368C86.2996 60.5458 86.0262 60.3909 85.689 60.3909C85.3517 60.3909 85.0783 60.5458 85.0783 60.7368C85.0783 60.9279 85.3517 61.0828 85.689 61.0828Z" fill="#0D4536"/>
<path d="M85.4996 60.7368C85.4996 60.5841 85.5564 60.4654 85.6106 60.3929C85.6611 60.3253 85.71 60.2947 85.7264 60.2854C85.7569 60.2682 85.7453 60.2828 85.689 60.2828V61.8828C85.9699 61.8828 86.2636 61.82 86.5151 61.6775C86.7426 61.5486 87.0996 61.2468 87.0996 60.7368H85.4996ZM85.689 60.2828C85.6326 60.2828 85.621 60.2682 85.6515 60.2854C85.6679 60.2947 85.7168 60.3253 85.7673 60.3929C85.8215 60.4654 85.8783 60.5841 85.8783 60.7368H84.2783C84.2783 61.2468 84.6353 61.5486 84.8628 61.6775C85.1143 61.82 85.408 61.8828 85.689 61.8828V60.2828ZM85.8783 60.7368C85.8783 60.8896 85.8215 61.0082 85.7673 61.0808C85.7168 61.1484 85.6679 61.179 85.6515 61.1883C85.621 61.2055 85.6326 61.1909 85.689 61.1909V59.5909C85.408 59.5909 85.1143 59.6537 84.8628 59.7961C84.6353 59.925 84.2783 60.2268 84.2783 60.7368H85.8783ZM85.689 61.1909C85.7453 61.1909 85.7569 61.2055 85.7264 61.1883C85.71 61.179 85.6611 61.1484 85.6106 61.0808C85.5564 61.0082 85.4996 60.8896 85.4996 60.7368H87.0996C87.0996 60.2268 86.7426 59.925 86.5151 59.7961C86.2636 59.6537 85.9699 59.5909 85.689 59.5909V61.1909Z" fill="#0D4536" mask="url(#path-11-inside-1_461_3819)"/>
<mask id="path-13-inside-2_461_3819" fill="white">
<path d="M49.1277 109.629H34.4578C33.3193 109.703 32.1769 109.692 31.04 109.597C30.0369 109.444 29.8976 108.543 29.8976 107.723V101.902C31.4064 103.109 33.0937 104.075 34.899 104.765L32.8441 104.916L37.0746 106.274L34.2883 106.954L48.5913 108.995"/>
</mask>
<path d="M49.1277 109.629H34.4578C33.3193 109.703 32.1769 109.692 31.04 109.597C30.0369 109.444 29.8976 108.543 29.8976 107.723V101.902C31.4064 103.109 33.0937 104.075 34.899 104.765L32.8441 104.916L37.0746 106.274L34.2883 106.954L48.5913 108.995" fill="#0D4536"/>
<path d="M34.4578 109.629V108.829H34.4319L34.4059 108.831L34.4578 109.629ZM31.04 109.597L30.9191 110.388L30.9459 110.392L30.9729 110.394L31.04 109.597ZM29.8976 101.902L30.3974 101.277L29.0976 100.237V101.902H29.8976ZM34.899 104.765L34.9576 105.563L35.1844 104.018L34.899 104.765ZM32.8441 104.916L32.7855 104.118L32.5995 105.678L32.8441 104.916ZM37.0746 106.274L37.2644 107.051L40.018 106.379L37.3192 105.512L37.0746 106.274ZM34.2883 106.954L34.0985 106.177L34.1753 107.746L34.2883 106.954ZM49.1277 108.829H34.4578V110.429H49.1277V108.829ZM34.4059 108.831C33.307 108.902 32.2044 108.892 31.107 108.8L30.9729 110.394C32.1494 110.493 33.3316 110.504 34.5097 110.428L34.4059 108.831ZM31.1608 108.806C31.0268 108.786 30.9607 108.747 30.9267 108.721C30.8916 108.694 30.8546 108.652 30.8189 108.574C30.7357 108.394 30.6976 108.113 30.6976 107.723H29.0976C29.0976 108.153 29.1291 108.732 29.3664 109.245C29.6331 109.823 30.138 110.268 30.9191 110.388L31.1608 108.806ZM30.6976 107.723V101.902H29.0976V107.723H30.6976ZM29.3977 102.527C30.9712 103.786 32.7308 104.793 34.6135 105.512L35.1844 104.018C33.4565 103.358 31.8416 102.433 30.3974 101.277L29.3977 102.527ZM34.8404 103.967L32.7855 104.118L32.9027 105.714L34.9576 105.563L34.8404 103.967ZM32.5995 105.678L36.8301 107.036L37.3192 105.512L33.0886 104.154L32.5995 105.678ZM36.8849 105.497L34.0985 106.177L34.4781 107.732L37.2644 107.051L36.8849 105.497ZM34.1753 107.746L48.4783 109.787L48.7043 108.203L34.4013 106.163L34.1753 107.746Z" fill="#0D4536" mask="url(#path-13-inside-2_461_3819)"/>
<path d="M93.7987 102.037C93.7987 102.226 93.762 102.382 93.7157 102.486C93.6695 102.382 93.6328 102.226 93.6328 102.037C93.6328 101.847 93.6695 101.691 93.7157 101.588C93.762 101.691 93.7987 101.847 93.7987 102.037ZM93.6502 102.589C93.6501 102.589 93.6518 102.588 93.6554 102.585C93.6521 102.589 93.6503 102.59 93.6502 102.589ZM93.7761 102.585C93.7797 102.588 93.7814 102.589 93.7813 102.589C93.7812 102.59 93.7794 102.589 93.7761 102.585ZM93.7813 101.484C93.7814 101.484 93.7797 101.486 93.7761 101.488C93.7794 101.485 93.7812 101.484 93.7813 101.484ZM93.6554 101.488C93.6518 101.486 93.6501 101.484 93.6502 101.484C93.6503 101.484 93.6521 101.485 93.6554 101.488Z" fill="#0D4536" stroke="#0D4536" stroke-width="0.8"/>
<path d="M97.1353 103.4C97.1353 103.494 97.114 103.569 97.0895 103.619C97.0649 103.569 97.0437 103.494 97.0437 103.4C97.0437 103.306 97.0649 103.231 97.0895 103.181C97.114 103.231 97.1353 103.306 97.1353 103.4ZM97.049 103.676C97.049 103.676 97.0498 103.675 97.0516 103.674C97.0499 103.676 97.049 103.676 97.049 103.676ZM97.1274 103.674C97.1292 103.675 97.13 103.676 97.13 103.676C97.13 103.676 97.1291 103.676 97.1274 103.674ZM97.13 103.124C97.13 103.124 97.1292 103.125 97.1274 103.126C97.1291 103.124 97.13 103.124 97.13 103.124ZM97.0516 103.126C97.0498 103.125 97.049 103.124 97.049 103.124C97.049 103.124 97.0499 103.124 97.0516 103.126Z" fill="#0D4536" stroke="#0D4536" stroke-width="0.8"/>
<path d="M44.1538 47.5602L44.1538 47.5603H44.1612H44.1681H45.3262L44.415 46.8456C44.2366 46.7056 44.0423 46.5883 43.8368 46.4958C44.4492 46.3111 45.0787 46.1838 45.7172 46.1162L46.9066 45.9902C47.054 46.1343 47.1922 46.2886 47.3201 46.4526C48.0996 47.6079 48.5618 48.9451 48.6641 50.3304L39.1729 50.3606C38.948 49.409 39.0301 48.4077 39.4116 47.5018C39.8314 46.5053 40.5871 45.6873 41.5474 45.1901C42.5077 44.693 43.6119 44.548 44.6679 44.7805C45.4214 44.9464 46.1164 45.2969 46.6935 45.7945L45.8587 45.363C45.1958 45.0204 44.4573 44.8505 43.7113 44.869C42.9654 44.8874 42.2362 45.0937 41.5911 45.4686C40.9459 45.8436 40.4058 46.3752 40.0205 47.0142C39.6353 47.6532 39.4174 48.379 39.387 49.1246L39.3395 50.2887L40.092 49.3992C40.5902 48.8105 41.2131 48.34 41.9156 48.0219C42.6182 47.7038 43.3828 47.5461 44.1538 47.5602Z" fill="#0D4536" stroke="#0D4536" stroke-width="0.8"/>
<path d="M76.0551 47.1262L77.2526 47.1464L76.3076 46.4107C76.1295 46.272 75.9359 46.1558 75.7311 46.064C76.3462 45.8778 76.9786 45.7498 77.62 45.6822L78.8826 45.5492C79.376 46.0064 79.7707 46.5656 80.0366 47.193C80.4174 48.0916 80.5136 49.0826 80.3166 50.0335L70.8342 50.0055C70.9353 48.6214 71.3958 47.2851 72.173 46.1301C72.8542 45.3076 73.7907 44.736 74.834 44.5065C75.88 44.2764 76.9729 44.4033 77.9381 44.8669C78.239 45.0327 78.5193 45.2293 78.775 45.4524L77.7616 44.929C77.0984 44.5865 76.3596 44.4167 75.6134 44.4353C74.8672 44.4539 74.1377 44.6603 73.4924 45.0355C72.8471 45.4107 72.3068 45.9425 71.9215 46.5817C71.5361 47.221 71.3181 47.9471 71.2877 48.6929L71.2402 49.8559L71.9926 48.9678C72.4912 48.3792 73.1142 47.9087 73.8168 47.5902C74.5194 47.2718 75.2839 47.1133 76.0551 47.1262Z" fill="#0D4536" stroke="#0D4536" stroke-width="0.8"/>
<path d="M67.7724 73.8359L67.7643 73.8342L67.7562 73.8328C67.5537 73.7983 67.3455 73.8251 67.1582 73.9097C66.971 73.9943 66.8133 74.1328 66.7053 74.3076C66.5974 74.4824 66.5441 74.6854 66.5522 74.8907C66.5604 75.096 66.6297 75.2942 66.7512 75.4598L66.7511 75.4598L66.7557 75.4659L67.1842 76.0273C65.7076 77.0799 63.9306 77.6363 62.1107 77.6096L62.1107 77.6095H62.1048C57.895 77.6095 54.6335 74.8998 54.6335 71.7171C54.6335 68.5345 57.895 65.8247 62.1048 65.8247C66.3125 65.8247 69.5521 68.5326 69.5529 71.7161C69.5485 72.5475 69.3272 73.3617 68.913 74.079L67.7724 73.8359ZM60.2238 69.382L61.6303 68.9092L60.1767 68.611C59.8195 68.5377 59.4565 68.5173 59.0988 68.548C59.9339 67.8325 60.9193 67.3031 61.9897 67.0034L61.9411 66.2226C60.5284 66.0112 59.0867 66.3131 57.8775 67.0736C57.0251 67.6089 56.3348 68.3663 55.8806 69.2645C55.4264 70.1627 55.2256 71.1677 55.2997 72.1715L55.2995 72.1715L55.3008 72.1841C55.4238 73.3467 55.9495 74.4296 56.7869 75.2453C57.6243 76.061 58.7206 76.5581 59.8859 76.6506L60.0931 75.8924C59.7646 75.732 59.4745 75.5027 59.2425 75.2201C59.0105 74.9376 58.842 74.6084 58.7486 74.2549L58.7448 74.2406L58.7399 74.2265C58.6119 73.856 58.5607 73.4634 58.5895 73.0724C58.6182 72.6815 58.7263 72.3005 58.9072 71.9528L59.372 71.0589L58.4206 71.3905C58.3046 71.431 58.1925 71.4811 58.0855 71.5403C58.1867 71.2296 58.3331 70.9333 58.5216 70.6612C58.9365 70.0627 59.5335 69.614 60.2238 69.382ZM66.5804 69.4206C66.5298 69.4437 66.453 69.4854 66.3815 69.5502H66.1907V69.9502C66.1907 70.1138 66.2676 70.2384 66.3425 70.3171C66.4156 70.3939 66.5024 70.4452 66.5785 70.4796C66.7318 70.5488 66.915 70.5823 67.0923 70.5823C67.271 70.5823 67.4537 70.5477 67.6061 70.4771C67.6819 70.442 67.7673 70.39 67.8391 70.313C67.9123 70.2344 67.9868 70.1111 67.9868 69.9502C67.9868 69.7892 67.9123 69.6659 67.8391 69.5873C67.7673 69.5103 67.6819 69.4583 67.6061 69.4232C67.4537 69.3527 67.271 69.318 67.0923 69.318C66.9163 69.318 66.7337 69.3506 66.5804 69.4206ZM68.2836 71.059C68.2789 71.0647 68.2743 71.0699 68.2699 71.0744C68.2698 71.0743 68.2696 71.0742 68.2695 71.074C68.2643 71.0687 68.2589 71.0626 68.2534 71.0556C68.2509 71.0525 68.2484 71.0492 68.2459 71.0457C68.2537 71.046 68.2616 71.0461 68.2695 71.0461C68.2776 71.0461 68.2857 71.0459 68.2936 71.0456C68.2902 71.0505 68.2869 71.0549 68.2836 71.059ZM68.2459 70.7029C68.2537 70.7026 68.2616 70.7025 68.2695 70.7025C68.2774 70.7025 68.2853 70.7026 68.2931 70.7029C68.2906 70.6994 68.2881 70.6961 68.2856 70.693C68.2801 70.686 68.2747 70.6799 68.2695 70.6746C68.2695 70.6746 68.2695 70.6746 68.2695 70.6746C68.2643 70.6799 68.2589 70.686 68.2534 70.693C68.2509 70.6961 68.2484 70.6994 68.2459 70.7029ZM68.9922 70.8743C68.9922 70.6075 68.7965 70.4585 68.6859 70.3996C68.5587 70.3319 68.4107 70.3025 68.2695 70.3025C68.1292 70.3025 67.9823 70.3324 67.8563 70.3988C67.7504 70.4547 67.5467 70.6025 67.5467 70.8743C67.5467 71.1412 67.7425 71.2901 67.8531 71.349C67.9803 71.4167 68.1283 71.4461 68.2695 71.4461C68.4107 71.4461 68.5587 71.4167 68.6859 71.349C68.7965 71.2901 68.9922 71.1411 68.9922 70.8743Z" fill="#0D4536" stroke="#0D4536" stroke-width="0.8"/>
<path d="M74.1331 81.2477C74.248 81.3012 74.3727 81.3588 74.5051 81.4118L74.5273 81.7518L74.6306 81.7657L74.5207 81.8181L74.1331 81.2477ZM77.7036 82.2961C77.1383 82.8514 76.5295 83.3618 75.8827 83.8223L74.8805 82.3476L75.0197 82.3763C75.7959 82.5368 76.5967 82.5364 77.3727 82.3751C77.4839 82.352 77.5943 82.3256 77.7036 82.2961Z" fill="#0D4536" stroke="#0D4536" stroke-width="0.8"/>
<path d="M45.2187 65.8546C46.2345 64.1317 47.5165 62.5876 49.0122 61.2771C47.8727 63.0642 47.0058 65.0173 46.4453 67.0723L47.1262 67.4477C47.379 67.1715 47.6763 66.9445 48.003 66.7742C46.4845 68.9496 45.6805 71.5571 45.723 74.231L46.5057 74.3409C46.5683 74.1349 46.6557 73.938 46.7655 73.7543C46.4405 74.7403 46.2833 75.7782 46.3048 76.8247C46.3273 77.9251 46.5468 79.0079 46.9485 80.0233C46.263 79.4499 45.6586 78.7823 45.1543 78.0385C44.3568 76.8624 43.8292 75.5245 43.6091 74.1207C43.1931 71.2625 43.7607 68.3479 45.2187 65.8546Z" fill="#0D4536" stroke="#0D4536" stroke-width="0.8"/>
<path d="M77.3807 63.2499C77.4552 63.2499 77.5249 63.2548 77.5883 63.2632C77.5249 63.2716 77.4552 63.2765 77.3807 63.2765C77.3062 63.2765 77.2366 63.2716 77.1731 63.2632C77.2366 63.2548 77.3062 63.2499 77.3807 63.2499Z" fill="#0D4536" stroke="#0D4536" stroke-width="0.8"/>
<path d="M79.6441 65.0112C79.6441 64.9593 79.6596 64.9168 79.6772 64.8871C79.6948 64.9168 79.7103 64.9593 79.7103 65.0112C79.7103 65.063 79.6948 65.1056 79.6772 65.1352C79.6596 65.1056 79.6441 65.063 79.6441 65.0112Z" fill="#0D4536" stroke="#0D4536" stroke-width="0.8"/>
<mask id="path-24-inside-3_461_3819" fill="white">
<path d="M76.3081 65.7034C76.6133 65.7034 76.8607 65.5485 76.8607 65.3574C76.8607 65.1664 76.6133 65.0115 76.3081 65.0115C76.0029 65.0115 75.7555 65.1664 75.7555 65.3574C75.7555 65.5485 76.0029 65.7034 76.3081 65.7034Z"/>
</mask>
<path d="M76.3081 65.7034C76.6133 65.7034 76.8607 65.5485 76.8607 65.3574C76.8607 65.1664 76.6133 65.0115 76.3081 65.0115C76.0029 65.0115 75.7555 65.1664 75.7555 65.3574C75.7555 65.5485 76.0029 65.7034 76.3081 65.7034Z" fill="#0D4536"/>
<path d="M76.0607 65.3574C76.0607 65.0783 76.2393 64.9459 76.2743 64.924C76.3205 64.8951 76.3345 64.9034 76.3081 64.9034V66.5034C76.5869 66.5034 76.8772 66.4342 77.1234 66.2802C77.3584 66.133 77.6607 65.8277 77.6607 65.3574H76.0607ZM76.3081 64.9034C76.2817 64.9034 76.2957 64.8951 76.3418 64.924C76.3769 64.9459 76.5555 65.0783 76.5555 65.3574H74.9555C74.9555 65.8277 75.2578 66.133 75.4928 66.2802C75.739 66.4342 76.0293 66.5034 76.3081 66.5034V64.9034ZM76.5555 65.3574C76.5555 65.6366 76.3769 65.769 76.3418 65.7909C76.2957 65.8198 76.2817 65.8115 76.3081 65.8115V64.2115C76.0293 64.2115 75.739 64.2806 75.4928 64.4347C75.2578 64.5819 74.9555 64.8872 74.9555 65.3574H76.5555ZM76.3081 65.8115C76.3345 65.8115 76.3205 65.8198 76.2743 65.7909C76.2393 65.769 76.0607 65.6366 76.0607 65.3574H77.6607C77.6607 64.8872 77.3584 64.5819 77.1234 64.4347C76.8772 64.2806 76.5869 64.2115 76.3081 64.2115V65.8115Z" fill="#0D4536" mask="url(#path-24-inside-3_461_3819)"/>
<mask id="path-26-inside-4_461_3819" fill="white">
<path d="M11.826 43.6545C10.548 42.3692 9.63442 40.7675 9.17871 39.0132C8.723 37.2589 8.74155 35.415 9.23245 33.6702C10.5449 30.3669 12.7078 27.4694 15.5016 25.2719C14.7618 27.5396 14.2637 29.8791 14.0156 32.2515L12.4088 30.8839L13.247 36.0339L11.1759 34.6083C10.6455 37.3825 10.7535 40.2409 11.4917 42.9672"/>
</mask>
<path d="M11.826 43.6545C10.548 42.3692 9.63442 40.7675 9.17871 39.0132C8.723 37.2589 8.74155 35.415 9.23245 33.6702C10.5449 30.3669 12.7078 27.4694 15.5016 25.2719C14.7618 27.5396 14.2637 29.8791 14.0156 32.2515L12.4088 30.8839L13.247 36.0339L11.1759 34.6083C10.6455 37.3825 10.7535 40.2409 11.4917 42.9672" fill="#0D4536"/>
<path d="M9.23245 33.6702L8.48899 33.3748L8.47362 33.4135L8.46235 33.4536L9.23245 33.6702ZM15.5016 25.2719L16.2622 25.52L17.0803 23.0123L15.007 24.6431L15.5016 25.2719ZM14.0156 32.2515L13.4971 32.8607L14.6533 33.8449L14.8113 32.3347L14.0156 32.2515ZM12.4088 30.8839L12.9274 30.2747L11.2695 28.8636L11.6192 31.0124L12.4088 30.8839ZM13.247 36.0339L12.7934 36.6929L14.3378 37.756L14.0367 35.9054L13.247 36.0339ZM11.1759 34.6083L11.6295 33.9493L10.6202 33.2546L10.3901 34.4581L11.1759 34.6083ZM12.3933 43.0904C11.2152 41.9056 10.3731 40.4292 9.95301 38.812L8.4044 39.2143C8.89575 41.1058 9.88079 42.8328 11.2587 44.2186L12.3933 43.0904ZM9.95301 38.812C9.53294 37.1949 9.55004 35.4952 10.0026 33.8869L8.46235 33.4536C7.93306 35.3348 7.91306 37.3228 8.4044 39.2143L9.95301 38.812ZM9.97592 33.9656C11.2363 30.7934 13.3133 28.011 15.9962 25.9006L15.007 24.6431C12.1023 26.9279 9.85356 29.9403 8.48899 33.3748L9.97592 33.9656ZM14.7411 25.0237C13.9838 27.345 13.4739 29.7399 13.2199 32.1683L14.8113 32.3347C15.0535 30.0184 15.5399 27.7341 16.2622 25.52L14.7411 25.0237ZM14.5341 31.6423L12.9274 30.2747L11.8903 31.4931L13.4971 32.8607L14.5341 31.6423ZM11.6192 31.0124L12.4574 36.1625L14.0367 35.9054L13.1984 30.7554L11.6192 31.0124ZM13.7006 35.375L11.6295 33.9493L10.7223 35.2673L12.7934 36.6929L13.7006 35.375ZM10.3901 34.4581C9.83692 37.3515 9.94955 40.3328 10.7195 43.1763L12.2639 42.7581C11.5574 40.1491 11.4541 37.4134 11.9617 34.7585L10.3901 34.4581Z" fill="#0D4536" mask="url(#path-26-inside-4_461_3819)"/>
<path d="M69.9037 5.67273C69.9037 5.95601 69.7124 6.09469 69.5816 6.09469C69.4507 6.09469 69.2594 5.95601 69.2594 5.67273C69.2594 5.38945 69.4507 5.25077 69.5816 5.25077C69.7124 5.25077 69.9037 5.38945 69.9037 5.67273Z" fill="#0D4536" stroke="#0D4536" stroke-width="0.8"/>
<mask id="path-29-inside-5_461_3819" fill="white">
<path d="M72.3193 6.91225C72.5245 6.91225 72.6908 6.68147 72.6908 6.39678C72.6908 6.1121 72.5245 5.88132 72.3193 5.88132C72.1141 5.88132 71.9478 6.1121 71.9478 6.39678C71.9478 6.68147 72.1141 6.91225 72.3193 6.91225Z"/>
</mask>
<path d="M72.3193 6.91225C72.5245 6.91225 72.6908 6.68147 72.6908 6.39678C72.6908 6.1121 72.5245 5.88132 72.3193 5.88132C72.1141 5.88132 71.9478 6.1121 71.9478 6.39678C71.9478 6.68147 72.1141 6.91225 72.3193 6.91225Z" fill="#0D4536"/>
<path d="M71.8908 6.39678C71.8908 6.39003 71.8916 6.35095 71.933 6.29352C71.9735 6.23724 72.0996 6.11225 72.3193 6.11225V7.71225C72.7441 7.71225 73.056 7.47187 73.231 7.22902C73.4068 6.98504 73.4908 6.68822 73.4908 6.39678H71.8908ZM72.3193 6.11225C72.5389 6.11225 72.665 6.23724 72.7056 6.29352C72.747 6.35095 72.7478 6.39003 72.7478 6.39678H71.1478C71.1478 6.68822 71.2317 6.98504 71.4076 7.22902C71.5826 7.47187 71.8945 7.71225 72.3193 7.71225V6.11225ZM72.7478 6.39678C72.7478 6.40354 72.747 6.44262 72.7056 6.50005C72.665 6.55632 72.5389 6.68132 72.3193 6.68132V5.08132C71.8945 5.08132 71.5826 5.3217 71.4076 5.56454C71.2317 5.80853 71.1478 6.10534 71.1478 6.39678H72.7478ZM72.3193 6.68132C72.0996 6.68132 71.9735 6.55632 71.933 6.50005C71.8916 6.44262 71.8908 6.40354 71.8908 6.39678H73.4908C73.4908 6.10534 73.4068 5.80853 73.231 5.56454C73.056 5.3217 72.7441 5.08132 72.3193 5.08132V6.68132Z" fill="#0D4536" mask="url(#path-29-inside-5_461_3819)"/>
<path d="M70.8187 7.90391C70.8187 7.85612 70.8575 7.81737 70.9053 7.81737C70.9531 7.81737 70.9918 7.85612 70.9918 7.90391C70.9918 7.95171 70.9531 7.99045 70.9053 7.99045C70.8575 7.99045 70.8187 7.95171 70.8187 7.90391Z" fill="#0D4536" stroke="#0D4536" stroke-width="0.8"/>
<path d="M29.9766 36.357L29.9765 36.357L29.9794 36.3631C30.15 36.7237 30.1715 37.1369 30.0394 37.5132C28.1745 42.4601 24.8386 46.7168 20.4808 49.7102L20.4808 49.7101L20.4725 49.7161C19.8171 50.1914 19.0482 50.486 18.243 50.5704C17.4382 50.6547 16.6255 50.5262 15.8862 50.1975C15.8857 50.1973 15.8852 50.1971 15.8847 50.1969L15.0574 49.8202C15.0573 49.8202 15.0572 49.8201 15.0571 49.82C14.387 49.5132 13.7513 49.1364 13.1608 48.6959C13.3112 48.5984 13.461 48.5 13.6102 48.4009L13.8402 48.5712C14.3903 48.9786 15.0174 49.2702 15.6834 49.4284C16.3494 49.5865 17.0406 49.608 17.7152 49.4914L17.7175 49.491C19.0255 49.257 20.2559 48.7051 21.3005 47.8839C22.3052 47.0946 23.2431 46.2238 24.1047 45.2804L23.5278 44.7266C22.2205 46.0226 20.6031 46.946 18.8424 47.4169L19.0397 47.261L18.6418 46.5763C17.3189 47.1112 15.9454 47.5096 14.5426 47.7655C20.1627 43.8385 24.8847 38.7538 28.3874 32.8474L29.9766 36.357Z" fill="#0D4536" stroke="#0D4536" stroke-width="0.8"/>
<path d="M57.9619 20.4394L59.584 23.3229L59.5848 23.3245C59.7029 23.5365 59.872 23.7158 60.0769 23.8459C60.2813 23.9757 60.5147 24.0525 60.7561 24.0695C60.9554 24.081 61.1547 24.091 61.354 24.0993C61.2276 24.0606 61.1027 24.0162 60.9797 23.9663L60.9602 23.9584L60.9416 23.9485C60.3857 23.6516 59.9269 23.2011 59.6199 22.6507L57.9619 20.4394ZM57.9619 20.4394C58.2105 20.4279 58.4589 20.4148 58.7072 20.4001M57.9619 20.4394L58.7072 20.4001M58.7072 20.4001L58.9272 21.071C59.1068 21.6186 59.3388 22.1475 59.6198 22.6506C59.6198 22.6505 59.6198 22.6505 59.6197 22.6504L58.7072 20.4001ZM77.6614 21.083C75.3244 22.0921 72.898 22.8553 70.4214 23.3657L70.3408 22.678C69.1466 22.7066 67.9525 22.6989 66.7514 22.6911L66.7261 22.6909C65.941 22.6858 65.1529 22.6808 64.3631 22.6863L64.3047 22.2441L62.737 22.0585L62.6687 21.5133C61.5585 21.4315 60.4777 21.1182 59.4958 20.5935L59.0892 20.3763C66.2347 19.9065 73.2365 18.1203 79.7401 15.1031C79.8107 15.467 79.8663 15.8337 79.9066 16.2023C79.9066 16.2029 79.9067 16.2036 79.9068 16.2043L80.0082 17.2371C80.0748 18.0427 79.8843 18.8487 79.464 19.5391C79.0432 20.2304 78.4138 20.7702 77.6664 21.0808L77.6664 21.0808L77.6614 21.083ZM77.4949 18.2117L77.4951 18.2093C77.7719 18.2035 77.9394 17.9957 78.0125 17.8678C78.1003 17.7143 78.148 17.5244 78.148 17.3288C78.148 17.1437 78.1094 16.9566 78.0278 16.8013C77.9563 16.665 77.7878 16.4458 77.4949 16.4458C77.2019 16.4458 77.0334 16.665 76.9619 16.8013C76.8804 16.9567 76.8418 17.1438 76.8418 17.3288C76.8418 17.5138 76.8804 17.7009 76.9619 17.8563C77.0334 17.9926 77.2019 18.2117 77.4949 18.2117ZM78.9391 17.7288L78.9394 17.7264C79.231 17.7206 79.4084 17.5031 79.4894 17.3551C79.5822 17.1855 79.6294 16.9768 79.6294 16.7646C79.6294 16.5567 79.5863 16.3498 79.499 16.1804C79.4234 16.0337 79.2467 15.798 78.9391 15.798C78.629 15.798 78.4534 16.0379 78.3794 16.1833C78.2934 16.3525 78.2512 16.5586 78.2512 16.7646C78.2512 16.9706 78.2934 17.1765 78.3798 17.3455C78.4547 17.4918 78.6306 17.7288 78.9391 17.7288Z" fill="#0D4536" stroke="#0D4536" stroke-width="0.8"/>
<path d="M6.3627 41.9964C4.44557 43.7788 2.9713 45.9844 2.05743 48.4374C1.14355 50.8904 0.815331 53.5229 1.09891 56.1252C1.32062 57.8033 2.03307 59.3784 3.14684 60.653C3.71282 61.279 4.44276 61.7342 5.25403 61.9668C6.0653 62.1995 6.92551 62.2004 7.73728 61.9695C8.12982 61.8314 8.49063 61.616 8.79836 61.3359C9.1061 61.0558 9.35448 60.7168 9.52878 60.339C9.70309 59.9611 9.79977 59.5521 9.81311 59.1362C9.82644 58.7203 9.75617 58.306 9.60643 57.9178C9.15412 57.2089 8.44775 56.7 7.6322 56.4954C6.81664 56.2907 5.9537 56.4059 5.22032 56.8172C4.50243 57.2593 3.88411 57.8457 3.4045 58.5391C2.92489 59.2325 2.59442 60.018 2.43401 60.8457C1.99788 62.6592 2.02582 64.5534 2.51525 66.3532C3.00468 68.153 3.9398 69.8005 5.23425 71.1434C6.14009 72.1287 7.31318 72.829 8.61032 73.1588C9.25847 73.3153 9.93538 73.3079 10.5799 73.1372C11.2245 72.9665 11.8164 72.638 12.3022 72.1813C12.8208 71.7216 13.1392 71.0775 13.1894 70.3863C13.2397 69.6951 13.0179 69.0117 12.5713 68.4818C12.1247 67.9519 11.4887 67.6175 10.799 67.5499C10.1093 67.4824 9.42056 67.6871 8.87966 68.1203C8.32818 68.5344 7.89054 69.0814 7.60756 69.7103C7.32457 70.3392 7.20545 71.0295 7.26128 71.7169C7.38965 73.095 7.90837 74.408 8.75659 75.5017C10.3463 77.6945 12.6271 79.2892 15.2324 80.0294C18.0151 80.7277 20.9472 80.5286 23.6099 79.4605" stroke="#0D4536" stroke-width="0.8" stroke-linecap="round" stroke-linejoin="round"/>
<path d="M94.2168 39.6928C94.2172 39.6929 94.2176 39.693 94.2179 39.6931L94.1124 40.0789L94.0081 40.4651C95.8854 40.9726 97.7481 41.5271 99.5961 42.1287L99.596 42.1288L99.6044 42.1313C100.184 42.3062 100.741 42.5482 101.263 42.852C99.5027 43.9772 97.6124 44.8798 95.6355 45.5408C96.5757 44.8307 97.4692 44.0594 98.3102 43.2315L98.7811 42.7679L98.152 42.5657C95.7705 41.8001 93.319 41.2735 90.8339 40.9933C91.972 39.8926 93.0369 38.7434 94.0808 37.5568L94.9347 36.5861L93.6818 36.905C92.0956 37.3086 90.5886 37.9686 89.2195 38.8566C89.862 35.9851 90.2135 33.0552 90.2679 30.1113L89.497 29.9545C89.3036 30.4345 89.0251 30.8756 88.6749 31.2566L88.6639 31.2686L88.6538 31.2815C87.8544 32.3078 87.206 33.4386 86.7249 34.6394C86.8021 33.142 87.237 31.674 88.0065 30.3633C89.0597 28.5939 90.5039 27.0924 92.2255 25.972C92.3496 27.4929 92.2507 29.025 91.9311 30.5195L91.9292 30.5286L91.9276 30.5377C91.6393 32.2769 91.2652 34.0138 90.88 35.7428L90.6763 36.6569L91.4775 36.172C91.8818 35.9274 92.3068 35.7186 92.7475 35.5481L92.7757 35.5372L92.8019 35.5222C93.2642 35.2577 93.7121 34.9684 94.1458 34.6754M94.2168 39.6928C94.1835 39.6839 94.1611 39.6863 94.1536 39.6877M94.2168 39.6928C94.3671 39.7334 94.5173 39.7743 94.6674 39.8156L94.7589 40.2557C94.7042 40.2958 94.6474 40.333 94.5895 40.3651C94.4604 40.4367 94.2434 40.5294 94.007 40.4648L94.2168 39.6928ZM94.1536 39.6877C94.1594 39.6859 94.1748 39.6803 94.2015 39.6655C94.2657 39.6299 94.3492 39.5662 94.4434 39.4787C94.6311 39.3045 94.8027 39.0913 94.8676 38.9973L94.8693 38.9947C95.0569 38.7274 95.2316 38.4639 95.4085 38.1972C95.544 37.9929 95.6809 37.7866 95.8257 37.5751L95.8289 37.5705L95.8289 37.5705C96.4737 36.6565 97.041 35.6901 97.5249 34.6816L97.5251 34.6812C97.915 33.8709 98.2165 33.021 98.4244 32.1462C98.4277 32.1314 98.4311 32.1166 98.4346 32.1019C98.3064 32.1505 98.1765 32.2035 98.0438 32.2592C97.5907 32.4593 97.1513 32.6888 96.7283 32.9463L96.7261 32.9477L96.7261 32.9477C96.1176 33.3128 95.541 33.7127 94.9522 34.1212C94.6872 34.305 94.4198 34.4905 94.1458 34.6754M94.1536 39.6877C94.1519 39.688 94.1509 39.6883 94.1509 39.6884C94.1509 39.6884 94.1518 39.6883 94.1536 39.6877ZM94.1458 34.6754L93.9221 34.3438M94.1458 34.6754C94.1459 34.6753 94.1459 34.6753 94.146 34.6752L93.9221 34.3438M93.9221 34.3438C93.4925 34.634 93.0537 34.9173 92.6032 35.175L98.5821 31.6248C98.3499 31.7014 98.1177 31.7943 97.8856 31.8918C97.4153 32.0993 96.9593 32.3374 96.5203 32.6047C95.9002 32.9767 95.3058 33.389 94.7115 33.8012C94.4491 33.9833 94.1867 34.1653 93.9221 34.3438Z" fill="#0D4536" stroke="#0D4536" stroke-width="0.8"/>
</svg>
