<svg width="160" height="41" viewBox="0 0 160 41" fill="none" xmlns="http://www.w3.org/2000/svg">
  <g clipPath="url(#clip0_71_2394)">
    <path
      d="M42.2143 14.8047H58.3439V17.8141H52.0018V34.7312H48.5143V17.8141H42.2002V14.8047H42.2143ZM57.6549 20.3031H60.6361V23.0875H60.6924C60.7908 22.6938 60.9736 22.3141 61.2408 21.9484C61.508 21.5828 61.8314 21.2313 62.2111 20.9359C62.5908 20.6266 63.0127 20.3875 63.4767 20.1906C63.9408 20.0078 64.4189 19.9094 64.8971 19.9094C65.2627 19.9094 65.5299 19.9234 65.6705 19.9375C65.8111 19.9516 65.9517 19.9797 66.1064 19.9938V23.0594C65.8814 23.0172 65.6564 22.9891 65.4174 22.9609C65.1783 22.9328 64.9533 22.9188 64.7283 22.9188C64.1939 22.9188 63.6877 23.0313 63.2096 23.2422C62.7314 23.4531 62.3236 23.7766 61.9721 24.1844C61.6205 24.6063 61.3392 25.1125 61.1283 25.7313C60.9174 26.35 60.8189 27.0531 60.8189 27.8547V34.7172H57.6408V20.3031H57.6549ZM80.7174 34.7312H77.5955V32.7203H77.5392C77.1455 33.4516 76.5689 34.0281 75.7955 34.4641C75.0221 34.9 74.2346 35.125 73.433 35.125C71.5346 35.125 70.1564 34.6609 69.3127 33.7187C68.4689 32.7766 68.0471 31.3562 68.0471 29.4578V20.3031H71.2252V29.1484C71.2252 30.4141 71.4642 31.3141 71.9564 31.8344C72.4346 32.3547 73.1236 32.6219 73.9955 32.6219C74.6705 32.6219 75.2189 32.5234 75.6689 32.3125C76.1189 32.1016 76.4845 31.8344 76.7517 31.4828C77.033 31.1453 77.2299 30.7234 77.3564 30.2453C77.483 29.7672 77.5392 29.2469 77.5392 28.6844V20.3172H80.7174V34.7312ZM86.1314 30.1047C86.2299 31.0328 86.5814 31.6797 87.1861 32.0594C87.8049 32.425 88.5361 32.6219 89.3939 32.6219C89.6892 32.6219 90.0267 32.5937 90.4064 32.5516C90.7861 32.5094 91.1517 32.4109 91.4752 32.2844C91.8127 32.1578 92.0799 31.9609 92.3049 31.7078C92.5158 31.4547 92.6142 31.1312 92.6002 30.7234C92.5861 30.3156 92.4314 29.9781 92.1502 29.725C91.8689 29.4578 91.5174 29.2609 91.0814 29.0922C90.6455 28.9375 90.1533 28.7969 89.5908 28.6844C89.0283 28.5719 88.4658 28.4453 87.8892 28.3187C87.2986 28.1922 86.722 28.0234 86.1736 27.8406C85.6252 27.6578 85.133 27.4047 84.697 27.0813C84.2611 26.7719 83.9096 26.3641 83.6564 25.8719C83.3892 25.3797 83.2627 24.775 83.2627 24.0438C83.2627 23.2563 83.4595 22.6094 83.8392 22.075C84.2189 21.5406 84.7111 21.1188 85.2877 20.7953C85.8783 20.4719 86.5252 20.2469 87.2424 20.1063C87.9595 19.9797 88.6486 19.9094 89.2955 19.9094C90.0408 19.9094 90.758 19.9938 91.433 20.1484C92.108 20.3031 92.7267 20.5563 93.2752 20.9219C93.8236 21.2734 94.2736 21.7375 94.6392 22.3C95.0049 22.8625 95.2299 23.5516 95.3283 24.3531H92.0095C91.8549 23.5938 91.5174 23.0734 90.9689 22.8203C90.4205 22.5531 89.7877 22.4266 89.0845 22.4266C88.8595 22.4266 88.5924 22.4406 88.283 22.4828C87.9736 22.525 87.6924 22.5953 87.4111 22.6938C87.1439 22.7922 86.9189 22.9469 86.722 23.1438C86.5392 23.3406 86.4408 23.5938 86.4408 23.9172C86.4408 24.3109 86.5814 24.6203 86.8486 24.8594C87.1158 25.0984 87.4674 25.2953 87.9033 25.4641C88.3392 25.6188 88.8314 25.7594 89.3939 25.8719C89.9564 25.9844 90.533 26.1109 91.1236 26.2375C91.7002 26.3641 92.2627 26.5328 92.8252 26.7156C93.3877 26.8984 93.8799 27.1516 94.3158 27.475C94.7517 27.7984 95.1033 28.1922 95.3705 28.6703C95.6377 29.1484 95.7783 29.7531 95.7783 30.4562C95.7783 31.3141 95.5814 32.0312 95.1877 32.6359C94.7939 33.2266 94.2877 33.7187 93.6689 34.0844C93.0502 34.45 92.347 34.7312 91.5877 34.9C90.8283 35.0687 90.0689 35.1531 89.3236 35.1531C88.4095 35.1531 87.5658 35.0547 86.7924 34.8437C86.0189 34.6328 85.3439 34.3234 84.7814 33.9156C84.2189 33.4937 83.7689 32.9734 83.4455 32.3547C83.1221 31.7359 82.9533 30.9906 82.9252 30.1328H86.1314V30.1047ZM96.622 20.3031H99.0267V15.9719H102.205V20.3031H105.074V22.6797H102.205V30.3859C102.205 30.7234 102.219 31.0047 102.247 31.2578C102.275 31.4969 102.345 31.7078 102.444 31.8766C102.542 32.0453 102.697 32.1719 102.908 32.2562C103.119 32.3406 103.386 32.3828 103.752 32.3828C103.977 32.3828 104.202 32.3828 104.427 32.3687C104.652 32.3547 104.877 32.3266 105.102 32.2703V34.7312C104.75 34.7734 104.399 34.8016 104.075 34.8437C103.738 34.8859 103.4 34.9 103.049 34.9C102.205 34.9 101.53 34.8156 101.024 34.6609C100.517 34.5062 100.11 34.2672 99.8283 33.9578C99.533 33.6484 99.3502 33.2687 99.2377 32.8047C99.1392 32.3406 99.0689 31.8062 99.0549 31.2156V22.7078H96.6502V20.3031H96.622ZM107.324 20.3031H110.333V22.2578H110.389C110.839 21.4141 111.458 20.8234 112.26 20.4578C113.061 20.0922 113.919 19.9094 114.861 19.9094C116 19.9094 116.985 20.1063 117.828 20.5141C118.672 20.9078 119.375 21.4563 119.938 22.1594C120.5 22.8625 120.908 23.6781 121.189 24.6063C121.47 25.5344 121.611 26.5328 121.611 27.5875C121.611 28.5578 121.485 29.5 121.231 30.4C120.978 31.3141 120.599 32.1156 120.092 32.8187C119.586 33.5219 118.939 34.0703 118.152 34.4922C117.364 34.9141 116.45 35.125 115.381 35.125C114.917 35.125 114.453 35.0828 113.989 34.9984C113.525 34.9141 113.075 34.7734 112.653 34.5906C112.231 34.4078 111.824 34.1687 111.472 33.8734C111.106 33.5781 110.811 33.2406 110.558 32.8609H110.502V40.0609H107.324V20.3031ZM118.433 27.5313C118.433 26.8844 118.349 26.2516 118.18 25.6328C118.011 25.0141 117.758 24.4797 117.42 24.0016C117.083 23.5234 116.661 23.1438 116.169 22.8625C115.663 22.5813 115.086 22.4266 114.439 22.4266C113.103 22.4266 112.091 22.8906 111.416 23.8188C110.741 24.7469 110.403 25.9844 110.403 27.5313C110.403 28.2625 110.488 28.9375 110.67 29.5562C110.853 30.175 111.106 30.7094 111.472 31.1594C111.824 31.6094 112.245 31.9609 112.738 32.2141C113.23 32.4812 113.806 32.6078 114.453 32.6078C115.185 32.6078 115.789 32.4531 116.295 32.1578C116.802 31.8625 117.21 31.4687 117.533 31.0047C117.856 30.5266 118.095 29.9922 118.236 29.3875C118.363 28.7828 118.433 28.1641 118.433 27.5313ZM124.044 14.8047H127.222V17.8141H124.044V14.8047ZM124.044 20.3031H127.222V34.7312H124.044V20.3031ZM130.063 14.8047H133.241V34.7312H130.063V14.8047ZM142.986 35.125C141.833 35.125 140.806 34.9281 139.906 34.5484C139.006 34.1687 138.247 33.6344 137.614 32.9734C136.995 32.2984 136.517 31.4969 136.194 30.5687C135.87 29.6406 135.702 28.6141 135.702 27.5031C135.702 26.4063 135.87 25.3938 136.194 24.4656C136.517 23.5375 136.995 22.7359 137.614 22.0609C138.233 21.3859 139.006 20.8656 139.906 20.4859C140.806 20.1063 141.833 19.9094 142.986 19.9094C144.139 19.9094 145.166 20.1063 146.066 20.4859C146.966 20.8656 147.725 21.4 148.358 22.0609C148.977 22.7359 149.455 23.5375 149.778 24.4656C150.102 25.3938 150.27 26.4063 150.27 27.5031C150.27 28.6141 150.102 29.6406 149.778 30.5687C149.455 31.4969 148.977 32.2984 148.358 32.9734C147.739 33.6484 146.966 34.1687 146.066 34.5484C145.166 34.9281 144.139 35.125 142.986 35.125ZM142.986 32.6078C143.689 32.6078 144.308 32.4531 144.828 32.1578C145.349 31.8625 145.77 31.4687 146.108 30.9906C146.445 30.5125 146.685 29.9641 146.853 29.3594C147.008 28.7547 147.092 28.1359 147.092 27.5031C147.092 26.8844 147.008 26.2797 146.853 25.6609C146.699 25.0422 146.445 24.5078 146.108 24.0297C145.77 23.5516 145.349 23.1719 144.828 22.8766C144.308 22.5813 143.689 22.4266 142.986 22.4266C142.283 22.4266 141.664 22.5813 141.144 22.8766C140.624 23.1719 140.202 23.5656 139.864 24.0297C139.527 24.5078 139.288 25.0422 139.119 25.6609C138.964 26.2797 138.88 26.8844 138.88 27.5031C138.88 28.1359 138.964 28.7547 139.119 29.3594C139.274 29.9641 139.527 30.5125 139.864 30.9906C140.202 31.4687 140.624 31.8625 141.144 32.1578C141.664 32.4672 142.283 32.6078 142.986 32.6078ZM151.199 20.3031H153.603V15.9719H156.781V20.3031H159.65V22.6797H156.781V30.3859C156.781 30.7234 156.795 31.0047 156.824 31.2578C156.852 31.4969 156.922 31.7078 157.02 31.8766C157.119 32.0453 157.274 32.1719 157.485 32.2562C157.695 32.3406 157.963 32.3828 158.328 32.3828C158.553 32.3828 158.778 32.3828 159.003 32.3687C159.228 32.3547 159.453 32.3266 159.678 32.2703V34.7312C159.327 34.7734 158.975 34.8016 158.652 34.8437C158.314 34.8859 157.977 34.9 157.625 34.9C156.781 34.9 156.106 34.8156 155.6 34.6609C155.094 34.5062 154.686 34.2672 154.405 33.9578C154.11 33.6484 153.927 33.2687 153.814 32.8047C153.716 32.3406 153.645 31.8062 153.631 31.2156V22.7078H151.227V20.3031H151.199Z"
      fill="#050505" />
    <path
      d="M38.5016 14.8047H23.9329L19.4329 0.939087L14.9188 14.8047L0.350098 14.7906L12.1485 23.3687L7.63447 37.2203L19.4329 28.6562L31.2173 37.2203L26.7173 23.3687L38.5016 14.8047Z"
      fill="#00B67A" />
    <path d="M27.73 26.5047L26.7175 23.3687L19.4331 28.6562L27.73 26.5047Z" fill="#005128" />
  </g>
  <defs>
    <clipPath id="clip0_71_2394">
      <rect width="159.3" height="39.1218" fill="white" transform="translate(0.350098 0.939087)" />
    </clipPath>
  </defs>
</svg>